{
.formatVersion = 3;
date = "2010-12-09 15:53:00 +0000";
familyName = Gafata;
featurePrefixes = (
{
code = "languagesystem DFLT dflt;";
name = LanguageSystems;
},
{
code = "lookup _aalt__Access_All_Alternates_lookup_0 {
    sub i by i.alt;
} _aalt__Access_All_Alternates_lookup_0;";
name = _aalt__Access_All_Alternates_lookup_0;
},
{
code = "lookup _ss01__Style_Set_1_lookup_1 {
    sub i by i.alt;
} _ss01__Style_Set_1_lookup_1;";
name = _ss01__Style_Set_1_lookup_1;
},
{
code = "lookup _liga__Standard_Ligatures_lookup_2 {
    sub f i by fi;
    sub f l by fl;
} _liga__Standard_Ligatures_lookup_2;";
name = _liga__Standard_Ligatures_lookup_2;
}
);
features = (
{
code = "    sub i by i.alt;";
tag = aalt;
},
{
code = "script DFLT;
language dflt;
lookup _ss01__Style_Set_1_lookup_1;";
tag = ss01;
},
{
code = "script DFLT;
language dflt;
lookup _liga__Standard_Ligatures_lookup_2;";
tag = liga;
}
);
fontMaster = (
{
customParameters = (
{
name = typoAscender;
value = 921;
},
{
name = typoDescender;
value = -202;
},
{
name = typoLineGap;
value = 0;
},
{
name = winAscent;
value = 921;
},
{
name = winDescent;
value = 202;
},
{
name = hheaAscender;
value = 921;
},
{
name = hheaDescender;
value = -202;
},
{
name = hheaLineGap;
value = 0;
}
);
id = "47a458af-9e79-4f2a-b864-b7c0e255957d";
metricValues = (
{
},
{
pos = -50;
},
{
pos = 50;
},
{
pos = 800;
},
{
pos = -200;
},
{
pos = 650;
},
{
pos = 600;
},
{
},
{
pos = 75;
},
{
pos = 650;
},
{
pos = 600;
},
{
},
{
pos = 350;
},
{
pos = 50;
},
{
pos = 295;
}
);
name = Regular;
visible = 1;
}
);
glyphs = (
{
category = Letter;
glyphname = exclam;
layers = (
{
layerId = "47a458af-9e79-4f2a-b864-b7c0e255957d";
name = Fore;
shapes = (
{
closed = 1;
nodes = (
(102,146,l),
(92,380,l),
(87,671,l),
(162,671,l),
(157,380,l),
(147,146,l)
);
},
{
closed = 1;
nodes = (
(88,1,l),
(88,75,l),
(160,75,l),
(160,1,l)
);
}
);
width = 249;
}
);
unicode = 33;
},
{
category = Letter;
glyphname = quotedbl;
kernLeft = quotedbl.2;
kernRight = quotedbl;
layers = (
{
layerId = "47a458af-9e79-4f2a-b864-b7c0e255957d";
name = Fore;
shapes = (
{
closed = 1;
nodes = (
(151,667,l),
(151,613,l),
(151,569,o),
(150.5,551.5,q),
(150,534,o),
(138,513,q),
(126,492,o),
(118,485,q),
(110,478,o),
(73,447,q),
(47,470,l),
(76,508,o),
(88,535,q),
(91,612,l),
(91,667,l)
);
},
{
closed = 1;
nodes = (
(274,667,l),
(273,613,l),
(273,539,o),
(264,518,q),
(255,497,o),
(208,457,q),
(200,451,o),
(196,447,q),
(169,470,l),
(198,508,o),
(211,535,q),
(213,612,l),
(213,667,l)
);
}
);
width = 330;
}
);
unicode = 34;
},
{
category = Letter;
glyphname = numbersign;
layers = (
{
layerId = "47a458af-9e79-4f2a-b864-b7c0e255957d";
name = Fore;
shapes = (
{
closed = 1;
nodes = (
(367,118,l),
(217,118,l),
(180,-84,l),
(119,-71,l),
(154,118,l),
(45,118,l),
(44,176,l),
(165,176,l),
(196,339,l),
(89,339,l),
(88,397,l),
(207,397,l),
(241,578,l),
(301,565,l),
(270,397,l),
(420,397,l),
(454,578,l),
(514,565,l),
(483,397,l),
(587,397,l),
(588,339,l),
(472,339,l),
(441,176,l),
(543,176,l),
(544,118,l),
(430,118,l),
(393,-84,l),
(332,-71,l)
);
},
{
closed = 1;
nodes = (
(228,176,l),
(378,176,l),
(409,339,l),
(259,339,l)
);
}
);
width = 633;
}
);
unicode = 35;
},
{
category = Letter;
glyphname = dollar;
layers = (
{
layerId = "47a458af-9e79-4f2a-b864-b7c0e255957d";
name = Fore;
shapes = (
{
closed = 1;
nodes = (
(229,-7,l),
(226,-7,l),
(140,-7,o),
(50,22,q),
(66,75,l),
(144,46,o),
(225,46,q),
(306,46,o),
(341.5,70,q),
(377,94,o),
(377,160,q),
(377,204,o),
(344,228,q),
(301,260,o),
(261,273,q),
(201,300,o),
(175,312.5,q),
(149,325,o),
(116.5,347.5,q),
(84,370,o),
(72,393.5,q),
(60,417,o),
(59,449,q),
(59,520,o),
(106.5,562.5,q),
(154,605,o),
(229,611,q),
(229,714,l),
(283,714,l),
(283,610,l),
(348,605,o),
(419,582,q),
(406,534,l),
(312,558,o),
(270,558,q),
(190,558,o),
(158.5,536,q),
(127,514,o),
(127,457,q),
(127,414,o),
(171,386,q),
(202,366,o),
(280.5,333,q),
(359,300,o),
(388,280,q),
(451,236,o),
(452,162,q),
(452,15,o),
(283,-4,q),
(283,-97,l),
(229,-97,l)
);
}
);
width = 497;
}
);
unicode = 36;
},
{
category = Letter;
glyphname = percent;
layers = (
{
layerId = "47a458af-9e79-4f2a-b864-b7c0e255957d";
name = Fore;
shapes = (
{
closed = 1;
nodes = (
(131,-9,l),
(505,696,l),
(569,696,l),
(196,-9,l)
);
},
{
closed = 1;
nodes = (
(124,647,o),
(111,628,q),
(98,609,o),
(98,543,q),
(98,477,o),
(112.5,451.5,q),
(127,426,o),
(175.5,426,q),
(224,426,o),
(236.5,446,q),
(249,466,o),
(249,531,q),
(249,596,o),
(235.5,621.5,q),
(222,647,o),
(173,647,q)
);
},
{
closed = 1;
nodes = (
(253,696,o),
(277,662,q),
(301,628,o),
(301,545.5,q),
(301,463,o),
(268,420,q),
(235,377,o),
(166,377,q),
(97,377,o),
(71.5,412,q),
(46,447,o),
(46,528.5,q),
(46,610,o),
(80,653,q),
(114,696,o),
(173,696,q)
);
},
{
closed = 1;
nodes = (
(484,259,o),
(471,240,q),
(458,221,o),
(458,155,q),
(458,89,o),
(472.5,63.5,q),
(487,38,o),
(535.5,38,q),
(584,38,o),
(596.5,58,q),
(609,78,o),
(609,143,q),
(609,208,o),
(595.5,233.5,q),
(582,259,o),
(533,259,q)
);
},
{
closed = 1;
nodes = (
(613,308,o),
(637,274,q),
(661,240,o),
(661,157.5,q),
(661,75,o),
(628,32,q),
(595,-11,o),
(526,-11,q),
(457,-11,o),
(431.5,24,q),
(406,59,o),
(406,140.5,q),
(406,222,o),
(440,265,q),
(474,308,o),
(533,308,q)
);
}
);
width = 706;
}
);
unicode = 37;
},
{
category = Letter;
glyphname = ampersand;
kernLeft = ampersand.2;
kernRight = ampersand;
layers = (
{
layerId = "47a458af-9e79-4f2a-b864-b7c0e255957d";
name = Fore;
shapes = (
{
closed = 1;
nodes = (
(560,314,l),
(559,302,l),
(463,302,l),
(480,232,o),
(480,176.5,q),
(480,121,o),
(459,84.5,q),
(438,48,o),
(405,28,q),
(342,-9,o),
(275,-9,q),
(184,-9,o),
(122.5,36.5,q),
(61,82,o),
(61,169,q),
(61,286,o),
(152,332,q),
(81,387,o),
(81,476.5,q),
(81,566,o),
(136.5,612.5,q),
(192,659,o),
(247,659,q),
(302,659,o),
(340,644,q),
(317,591,l),
(291,604,o),
(250,604,q),
(187,604,o),
(168,574.5,q),
(149,545,o),
(149,482.5,q),
(149,420,o),
(182.5,390.5,q),
(216,361,o),
(279,352,q),
(264,302,l),
(217,302,o),
(201,307,q),
(188,302,o),
(174.5,292,q),
(161,282,o),
(145.5,249,q),
(130,216,o),
(130,169.5,q),
(130,123,o),
(168,84.5,q),
(206,46,o),
(275,46,q),
(412,46,o),
(412,168,q),
(412,274,o),
(399,342,q),
(399,349,o),
(518,354,q),
(557,355,l)
);
}
);
width = 600;
}
);
unicode = 38;
},
{
category = Letter;
glyphname = quotesingle;
kernLeft = quotedbl.2;
kernRight = quotedbl;
layers = (
{
layerId = "47a458af-9e79-4f2a-b864-b7c0e255957d";
name = Fore;
shapes = (
{
closed = 1;
nodes = (
(151,667,l),
(151,613,l),
(151,569,o),
(150.5,551.5,q),
(150,534,o),
(138,513,q),
(126,492,o),
(118,485,q),
(110,478,o),
(73,447,q),
(47,470,l),
(76,508,o),
(88,535,q),
(91,612,l),
(91,667,l)
);
}
);
width = 208;
}
);
unicode = 39;
},
{
category = Letter;
glyphname = parenleft;
kernRight = parenleft;
layers = (
{
layerId = "47a458af-9e79-4f2a-b864-b7c0e255957d";
name = Fore;
shapes = (
{
closed = 1;
nodes = (
(58,111,o),
(58,279.5,q),
(58,448,o),
(88,545,q),
(118,642,o),
(191,707,q),
(217,684,l),
(190,650,o),
(182.5,633.5,q),
(175,617,o),
(166,589.5,q),
(157,562,o),
(154,551.5,q),
(151,541,o),
(143.5,508.5,q),
(136,476,o),
(133,448,q),
(124,364,o),
(124,268,q),
(124,64,o),
(176,-67,q),
(190,-96,o),
(217,-133,q),
(191,-156,l),
(118,-89,o),
(88,11,q)
);
}
);
width = 255;
}
);
unicode = 40;
},
{
category = Letter;
glyphname = parenright;
kernLeft = parenright;
layers = (
{
layerId = "47a458af-9e79-4f2a-b864-b7c0e255957d";
name = Fore;
shapes = (
{
closed = 1;
nodes = (
(85,606,o),
(75,628,q),
(65,650,o),
(38,684,q),
(64,707,l),
(137,642,o),
(167,545,q),
(197,448,o),
(197,279.5,q),
(197,111,o),
(167,11,q),
(137,-89,o),
(64,-156,q),
(38,-133,l),
(65,-96,o),
(79,-67,q),
(131,64,o),
(131,255,q),
(131,446,o),
(101,552,q)
);
}
);
width = 255;
}
);
unicode = 41;
},
{
category = Letter;
glyphname = asterisk;
kernLeft = asterisk.2;
kernRight = asterisk;
layers = (
{
layerId = "47a458af-9e79-4f2a-b864-b7c0e255957d";
name = Fore;
shapes = (
{
closed = 1;
nodes = (
(177,669,l),
(230,669,l),
(224,552,l),
(333,593,l),
(350,543,l),
(237,512,l),
(310,421,l),
(267,390,l),
(203,488,l),
(139,390,l),
(97,421,l),
(170,513,l),
(57,543,l),
(73,593,l),
(183,552,l)
);
}
);
width = 406;
}
);
unicode = 42;
},
{
category = Letter;
glyphname = plus;
layers = (
{
layerId = "47a458af-9e79-4f2a-b864-b7c0e255957d";
name = Fore;
shapes = (
{
closed = 1;
nodes = (
(273,509,l),
(273,343,l),
(435,343,l),
(435,284,l),
(273,284,l),
(273,124,l),
(214,124,l),
(214,284,l),
(54,284,l),
(54,343,l),
(214,343,l),
(214,509,l)
);
}
);
width = 489;
}
);
unicode = 43;
},
{
category = Letter;
glyphname = comma;
kernLeft = comma.2;
kernRight = comma;
layers = (
{
layerId = "47a458af-9e79-4f2a-b864-b7c0e255957d";
name = Fore;
shapes = (
{
closed = 1;
nodes = (
(146,1,l),
(93,-126,l),
(44,-126,l),
(69,1,l),
(70,92,l),
(145,92,l)
);
}
);
width = 215;
}
);
unicode = 44;
},
{
category = Letter;
glyphname = hyphen;
kernLeft = hyphen.2;
kernRight = hyphen;
layers = (
{
layerId = "47a458af-9e79-4f2a-b864-b7c0e255957d";
name = Fore;
shapes = (
{
closed = 1;
nodes = (
(72,343,l),
(453,343,l),
(453,284,l),
(72,284,l)
);
}
);
width = 525;
}
);
unicode = 45;
},
{
category = Letter;
glyphname = period;
kernLeft = comma.2;
kernRight = comma;
layers = (
{
layerId = "47a458af-9e79-4f2a-b864-b7c0e255957d";
name = Fore;
shapes = (
{
closed = 1;
nodes = (
(154,0,l),
(69,0,l),
(69,90,l),
(154,90,l)
);
}
);
width = 223;
}
);
unicode = 46;
},
{
category = Letter;
glyphname = slash;
kernLeft = slash.2;
kernRight = slash;
layers = (
{
layerId = "47a458af-9e79-4f2a-b864-b7c0e255957d";
name = Fore;
shapes = (
{
closed = 1;
nodes = (
(350,741,l),
(403,718,l),
(77,-17,l),
(23,6,l)
);
}
);
width = 425;
}
);
unicode = 47;
},
{
category = Letter;
glyphname = zero;
kernLeft = zero.2;
kernRight = zero;
layers = (
{
layerId = "47a458af-9e79-4f2a-b864-b7c0e255957d";
name = Fore;
shapes = (
{
closed = 1;
nodes = (
(330,661,o),
(369.5,643.5,q),
(409,626,o),
(431,599.5,q),
(453,573,o),
(465,527,q),
(484,454,o),
(484,360,q),
(484,266,o),
(474.5,211,q),
(465,156,o),
(443.5,104,q),
(422,52,o),
(378.5,21.5,q),
(335,-9,o),
(275,-9,q),
(199,-9,o),
(159,16,q),
(138,30,o),
(122.5,45.5,q),
(107,61,o),
(97,86.5,q),
(87,112,o),
(80.5,135,q),
(74,158,o),
(71,193,q),
(66,251,o),
(66,328,q),
(66,661,o),
(275,661,q)
);
},
{
closed = 1;
nodes = (
(414,403,l),
(414,496,o),
(396,533,q),
(362,599,o),
(256,599,q),
(183,599,o),
(159,536,q),
(137,478,o),
(137,397,q),
(137,328,l),
(137,246,l),
(137,184,o),
(142.5,164,q),
(148,144,o),
(155,123.5,q),
(162,103,o),
(173.5,92.5,q),
(185,82,o),
(200,72,q),
(229,52,o),
(289,52,q),
(336,52,o),
(368,86,q),
(390,109,o),
(404,171,q),
(413,213,o),
(413,329,q)
);
}
);
width = 549;
}
);
unicode = 48;
},
{
category = Letter;
glyphname = one;
kernLeft = one;
layers = (
{
layerId = "47a458af-9e79-4f2a-b864-b7c0e255957d";
name = Fore;
shapes = (
{
closed = 1;
nodes = (
(191,586,l),
(58,506,l),
(31,551,l),
(191,648,l),
(259,648,l),
(258,0,l),
(191,0,l)
);
}
);
width = 355;
}
);
unicode = 49;
},
{
category = Letter;
glyphname = two;
kernLeft = two.2;
kernRight = two;
layers = (
{
layerId = "47a458af-9e79-4f2a-b864-b7c0e255957d";
name = Fore;
shapes = (
{
closed = 1;
nodes = (
(424,0,l),
(53,0,l),
(53,23,l),
(53,174,o),
(204,295,q),
(287,362,o),
(309,392.5,q),
(331,423,o),
(331,481.5,q),
(331,540,o),
(303.5,563,q),
(276,586,o),
(215,586,q),
(154,586,o),
(80,555,q),
(63,612,l),
(148,648,o),
(227.5,648,q),
(307,648,o),
(354.5,602.5,q),
(402,557,o),
(402,484,q),
(402,441,o),
(384,398,q),
(378,383,o),
(357.5,359.5,q),
(337,336,o),
(325.5,325.5,q),
(314,315,o),
(291,293.5,q),
(268,272,o),
(242.5,249,q),
(217,226,o),
(210,219.5,q),
(203,213,o),
(185.5,195.5,q),
(168,178,o),
(163.5,170.5,q),
(159,163,o),
(148.5,147.5,q),
(138,132,o),
(135,120,q),
(125,81,o),
(124,56,q),
(424,56,l)
);
}
);
width = 476;
}
);
unicode = 50;
},
{
category = Letter;
glyphname = three;
kernLeft = three.2;
kernRight = three;
layers = (
{
layerId = "47a458af-9e79-4f2a-b864-b7c0e255957d";
name = Fore;
shapes = (
{
closed = 1;
nodes = (
(159,316,l),
(159,364,l),
(186,364,l),
(193,365,o),
(208.5,366,q),
(224,367,o),
(230.5,367.5,q),
(237,368,o),
(248.5,369.5,q),
(260,371,o),
(265.5,373.5,q),
(271,376,o),
(278,380,q),
(318,398,o),
(318,488,q),
(318,553,o),
(286.5,579,q),
(255,605,o),
(201.5,605,q),
(148,605,o),
(86,580,q),
(67,629,l),
(140,661,o),
(217.5,661,q),
(295,661,o),
(340,618,q),
(386,574,o),
(386,487,q),
(386,441,o),
(369.5,401,q),
(353,361,o),
(322,348,q),
(413,313,o),
(413,183,q),
(413,93,o),
(357,40,q),
(301,-13,o),
(209.5,-13,q),
(118,-13,o),
(43,33,q),
(69,84,l),
(136,45,o),
(214.5,45,q),
(293,45,o),
(323,85,q),
(344,113,o),
(344,172,q),
(344,231,o),
(323,269.5,q),
(302,308,o),
(264,312,q),
(226,316,o),
(186,316,q)
);
}
);
width = 473;
}
);
unicode = 51;
},
{
category = Letter;
glyphname = four;
kernLeft = four.2;
kernRight = four;
layers = (
{
layerId = "47a458af-9e79-4f2a-b864-b7c0e255957d";
name = Fore;
shapes = (
{
closed = 1;
nodes = (
(356,237,l),
(424,237,l),
(424,181,l),
(356,181,l),
(356,0,l),
(288,0,l),
(288,181,l),
(46,181,l),
(46,252,l),
(46,306,o),
(75,354,q),
(274,659,l),
(324,627,l),
(143,347,l),
(122,315,o),
(118,301.5,q),
(114,288,o),
(114,257,q),
(114,237,l),
(288,238,l),
(288,384,l),
(356,384,l)
);
}
);
width = 465;
}
);
unicode = 52;
},
{
category = Letter;
glyphname = five;
kernRight = five;
layers = (
{
layerId = "47a458af-9e79-4f2a-b864-b7c0e255957d";
name = Fore;
shapes = (
{
closed = 1;
nodes = (
(328,-7,o),
(235.5,-7,q),
(143,-7,o),
(50,47,q),
(73,104,l),
(157,55,o),
(230,55,q),
(303,55,o),
(331,87.5,q),
(359,120,o),
(359,203.5,q),
(359,287,o),
(328,316,q),
(297,345,o),
(232,345,q),
(88,345,l),
(88,648,l),
(393,648,l),
(393,591,l),
(156,591,l),
(153,409,l),
(244,409,l),
(430,409,o),
(430,214,q),
(430,113,o),
(379,53,q)
);
}
);
width = 483;
}
);
unicode = 53;
},
{
category = Letter;
glyphname = six;
kernLeft = six;
layers = (
{
layerId = "47a458af-9e79-4f2a-b864-b7c0e255957d";
name = Fore;
shapes = (
{
closed = 1;
nodes = (
(369,380,o),
(411,337.5,q),
(453,295,o),
(453,187,q),
(453,85,o),
(371,25,q),
(326,-8,o),
(263,-8,q),
(148,-8,o),
(106.5,64,q),
(65,136,o),
(65,307,q),
(65,478,o),
(116,568.5,q),
(167,659,o),
(270,659,q),
(351,659,o),
(437,607,q),
(405,557,l),
(337,597,o),
(274,597,q),
(193,597,o),
(165,540.5,q),
(137,484,o),
(136,335,q),
(139,336,o),
(156,344.5,q),
(173,353,o),
(179.5,355.5,q),
(186,358,o),
(202.5,364,q),
(219,370,o),
(230,372,q),
(265,380,o),
(294,380,q)
);
},
{
closed = 1;
nodes = (
(189,303,o),
(163,291,q),
(137,279,o),
(136,279,q),
(136,137,o),
(173,93,q),
(207,52,o),
(279,52,q),
(385,52,o),
(385,184,q),
(385,266,o),
(359.5,293,q),
(334,320,o),
(286,320,q),
(238,320,o),
(213.5,311.5,q)
);
}
);
width = 509;
}
);
unicode = 54;
},
{
category = Letter;
glyphname = seven;
kernLeft = seven.2;
kernRight = seven;
layers = (
{
layerId = "47a458af-9e79-4f2a-b864-b7c0e255957d";
name = Fore;
shapes = (
{
closed = 1;
nodes = (
(118,519,l),
(47,519,l),
(47,660,l),
(409,660,l),
(424,613,l),
(368,498,l),
(285,330,o),
(248,231,q),
(211,132,o),
(190,-9,q),
(118,-9,l),
(137,147,o),
(215,321,q),
(350,604,l),
(118,604,l)
);
}
);
width = 453;
}
);
unicode = 55;
},
{
category = Letter;
glyphname = eight;
kernLeft = eight.2;
kernRight = eight;
layers = (
{
layerId = "47a458af-9e79-4f2a-b864-b7c0e255957d";
name = Fore;
shapes = (
{
closed = 1;
nodes = (
(61,81,o),
(61,169,q),
(61,227,o),
(87.5,268.5,q),
(114,310,o),
(156,332,q),
(81,383,o),
(81,483,q),
(81,540,o),
(112.5,582,q),
(144,624,o),
(182.5,641.5,q),
(221,659,o),
(256,659,q),
(433,659,o),
(433,481,q),
(433,432,o),
(411.5,393,q),
(390,354,o),
(357,330,q),
(453,281,o),
(453,169,q),
(453,110,o),
(418,68,q),
(355,-9,o),
(262,-9,q),
(169,-9,o),
(115,36,q)
);
},
{
closed = 1;
nodes = (
(190,46,o),
(257.5,46,q),
(325,46,o),
(355,77,q),
(385,108,o),
(385,168,q),
(385,240,o),
(339,266,q),
(306,285,o),
(263.5,293,q),
(221,301,o),
(208,306,q),
(205,305,o),
(199.5,303.5,q),
(194,302,o),
(180,292.5,q),
(166,283,o),
(155.5,269.5,q),
(145,256,o),
(136.5,229,q),
(128,202,o),
(128,161,q),
(128,120,o),
(159,83,q)
);
},
{
closed = 1;
nodes = (
(149,543,o),
(149,482,q),
(149,363,o),
(304,349,q),
(306,349,o),
(315,354,q),
(324,359,o),
(330.5,364.5,q),
(337,370,o),
(343,379.5,q),
(349,389,o),
(354,402,q),
(366,431,o),
(366,468.5,q),
(366,506,o),
(362.5,524,q),
(359,542,o),
(349,562,q),
(328,604,o),
(260,604,q),
(192,604,o),
(170.5,573.5,q)
);
}
);
width = 514;
}
);
unicode = 56;
},
{
category = Letter;
glyphname = nine;
kernLeft = nine.2;
kernRight = nine;
layers = (
{
layerId = "47a458af-9e79-4f2a-b864-b7c0e255957d";
name = Fore;
shapes = (
{
closed = 1;
nodes = (
(280,273,o),
(211,273,q),
(142,273,o),
(100.5,316.5,q),
(59,360,o),
(59,466,q),
(59,535,o),
(110.5,597,q),
(162,659,o),
(254,659,q),
(354,659,o),
(400,608,q),
(440,565,o),
(448,450,q),
(452,403,o),
(452,329,q),
(452,160,o),
(397.5,76,q),
(343,-8,o),
(247,-8,q),
(199,-8,o),
(161.5,5,q),
(124,18,o),
(66,52,q),
(88,106,l),
(182,51,o),
(251.5,51,q),
(321,51,o),
(350,106,q),
(379,161,o),
(381,303,q)
);
},
{
closed = 1;
nodes = (
(173,333,o),
(226,333,q),
(279,333,o),
(381,359,q),
(383,387,o),
(383,410.5,q),
(383,434,o),
(381,465.5,q),
(379,497,o),
(369,530,q),
(348,599,o),
(238,599,q),
(123,599,o),
(123,466,q),
(123,384,o),
(148,358.5,q)
);
}
);
width = 518;
}
);
unicode = 57;
},
{
category = Letter;
glyphname = colon;
kernLeft = colon.2;
kernRight = colon;
layers = (
{
layerId = "47a458af-9e79-4f2a-b864-b7c0e255957d";
name = Fore;
shapes = (
{
closed = 1;
nodes = (
(157,2,l),
(72,2,l),
(73,93,l),
(157,93,l)
);
},
{
closed = 1;
nodes = (
(157,317,l),
(72,317,l),
(73,408,l),
(157,408,l)
);
}
);
width = 229;
}
);
unicode = 58;
},
{
category = Letter;
glyphname = semicolon;
kernLeft = colon.2;
kernRight = colon;
layers = (
{
layerId = "47a458af-9e79-4f2a-b864-b7c0e255957d";
name = Fore;
shapes = (
{
closed = 1;
nodes = (
(170,2,l),
(117,-125,l),
(68,-125,l),
(93,2,l),
(94,93,l),
(169,93,l)
);
},
{
closed = 1;
nodes = (
(165,317,l),
(80,317,l),
(81,408,l),
(165,408,l)
);
}
);
width = 249;
}
);
unicode = 59;
},
{
category = Letter;
glyphname = less;
layers = (
{
layerId = "47a458af-9e79-4f2a-b864-b7c0e255957d";
name = Fore;
shapes = (
{
closed = 1;
nodes = (
(379,81,l),
(50,250,l),
(50,310,l),
(379,478,l),
(379,415,l),
(135,292,l),
(122,286,o),
(122,280.5,q),
(122,275,o),
(129.5,271.5,q),
(137,268,o),
(379,144,q)
);
}
);
width = 449;
}
);
unicode = 60;
},
{
category = Letter;
glyphname = equal;
layers = (
{
layerId = "47a458af-9e79-4f2a-b864-b7c0e255957d";
name = Fore;
shapes = (
{
closed = 1;
nodes = (
(76,243,l),
(407,243,l),
(407,184,l),
(76,184,l)
);
},
{
closed = 1;
nodes = (
(76,443,l),
(407,443,l),
(407,384,l),
(76,384,l)
);
}
);
width = 483;
}
);
unicode = 61;
},
{
category = Letter;
glyphname = greater;
layers = (
{
layerId = "47a458af-9e79-4f2a-b864-b7c0e255957d";
name = Fore;
shapes = (
{
closed = 1;
nodes = (
(327,284,o),
(326,286,q),
(323,288,o),
(319.5,289.5,q),
(316,291,o),
(314,292,q),
(70,415,l),
(70,478,l),
(399,310,l),
(399,250,l),
(70,81,l),
(70,144,l),
(263,243,o),
(314,269,q),
(326,277,o),
(327,280,q),
(327,283,l)
);
}
);
width = 449;
}
);
unicode = 62;
},
{
category = Letter;
glyphname = question;
kernLeft = question;
layers = (
{
layerId = "47a458af-9e79-4f2a-b864-b7c0e255957d";
name = Fore;
shapes = (
{
closed = 1;
nodes = (
(105,662,o),
(150.5,662,q),
(196,662,o),
(218,657.5,q),
(240,653,o),
(265,644.5,q),
(290,636,o),
(305.5,621,q),
(321,606,o),
(334,584,q),
(360,544,o),
(360,462,q),
(360,390,o),
(328,354,q),
(310,334,o),
(298.5,325,q),
(287,316,o),
(270,305.5,q),
(253,295,o),
(238,286,q),
(223,277,o),
(218,273.5,q),
(213,270,o),
(203.5,263,q),
(194,256,o),
(190.5,250.5,q),
(187,245,o),
(182,236,q),
(176,224,o),
(176,193,q),
(174,129,l),
(118,129,l),
(116,161,o),
(116,205.5,q),
(116,250,o),
(134.5,277,q),
(153,304,o),
(179,320,q),
(205,336,o),
(231,352,q),
(294,391,o),
(294,460,q),
(294,522,o),
(273,551,q),
(262,566,o),
(250.5,577.5,q),
(239,589,o),
(220,594,q),
(178,607,o),
(135.5,607,q),
(93,607,o),
(51,601,q),
(42,645,o),
(37,655,q)
);
},
{
closed = 1;
nodes = (
(109,-19,l),
(109,55,l),
(181,55,l),
(181,-19,l)
);
}
);
width = 406;
}
);
unicode = 63;
},
{
category = Letter;
glyphname = at;
kernLeft = at.2;
kernRight = at;
layers = (
{
layerId = "47a458af-9e79-4f2a-b864-b7c0e255957d";
name = Fore;
shapes = (
{
closed = 1;
nodes = (
(478,251,l),
(425,254,o),
(378,254,q),
(331,254,o),
(312,239.5,q),
(293,225,o),
(293,185.5,q),
(293,146,o),
(306,132.5,q),
(319,119,o),
(352,119,q),
(385,119,o),
(430.5,133.5,q),
(476,148,o),
(489,166,q),
(489,250,l)
);
},
{
closed = 1;
nodes = (
(490,353,l),
(490,405,o),
(467,425.5,q),
(444,446,o),
(387.5,446,q),
(331,446,o),
(256.5,420,q),
(182,394,o),
(151,344.5,q),
(120,295,o),
(120,207,q),
(120,119,o),
(129.5,77,q),
(139,35,o),
(174.5,3.5,q),
(210,-28,o),
(254.5,-41.5,q),
(299,-55,o),
(365,-55,q),
(431,-55,o),
(472,-51.5,q),
(513,-48,o),
(549.5,-36,q),
(586,-24,o),
(607,-4,q),
(628,16,o),
(644,50,q),
(671,112,o),
(671,249,q),
(727,246,l),
(727,78,o),
(675,-4,q),
(630,-76,o),
(510,-97,q),
(459,-106,o),
(383,-108,q),
(58,-108,o),
(58,156,q),
(58,311,o),
(103,373,q),
(148,435,o),
(244,467.5,q),
(340,500,o),
(412.5,500,q),
(485,500,o),
(525,455,q),
(547,431,o),
(548,378,q),
(549,362,o),
(549,321,q),
(549,298,l),
(549,203,o),
(550,178,q),
(553,159,o),
(560,121.5,q),
(567,84,o),
(570,65,q),
(529,65,l),
(522,72,l),
(505,123,l),
(418,66,o),
(348,64,q),
(294,64,o),
(264,93.5,q),
(234,123,o),
(234,176,q),
(234,250,o),
(275,276.5,q),
(316,303,o),
(389,303,q),
(417,303,o),
(471,299,q),
(489,298,l)
);
}
);
width = 774;
}
);
unicode = 64;
},
{
category = Letter;
glyphname = A;
kernLeft = A.2;
kernRight = A;
layers = (
{
layerId = "47a458af-9e79-4f2a-b864-b7c0e255957d";
name = Fore;
shapes = (
{
closed = 1;
nodes = (
(343,648,l),
(562,0,l),
(491,0,l),
(424,201,l),
(172,201,l),
(105,0,l),
(34,0,l),
(253,648,l)
);
},
{
closed = 1;
nodes = (
(407,257,l),
(301,593,l),
(298,593,l),
(190,257,l)
);
}
);
width = 596;
}
);
unicode = 65;
},
{
category = Letter;
glyphname = B;
kernLeft = B.2;
kernRight = B;
layers = (
{
layerId = "47a458af-9e79-4f2a-b864-b7c0e255957d";
name = Fore;
shapes = (
{
closed = 1;
nodes = (
(157,0,l),
(91,0,l),
(91,648,l),
(248,648,l),
(290,648,o),
(317.5,645.5,q),
(345,643,o),
(374.5,632.5,q),
(404,622,o),
(421,603,q),
(460,559,o),
(460,463.5,q),
(460,368,o),
(407,333,q),
(427,325,o),
(438,317.5,q),
(449,310,o),
(464,294,q),
(491,262,o),
(491,167.5,q),
(491,73,o),
(436.5,36,q),
(382,-1,o),
(260,-1,q)
);
},
{
closed = 1;
nodes = (
(295,59,l),
(366,59,o),
(394,79,q),
(422,99,o),
(422,175,q),
(422,302,o),
(322,302,q),
(157,302,l),
(157,60,l)
);
},
{
closed = 1;
nodes = (
(157,587,l),
(157,358,l),
(343,358,l),
(392,358,o),
(392,466,q),
(392,527,o),
(381,545,q),
(370,563,o),
(360.5,570,q),
(351,577,o),
(330,581,q),
(300,587,o),
(237,587,q)
);
}
);
width = 549;
}
);
unicode = 66;
},
{
category = Letter;
glyphname = C;
kernLeft = C.2;
kernRight = C;
layers = (
{
layerId = "47a458af-9e79-4f2a-b864-b7c0e255957d";
name = Fore;
shapes = (
{
closed = 1;
nodes = (
(317,660,o),
(374,660,q),
(431,660,o),
(514,633,q),
(498,580,l),
(408,598,o),
(364.5,598,q),
(321,598,o),
(290,593.5,q),
(259,589,o),
(226.5,573,q),
(194,557,o),
(175,528,q),
(132,462,o),
(132,326,q),
(132,159,o),
(192,102,q),
(221,75,o),
(252,64.5,q),
(283,54,o),
(320.5,54,q),
(358,54,o),
(376,56,q),
(434,60,o),
(491,94,q),
(514,40,l),
(442,-9,o),
(326,-9,q),
(281,-9,o),
(248,-3.5,q),
(215,2,o),
(178,21.5,q),
(141,41,o),
(117.5,76,q),
(94,111,o),
(78,174,q),
(62,237,o),
(62,322.5,q),
(62,408,o),
(82,471,q),
(102,534,o),
(131.5,569,q),
(161,604,o),
(203,625.5,q),
(245,647,o),
(281,653.5,q)
);
}
);
width = 554;
}
);
unicode = 67;
},
{
category = Letter;
glyphname = D;
kernLeft = B.2;
kernRight = D;
layers = (
{
layerId = "47a458af-9e79-4f2a-b864-b7c0e255957d";
name = Fore;
shapes = (
{
closed = 1;
nodes = (
(262,648,l),
(323,648,o),
(364,642,q),
(405,636,o),
(445,616.5,q),
(485,597,o),
(508,563,q),
(559,488,o),
(559,329,q),
(559,231,o),
(533,155,q),
(515,103,o),
(464,57,q),
(436,31,o),
(372,12,q),
(336,2,o),
(295.5,1,q),
(255,0,o),
(224,0,q),
(91,0,l),
(91,648,l)
);
},
{
closed = 1;
nodes = (
(224,58,l),
(229,58,o),
(250,58,q),
(271,58,o),
(287.5,58.5,q),
(304,59,o),
(331,61,q),
(358,63,o),
(370.5,68,q),
(383,73,o),
(403,82,q),
(423,91,o),
(432,104.5,q),
(441,118,o),
(453.5,138,q),
(466,158,o),
(472,185,q),
(486,258,o),
(487,336,q),
(488,414,o),
(477.5,464.5,q),
(467,515,o),
(438,542.5,q),
(409,570,o),
(370,578.5,q),
(331,587,o),
(263,587,q),
(157,587,l),
(157,58,l)
);
}
);
width = 622;
}
);
unicode = 68;
},
{
category = Letter;
glyphname = E;
kernLeft = B.2;
kernRight = E;
layers = (
{
layerId = "47a458af-9e79-4f2a-b864-b7c0e255957d";
name = Fore;
shapes = (
{
closed = 1;
nodes = (
(91,0,l),
(91,648,l),
(448,648,l),
(441,592,l),
(158,592,l),
(158,363,l),
(408,363,l),
(408,307,l),
(157,307,l),
(157,56,l),
(459,56,l),
(459,0,l)
);
}
);
width = 507;
}
);
unicode = 69;
},
{
category = Letter;
glyphname = F;
kernLeft = B.2;
kernRight = F;
layers = (
{
layerId = "47a458af-9e79-4f2a-b864-b7c0e255957d";
name = Fore;
shapes = (
{
closed = 1;
nodes = (
(158,360,l),
(382,360,l),
(382,304,l),
(157,304,l),
(157,0,l),
(91,0,l),
(91,648,l),
(416,648,l),
(409,592,l),
(158,592,l)
);
}
);
width = 452;
}
);
unicode = 70;
},
{
category = Letter;
glyphname = G;
kernLeft = C.2;
kernRight = G;
layers = (
{
layerId = "47a458af-9e79-4f2a-b864-b7c0e255957d";
name = Fore;
shapes = (
{
closed = 1;
nodes = (
(534,332,l),
(533,51,l),
(449,-9,o),
(345,-9,q),
(291,-9,o),
(252,-2.5,q),
(213,4,o),
(175,24.5,q),
(137,45,o),
(114,81,q),
(62,160,o),
(62,324,q),
(62,660,o),
(359,660,q),
(398,660,o),
(451.5,650.5,q),
(505,641,o),
(537,628,q),
(519,576,l),
(448,598,o),
(359,598,q),
(230,598,o),
(181,537,q),
(132,476,o),
(132,325,q),
(132,152,o),
(196,98,q),
(228,71,o),
(261.5,62,q),
(295,53,o),
(344,53,q),
(425,53,o),
(471,84,q),
(471,284,l),
(361,284,l),
(361,332,l)
);
}
);
width = 603;
}
);
unicode = 71;
},
{
category = Letter;
glyphname = H;
kernLeft = B.2;
kernRight = H;
layers = (
{
layerId = "47a458af-9e79-4f2a-b864-b7c0e255957d";
name = Fore;
shapes = (
{
closed = 1;
nodes = (
(533,648,l),
(533,0,l),
(467,0,l),
(467,308,l),
(157,308,l),
(157,0,l),
(91,0,l),
(91,648,l),
(157,648,l),
(157,364,l),
(467,364,l),
(467,648,l)
);
}
);
width = 624;
}
);
unicode = 72;
},
{
category = Letter;
glyphname = I;
kernLeft = B.2;
kernRight = H;
layers = (
{
layerId = "47a458af-9e79-4f2a-b864-b7c0e255957d";
name = Fore;
shapes = (
{
closed = 1;
nodes = (
(157,648,l),
(157,0,l),
(91,0,l),
(91,648,l)
);
}
);
width = 248;
}
);
unicode = 73;
},
{
category = Letter;
glyphname = J;
kernLeft = J.2;
kernRight = J;
layers = (
{
layerId = "47a458af-9e79-4f2a-b864-b7c0e255957d";
name = Fore;
shapes = (
{
closed = 1;
nodes = (
(173,648,l),
(173,78,l),
(172,-24,o),
(121,-79,q),
(70,-134,o),
(-16,-136,q),
(-29,-98,l),
(104,-71,o),
(107,78,q),
(107,648,l)
);
}
);
width = 263;
}
);
unicode = 74;
},
{
category = Letter;
glyphname = K;
kernLeft = B.2;
kernRight = K;
layers = (
{
layerId = "47a458af-9e79-4f2a-b864-b7c0e255957d";
name = Fore;
shapes = (
{
closed = 1;
nodes = (
(91,0,l),
(91,648,l),
(158,648,l),
(158,316,l),
(229,399,l),
(300,482,o),
(370,565,q),
(441,648,l),
(514,648,l),
(254,341,l),
(553,0,l),
(470,0,l),
(214,294,l),
(157,227,l),
(157,0,l)
);
}
);
width = 566;
}
);
unicode = 75;
},
{
category = Letter;
glyphname = L;
kernLeft = B.2;
kernRight = L;
layers = (
{
layerId = "47a458af-9e79-4f2a-b864-b7c0e255957d";
name = Fore;
shapes = (
{
closed = 1;
nodes = (
(91,1,l),
(91,648,l),
(157,648,l),
(156,56,l),
(444,56,l),
(444,0,l),
(92,0,l),
(92,1,l)
);
}
);
width = 467;
}
);
unicode = 76;
},
{
category = Letter;
glyphname = M;
kernLeft = M.2;
kernRight = M;
layers = (
{
layerId = "47a458af-9e79-4f2a-b864-b7c0e255957d";
name = Fore;
shapes = (
{
closed = 1;
nodes = (
(381,245,l),
(580,648,l),
(660,648,l),
(680,0,l),
(613,0,l),
(607,488,l),
(606,560,l),
(413,180,l),
(348,180,l),
(155,560,l),
(148,0,l),
(81,0,l),
(103,648,l),
(181,648,l)
);
}
);
width = 762;
}
);
unicode = 77;
},
{
category = Letter;
glyphname = N;
kernLeft = B.2;
kernRight = H;
layers = (
{
layerId = "47a458af-9e79-4f2a-b864-b7c0e255957d";
name = Fore;
shapes = (
{
closed = 1;
nodes = (
(568,648,l),
(568,0,l),
(495,0,l),
(153,547,l),
(157,453,l),
(157,0,l),
(91,0,l),
(91,648,l),
(163,648,l),
(505,103,l),
(502,199,l),
(502,648,l)
);
}
);
width = 659;
}
);
unicode = 78;
},
{
category = Letter;
glyphname = O;
kernLeft = C.2;
kernRight = O;
layers = (
{
layerId = "47a458af-9e79-4f2a-b864-b7c0e255957d";
name = Fore;
shapes = (
{
closed = 1;
nodes = (
(482,661,o),
(540.5,591,q),
(599,521,o),
(599,329,q),
(599,232,o),
(576,163,q),
(553,94,o),
(512,58,q),
(437,-9,o),
(331,-9,q),
(186,-9,o),
(136,44,q),
(85,99,o),
(70,196,q),
(62,252,o),
(62,335.5,q),
(62,419,o),
(87,487,q),
(112,555,o),
(153,591,q),
(233,661,o),
(331,661,q)
);
},
{
closed = 1;
nodes = (
(221,599,o),
(176.5,535.5,q),
(132,472,o),
(132,328,q),
(132,192,o),
(166,126,q),
(194,71,o),
(268,58,q),
(298,52,o),
(345,52,q),
(439,52,o),
(484,117,q),
(529,182,o),
(529,329,q),
(529,443,o),
(507,502,q),
(494,537,o),
(470,557,q),
(420,599,o),
(312,599,q)
);
}
);
width = 661;
}
);
unicode = 79;
},
{
category = Letter;
glyphname = P;
kernLeft = B.2;
kernRight = P;
layers = (
{
layerId = "47a458af-9e79-4f2a-b864-b7c0e255957d";
name = Fore;
shapes = (
{
closed = 1;
nodes = (
(204,254,l),
(158,254,l),
(158,0,l),
(91,0,l),
(91,648,l),
(281,648,l),
(334,648,o),
(370.5,641.5,q),
(407,635,o),
(441,616,q),
(509,576,o),
(509,453,q),
(509,350,o),
(460,302,q),
(439,282,o),
(404,270.5,q),
(369,259,o),
(339,256,q),
(309,253,o),
(264,253,q)
);
},
{
closed = 1;
nodes = (
(300,310,l),
(381,310,o),
(410,335.5,q),
(439,361,o),
(439,449,q),
(439,537,o),
(402.5,562,q),
(366,587,o),
(269,587,q),
(158,587,l),
(158,311,l),
(224,311,l)
);
}
);
width = 553;
}
);
unicode = 80;
},
{
category = Letter;
glyphname = Q;
kernLeft = C.2;
kernRight = O;
layers = (
{
layerId = "47a458af-9e79-4f2a-b864-b7c0e255957d";
name = Fore;
shapes = (
{
closed = 1;
nodes = (
(479,661,o),
(538.5,590.5,q),
(598,520,o),
(598,329,q),
(598,125,o),
(494,44,q),
(437,-1,o),
(358,-7,q),
(358,-34,l),
(358,-37,o),
(358,-40,q),
(358,-94,o),
(374.5,-109.5,q),
(391,-125,o),
(466,-144,q),
(484,-149,o),
(495,-152,q),
(495,-184,o),
(498,-197,q),
(384,-181,o),
(337.5,-147.5,q),
(291,-114,o),
(290,-33,q),
(290,-7,l),
(245,-5,o),
(213,3,q),
(181,11,o),
(150.5,32,q),
(120,53,o),
(102,89,q),
(62,169,o),
(62,328,q),
(62,419,o),
(86.5,487,q),
(111,555,o),
(152,591,q),
(230,661,o),
(328,661,q)
);
},
{
closed = 1;
nodes = (
(219,599,o),
(176,536,q),
(133,473,o),
(133,328,q),
(133,192,o),
(165,126,q),
(193,70,o),
(264,58,q),
(295,52,o),
(342,52,q),
(436,52,o),
(481.5,117.5,q),
(527,183,o),
(527,329,q),
(527,403,o),
(519,449,q),
(511,495,o),
(488.5,531.5,q),
(466,568,o),
(422.5,583.5,q),
(379,599,o),
(309,599,q)
);
}
);
width = 660;
}
);
unicode = 81;
},
{
category = Letter;
glyphname = R;
kernLeft = B.2;
kernRight = R;
layers = (
{
layerId = "47a458af-9e79-4f2a-b864-b7c0e255957d";
name = Fore;
shapes = (
{
closed = 1;
nodes = (
(204,254,l),
(158,254,l),
(158,0,l),
(91,0,l),
(91,648,l),
(281,648,l),
(334,648,o),
(370.5,641.5,q),
(407,635,o),
(441,616,q),
(509,576,o),
(509,453,q),
(509,361,o),
(472.5,317,q),
(436,273,o),
(369,260,q),
(537,18,l),
(485,-17,l),
(295,253,l),
(264,253,l)
);
},
{
closed = 1;
nodes = (
(300,310,l),
(381,310,o),
(410,335.5,q),
(439,361,o),
(439,449,q),
(439,537,o),
(402.5,562,q),
(366,587,o),
(269,587,q),
(158,587,l),
(158,311,l),
(224,311,l)
);
}
);
width = 580;
}
);
unicode = 82;
},
{
category = Letter;
glyphname = S;
kernLeft = S.2;
kernRight = S;
layers = (
{
layerId = "47a458af-9e79-4f2a-b864-b7c0e255957d";
name = Fore;
shapes = (
{
closed = 1;
nodes = (
(142,46,o),
(231,46,q),
(320,46,o),
(357,72.5,q),
(394,99,o),
(394,171,q),
(394,209,o),
(370,234,q),
(347,256,o),
(328,266,q),
(292,284,l),
(275,292,o),
(250.5,303,q),
(226,314,o),
(208,322.5,q),
(190,331,o),
(159,347.5,q),
(128,364,o),
(115,375.5,q),
(102,387,o),
(86,404,q),
(58,435,o),
(58,484,q),
(58,567,o),
(115,613.5,q),
(172,660,o),
(262,660,q),
(352,660,o),
(429,635,q),
(416,585,l),
(354,605,o),
(273.5,605,q),
(193,605,o),
(160,579.5,q),
(127,554,o),
(127,492,q),
(127,446,o),
(174,416,q),
(212,392,o),
(291,357.5,q),
(370,323,o),
(398,304,q),
(469,256,o),
(470,174,q),
(470,-9,o),
(233,-9,q),
(134,-9,o),
(48,20,q),
(65,75,l)
);
}
);
width = 514;
}
);
unicode = 83;
},
{
category = Letter;
glyphname = T;
kernLeft = T.2;
kernRight = T;
layers = (
{
layerId = "47a458af-9e79-4f2a-b864-b7c0e255957d";
name = Fore;
shapes = (
{
closed = 1;
nodes = (
(24,648,l),
(453,648,l),
(453,592,l),
(271,592,l),
(271,0,l),
(205,0,l),
(205,592,l),
(24,592,l)
);
}
);
width = 477;
}
);
unicode = 84;
},
{
category = Letter;
glyphname = U;
kernLeft = U.2;
kernRight = U;
layers = (
{
layerId = "47a458af-9e79-4f2a-b864-b7c0e255957d";
name = Fore;
shapes = (
{
closed = 1;
nodes = (
(308,-10,o),
(296,-10,q),
(284,-10,o),
(272,-9.5,q),
(260,-9,o),
(235,-5.5,q),
(210,-2,o),
(193,5.5,q),
(176,13,o),
(154.5,29,q),
(133,45,o),
(120,67,q),
(87,120,o),
(87,204,q),
(87,648,l),
(154,648,l),
(154,204,l),
(157,47,o),
(310,47,q),
(375,47,o),
(418,85,q),
(461,123,o),
(461,200,q),
(461,648,l),
(526,648,l),
(525,202,l),
(525,-10,o),
(310,-10,q)
);
}
);
width = 612;
}
);
unicode = 85;
},
{
category = Letter;
glyphname = V;
kernLeft = V.2;
kernRight = V;
layers = (
{
layerId = "47a458af-9e79-4f2a-b864-b7c0e255957d";
name = Fore;
shapes = (
{
closed = 1;
nodes = (
(35,648,l),
(110,648,l),
(289,81,l),
(471,648,l),
(543,648,l),
(331,0,l),
(248,0,l)
);
}
);
width = 578;
}
);
unicode = 86;
},
{
category = Letter;
glyphname = W;
kernLeft = W.2;
kernRight = W;
layers = (
{
layerId = "47a458af-9e79-4f2a-b864-b7c0e255957d";
name = Fore;
shapes = (
{
closed = 1;
nodes = (
(434,493,l),
(619,71,l),
(624,160,l),
(666,648,l),
(735,648,l),
(665,0,l),
(584,0,l),
(400,417,l),
(220,0,l),
(134,0,l),
(65,648,l),
(134,648,l),
(178,161,l),
(183,70,l),
(364,493,l)
);
}
);
width = 799;
}
);
unicode = 87;
},
{
category = Letter;
glyphname = X;
kernLeft = X.2;
kernRight = X;
layers = (
{
layerId = "47a458af-9e79-4f2a-b864-b7c0e255957d";
name = Fore;
shapes = (
{
closed = 1;
nodes = (
(116,648,l),
(286,381,l),
(455,648,l),
(531,648,l),
(331,338,l),
(550,0,l),
(478,0,l),
(286,296,l),
(94,0,l),
(22,0,l),
(241,338,l),
(41,648,l)
);
}
);
width = 572;
}
);
unicode = 88;
},
{
category = Letter;
glyphname = Y;
kernLeft = Y.2;
kernRight = Y;
layers = (
{
layerId = "47a458af-9e79-4f2a-b864-b7c0e255957d";
name = Fore;
shapes = (
{
closed = 1;
nodes = (
(236,265,l),
(30,648,l),
(104,648,l),
(269,324,l),
(437,648,l),
(508,648,l),
(303,265,l),
(302,0,l),
(236,0,l)
);
}
);
width = 538;
}
);
unicode = 89;
},
{
category = Letter;
glyphname = Z;
kernLeft = Z.2;
kernRight = Z;
layers = (
{
layerId = "47a458af-9e79-4f2a-b864-b7c0e255957d";
name = Fore;
shapes = (
{
closed = 1;
nodes = (
(47,648,l),
(476,648,l),
(476,592,l),
(118,56,l),
(476,58,l),
(457,0,l),
(47,0,l),
(47,56,l),
(403,592,l),
(47,592,l)
);
}
);
width = 522;
}
);
unicode = 90;
},
{
category = Letter;
glyphname = bracketleft;
layers = (
{
layerId = "47a458af-9e79-4f2a-b864-b7c0e255957d";
name = Fore;
shapes = (
{
closed = 1;
nodes = (
(86,594,l),
(86,604,o),
(89,612.5,q),
(92,621,o),
(92.5,627.5,q),
(93,634,o),
(99,641.5,q),
(105,649,o),
(106.5,652.5,q),
(108,656,o),
(117.5,664.5,q),
(127,673,o),
(130.5,676,q),
(134,679,o),
(148,690.5,q),
(162,702,o),
(168,707,q),
(194,684,l),
(167,650,o),
(153,619,q),
(150,543,l),
(152,407,o),
(152,271,q),
(152,135,o),
(150,-1,q),
(153,-77,l),
(167,-106,o),
(194,-143,q),
(168,-166,l),
(161,-160,o),
(147.5,-149,q),
(134,-138,o),
(130.5,-134.5,q),
(127,-131,o),
(117.5,-122.5,q),
(108,-114,o),
(106.5,-110.5,q),
(105,-107,o),
(99,-99.5,q),
(93,-92,o),
(92.5,-86,q),
(92,-80,o),
(89,-71,q),
(86,-62,o),
(86,-52,q),
(85,0,l),
(84,409,l),
(84,523,o),
(85,541,q)
);
}
);
width = 251;
}
);
unicode = 91;
},
{
category = Letter;
glyphname = backslash;
kernLeft = backslash.2;
kernRight = backslash;
layers = (
{
layerId = "47a458af-9e79-4f2a-b864-b7c0e255957d";
name = Fore;
shapes = (
{
closed = 1;
nodes = (
(354,-31,l),
(299,-50,l),
(23,732,l),
(77,751,l)
);
}
);
width = 378;
}
);
unicode = 92;
},
{
category = Letter;
glyphname = bracketright;
layers = (
{
layerId = "47a458af-9e79-4f2a-b864-b7c0e255957d";
name = Fore;
shapes = (
{
closed = 1;
nodes = (
(166,-52,l),
(166,-62,o),
(163,-71,q),
(160,-80,o),
(159.5,-86,q),
(159,-92,o),
(153,-99.5,q),
(147,-107,o),
(145.5,-110.5,q),
(144,-114,o),
(134.5,-122.5,q),
(125,-131,o),
(121.5,-134.5,q),
(118,-138,o),
(104.5,-149,q),
(91,-160,o),
(84,-166,q),
(58,-143,l),
(85,-106,o),
(99,-77,q),
(102,-1,l),
(100,135,o),
(100,271,q),
(100,407,o),
(102,543,q),
(99,619,l),
(85,650,o),
(58,684,q),
(84,707,l),
(90,702,o),
(104,690.5,q),
(118,679,o),
(121.5,676,q),
(125,673,o),
(134.5,664.5,q),
(144,656,o),
(145.5,652.5,q),
(147,649,o),
(153,641.5,q),
(159,634,o),
(159.5,627.5,q),
(160,621,o),
(163,612.5,q),
(166,604,o),
(166,594,q),
(167,541,l),
(167,0,l)
);
}
);
width = 251;
}
);
unicode = 93;
},
{
category = Letter;
glyphname = asciicircum;
layers = (
{
layerId = "47a458af-9e79-4f2a-b864-b7c0e255957d";
name = Fore;
shapes = (
{
closed = 1;
nodes = (
(242,572,o),
(240,570,q),
(238,568,o),
(236.5,564.5,q),
(235,561,o),
(234,559,q),
(111,305,l),
(48,305,l),
(216,644,l),
(276,644,l),
(445,305,l),
(382,305,l),
(270,526,o),
(257,559,q),
(249,571,o),
(246,572,q),
(243,572,l)
);
}
);
width = 493;
}
);
unicode = 94;
},
{
category = Letter;
glyphname = underscore;
layers = (
{
layerId = "47a458af-9e79-4f2a-b864-b7c0e255957d";
name = Fore;
shapes = (
{
closed = 1;
nodes = (
(69,59,l),
(498,59,l),
(498,0,l),
(69,0,l)
);
}
);
width = 567;
}
);
unicode = 95;
},
{
category = Letter;
glyphname = grave;
layers = (
{
layerId = "47a458af-9e79-4f2a-b864-b7c0e255957d";
name = Fore;
shapes = (
{
closed = 1;
nodes = (
(136,716,l),
(174,674,o),
(199,655,q),
(234,628,o),
(260,611,q),
(280,597,l),
(275,590,o),
(266,582,q),
(257,574,o),
(252,568,q),
(184,596,l),
(130,633,o),
(88,671,q)
);
}
);
width = 352;
}
);
unicode = 96;
},
{
category = Letter;
glyphname = a;
kernLeft = a.2;
kernRight = a;
layers = (
{
layerId = "47a458af-9e79-4f2a-b864-b7c0e255957d";
name = Fore;
shapes = (
{
closed = 1;
nodes = (
(407,180,l),
(407,152,o),
(408,128,q),
(430,6,l),
(431,1,l),
(387,1,l),
(383,4,l),
(359,62,l),
(266,-2,o),
(176,-5,q),
(113,-5,o),
(79.5,28.5,q),
(46,62,o),
(46,123,q),
(46,207,o),
(93,237,q),
(140,267,o),
(222,267,q),
(232,267,o),
(343,261,q),
(343,326,l),
(343,392,o),
(318.5,417.5,q),
(294,443,o),
(250,443,q),
(206,443,o),
(80,416,q),
(71,464,l),
(195,501,o),
(249,501,q),
(331,501,o),
(379,450,q),
(408,419,o),
(408,299,q)
);
},
{
closed = 1;
nodes = (
(238,215,l),
(158,215,o),
(134,199,q),
(110,183,o),
(110,135.5,q),
(110,88,o),
(126,70.5,q),
(142,53,o),
(181.5,53,q),
(221,53,o),
(274.5,69,q),
(328,85,o),
(343,106,q),
(343,211,l)
);
}
);
width = 486;
}
);
unicode = 97;
},
{
category = Letter;
glyphname = b;
kernRight = b;
layers = (
{
layerId = "47a458af-9e79-4f2a-b864-b7c0e255957d";
name = Fore;
shapes = (
{
closed = 1;
nodes = (
(137,736,l),
(137,447,l),
(197,500,o),
(260.5,500,q),
(324,500,o),
(362.5,481.5,q),
(401,463,o),
(420,426,q),
(454,361,o),
(454,252,q),
(454,183,o),
(437,131,q),
(420,79,o),
(396.5,53,q),
(373,27,o),
(343,11,q),
(300,-12,o),
(258,-12,q),
(232,-12,o),
(215,-8.5,q),
(198,-5,o),
(189,-3.5,q),
(180,-2,o),
(167.5,2.5,q),
(155,7,o),
(148.5,9,q),
(142,11,o),
(128.5,17,q),
(115,23,o),
(111,25,q),
(81,40,o),
(75,42,q),
(75,736,l)
);
},
{
closed = 1;
nodes = (
(193,47,o),
(243,47,q),
(293,47,o),
(319,59.5,q),
(345,72,o),
(358,88,q),
(371,104,o),
(378,134,q),
(386,174,o),
(386,238,q),
(386,357,o),
(366,399,q),
(346,441,o),
(266,441,q),
(186,441,o),
(137,385,q),
(137,67,l)
);
}
);
width = 509;
}
);
unicode = 98;
},
{
category = Letter;
glyphname = c;
kernLeft = c.2;
kernRight = c;
layers = (
{
layerId = "47a458af-9e79-4f2a-b864-b7c0e255957d";
name = Fore;
shapes = (
{
closed = 1;
nodes = (
(247,501,o),
(292.5,501,q),
(338,501,o),
(393,482,q),
(385,438,l),
(330,449,o),
(297,449,q),
(211,449,o),
(166,404.5,q),
(121,360,o),
(121,245,q),
(121,43,o),
(285,43,q),
(336,43,o),
(394,79,q),
(421,37,l),
(356,-10,o),
(269,-10,q),
(224,-10,o),
(190.5,-1,q),
(157,8,o),
(124,33,q),
(54,85,o),
(54,245,q),
(54,320,o),
(77,373.5,q),
(100,427,o),
(137.5,453,q),
(175,479,o),
(211,490,q)
);
}
);
width = 451;
}
);
unicode = 99;
},
{
category = Letter;
glyphname = d;
kernLeft = d.2;
kernRight = d;
layers = (
{
layerId = "47a458af-9e79-4f2a-b864-b7c0e255957d";
name = Fore;
shapes = (
{
closed = 1;
nodes = (
(285,-10,o),
(235,-10,q),
(185,-10,o),
(146.5,8.5,q),
(108,27,o),
(89,64,q),
(55,129,o),
(55,238,q),
(55,307,o),
(72,358.5,q),
(89,410,o),
(112.5,436.5,q),
(136,463,o),
(166,479,q),
(209,502,o),
(251,502,q),
(293,502,o),
(372,466,q),
(372,736,l),
(434,736,l),
(434,127,l),
(458,0,l),
(417,0,l),
(413,3,l),
(389,61,l),
(363,33,o),
(324,11.5,q)
);
},
{
closed = 1;
nodes = (
(123,133,o),
(143,91,q),
(163,49,o),
(242.5,49,q),
(322,49,o),
(372,105,q),
(372,423,l),
(322,443,o),
(248,443,q),
(174,443,o),
(148.5,396,q),
(123,349,o),
(123,241,q)
);
}
);
width = 516;
}
);
unicode = 100;
},
{
category = Letter;
glyphname = e;
kernLeft = c.2;
kernRight = e;
layers = (
{
layerId = "47a458af-9e79-4f2a-b864-b7c0e255957d";
name = Fore;
shapes = (
{
closed = 1;
nodes = (
(440,285,o),
(434,246,q),
(120,246,l),
(124,136,o),
(157,94.5,q),
(190,53,o),
(274,53,q),
(337,53,o),
(421,80,q),
(427,30,l),
(404,21,o),
(391.5,17.5,q),
(379,14,o),
(365,9.5,q),
(351,5,o),
(344,3,q),
(337,1,o),
(324,-2,q),
(311,-5,o),
(302,-6,q),
(275,-9,o),
(256,-9,q),
(162,-9,o),
(108,57,q),
(54,123,o),
(54,241,q),
(54,306,o),
(70,355.5,q),
(86,405,o),
(108,431.5,q),
(130,458,o),
(161,474,q),
(207,499,o),
(261,501,q),
(440,500,o),
(440,321,q)
);
},
{
closed = 1;
nodes = (
(377,397,o),
(347,421,q),
(317,445,o),
(258,445,q),
(199,445,o),
(161,413.5,q),
(123,382,o),
(122,297,q),
(374,297,l),
(377,320,o),
(377,337,q)
);
}
);
width = 492;
}
);
unicode = 101;
},
{
category = Letter;
glyphname = f;
kernLeft = f.2;
kernRight = f;
layers = (
{
layerId = "47a458af-9e79-4f2a-b864-b7c0e255957d";
name = Fore;
shapes = (
{
closed = 1;
nodes = (
(153,492,o),
(195.5,492,q),
(238,492,o),
(256,492.5,q),
(274,493,o),
(279,493,q),
(270,444,l),
(161,444,l),
(153,444,o),
(153,440,q),
(153,-74,l),
(118,-198,l),
(115,-201,l),
(69,-201,l),
(91,-74,l),
(91,438,l),
(91,443,o),
(78,443,q),
(44,443,l),
(45,472,l),
(86,491,o),
(91,493,q),
(91,494,l),
(90,572,l),
(90,624,o),
(111,659.5,q),
(132,695,o),
(162,710,q),
(219,736,o),
(269,736,q),
(272,736,o),
(275,736,q),
(296,735,l),
(285,686,l),
(284,684,o),
(275.5,685.5,q),
(267,687,o),
(259.5,687,q),
(252,687,o),
(235,681.5,q),
(218,676,o),
(199,667,q),
(180,658,o),
(166.5,633,q),
(153,608,o),
(153,572,q),
(153,500,l)
);
}
);
width = 297;
}
);
unicode = 102;
},
{
category = Letter;
glyphname = g;
kernLeft = g.2;
kernRight = g;
layers = (
{
layerId = "47a458af-9e79-4f2a-b864-b7c0e255957d";
name = Fore;
shapes = (
{
closed = 1;
nodes = (
(407,264,o),
(361.5,218.5,q),
(316,173,o),
(238,173,q),
(214,173,o),
(175,180,q),
(119,102,l),
(370,103,l),
(420,103,o),
(447,65.5,q),
(474,28,o),
(474,-31,q),
(474,-114,o),
(408.5,-158,q),
(343,-202,o),
(243,-202,q),
(143,-202,o),
(95.5,-167.5,q),
(48,-133,o),
(48,-58,q),
(143,40,l),
(88,40,o),
(70.5,55,q),
(53,70,o),
(53,102,q),
(94,148,o),
(131,197,q),
(94,225,o),
(82,258.5,q),
(70,292,o),
(70,344,q),
(70,421,o),
(118,465,q),
(166,509,o),
(244,509,q),
(296,509,o),
(338,487,q),
(449,486,l),
(436,434,l),
(379,433,l),
(407,387,o),
(407,342,q)
);
},
{
closed = 1;
nodes = (
(322,-148,o),
(343.5,-141.5,q),
(365,-135,o),
(378,-124,q),
(409,-99,o),
(408.5,-42.5,q),
(408,14,o),
(395.5,27.5,q),
(383,41,o),
(331,41,q),
(196,41,l),
(114,-68,l),
(114,-123,o),
(157,-139,q),
(190,-151,o),
(237,-151,q),
(284,-151,o),
(303,-149.5,q)
);
},
{
closed = 1;
nodes = (
(348,223,o),
(348,339,q),
(348,405,o),
(321.5,431.5,q),
(295,458,o),
(240,458,q),
(185,458,o),
(158,430.5,q),
(131,403,o),
(130,338,q),
(130,223,o),
(238,223,q)
);
}
);
width = 501;
}
);
unicode = 103;
},
{
category = Letter;
glyphname = h;
kernLeft = h.2;
kernRight = h;
layers = (
{
layerId = "47a458af-9e79-4f2a-b864-b7c0e255957d";
name = Fore;
shapes = (
{
closed = 1;
nodes = (
(78,0,l),
(78,736,l),
(142,736,l),
(142,445,l),
(187,475,o),
(221.5,489,q),
(256,503,o),
(300,503,q),
(445,503,o),
(445,352,q),
(445,0,l),
(380,0,l),
(380,352,l),
(379,443,o),
(276,443,q),
(232,443,o),
(190,423.5,q),
(148,404,o),
(142,387,q),
(142,0,l)
);
}
);
width = 520;
}
);
unicode = 104;
},
{
category = Letter;
glyphname = i;
kernLeft = i.2;
kernRight = i;
layers = (
{
layerId = "47a458af-9e79-4f2a-b864-b7c0e255957d";
name = Fore;
shapes = (
{
closed = 1;
nodes = (
(140,492,l),
(140,0,l),
(78,0,l),
(78,492,l)
);
},
{
closed = 1;
nodes = (
(144,657,l),
(144,585,l),
(74,585,l),
(74,657,l)
);
}
);
width = 218;
}
);
unicode = 105;
},
{
category = Letter;
glyphname = j;
kernLeft = i.2;
kernRight = i;
layers = (
{
layerId = "47a458af-9e79-4f2a-b864-b7c0e255957d";
name = Fore;
shapes = (
{
closed = 1;
nodes = (
(144,657,l),
(144,585,l),
(74,585,l),
(74,657,l)
);
},
{
closed = 1;
nodes = (
(139,492,l),
(139,-39,l),
(139,-123,o),
(86.5,-158,q),
(34,-193,o),
(-64,-202,q),
(-56,-156,l),
(36,-136,o),
(60,-106,q),
(72,-90,o),
(75,-76.5,q),
(78,-63,o),
(78,-39,q),
(78,492,l)
);
}
);
width = 217;
}
);
unicode = 106;
},
{
category = Letter;
glyphname = k;
kernLeft = h.2;
kernRight = k;
layers = (
{
layerId = "47a458af-9e79-4f2a-b864-b7c0e255957d";
name = Fore;
shapes = (
{
closed = 1;
nodes = (
(78,0,l),
(78,736,l),
(140,736,l),
(140,292,l),
(314,492,l),
(389,492,l),
(218,296,l),
(477,0,l),
(397,0,l),
(178,251,l),
(140,207,l),
(140,0,l)
);
}
);
width = 485;
}
);
unicode = 107;
},
{
category = Letter;
glyphname = l;
kernLeft = l.2;
kernRight = l;
layers = (
{
layerId = "47a458af-9e79-4f2a-b864-b7c0e255957d";
name = Fore;
shapes = (
{
closed = 1;
nodes = (
(136,736,l),
(136,119,l),
(161,-9,l),
(115,-9,l),
(111,-5,l),
(74,119,l),
(74,736,l)
);
}
);
width = 218;
}
);
unicode = 108;
},
{
category = Letter;
glyphname = m;
kernLeft = m;
kernRight = h;
layers = (
{
layerId = "47a458af-9e79-4f2a-b864-b7c0e255957d";
name = Fore;
shapes = (
{
closed = 1;
nodes = (
(364,0,l),
(364,352,l),
(362,404,o),
(344.5,423.5,q),
(327,443,o),
(280,443,q),
(233,443,o),
(192.5,423.5,q),
(152,404,o),
(145,387,q),
(145,0,l),
(81,0,l),
(81,365,l),
(64,487,l),
(111,487,l),
(114,484,l),
(129,434,l),
(167,459,o),
(185.5,470,q),
(204,481,o),
(237,492,q),
(270,503,o),
(304,503,q),
(388,503,o),
(416,436,q),
(452,460,o),
(472,471,q),
(528,503,o),
(588,503,q),
(648,503,o),
(680.5,469,q),
(713,435,o),
(714,352,q),
(714,0,l),
(649,0,l),
(649,352,l),
(647,404,o),
(629.5,423.5,q),
(612,443,o),
(564.5,443,q),
(517,443,o),
(477,423.5,q),
(437,404,o),
(429,387,q),
(429,0,l)
);
}
);
width = 789;
}
);
unicode = 109;
},
{
category = Letter;
glyphname = n;
kernLeft = m;
kernRight = h;
layers = (
{
layerId = "47a458af-9e79-4f2a-b864-b7c0e255957d";
name = Fore;
shapes = (
{
closed = 1;
nodes = (
(384,0,l),
(384,352,l),
(383,401,o),
(356.5,422,q),
(330,443,o),
(281.5,443,q),
(233,443,o),
(192.5,424,q),
(152,405,o),
(145,388,q),
(145,0,l),
(81,0,l),
(81,365,l),
(64,487,l),
(107,487,l),
(110,485,l),
(129,434,l),
(164,458,o),
(186,470,q),
(241,503,o),
(306,503,q),
(446,503,o),
(449,352,q),
(449,0,l)
);
}
);
width = 524;
}
);
unicode = 110;
},
{
category = Letter;
glyphname = o;
kernLeft = o.2;
kernRight = o;
layers = (
{
layerId = "47a458af-9e79-4f2a-b864-b7c0e255957d";
name = Fore;
shapes = (
{
closed = 1;
nodes = (
(291,444,o),
(253,444,q),
(215,444,o),
(186.5,431.5,q),
(158,419,o),
(144.5,389.5,q),
(131,360,o),
(127,329.5,q),
(123,299,o),
(123,246,q),
(123,133,o),
(148.5,90,q),
(174,47,o),
(261,47,q),
(308,47,o),
(337,59,q),
(366,71,o),
(380,99.5,q),
(394,128,o),
(398,159.5,q),
(402,191,o),
(402,234.5,q),
(402,278,o),
(401.5,296.5,q),
(401,315,o),
(398,339.5,q),
(395,364,o),
(389.5,377,q),
(384,390,o),
(374,405,q),
(364,420,o),
(349,427,q),
(334,434,o),
(312.5,439,q)
);
},
{
closed = 1;
nodes = (
(428,459,o),
(449,404,q),
(470,349,o),
(470,262,q),
(470,175,o),
(451.5,123,q),
(433,71,o),
(402,43,q),
(342,-11,o),
(262,-11,q),
(145,-11,o),
(100,44,q),
(55,99,o),
(55,245,q),
(55,315,o),
(74,367,q),
(93,419,o),
(125,446,q),
(187,500,o),
(264.5,500,q),
(342,500,o),
(385,479.5,q)
);
}
);
width = 526;
}
);
unicode = 111;
},
{
category = Letter;
glyphname = p;
kernLeft = m;
kernRight = b;
layers = (
{
layerId = "47a458af-9e79-4f2a-b864-b7c0e255957d";
name = Fore;
shapes = (
{
closed = 1;
nodes = (
(386,501,o),
(425,428,q),
(444,392,o),
(451,351.5,q),
(458,311,o),
(458,247.5,q),
(458,184,o),
(441,132.5,q),
(424,81,o),
(401,55,q),
(378,29,o),
(348,13,q),
(305,-10,o),
(265.5,-10,q),
(226,-10,o),
(143,25,q),
(143,-201,l),
(81,-201,l),
(81,365,l),
(64,486,l),
(105,486,l),
(108,483,l),
(126,432,l),
(191,501,o),
(270,501,q)
);
},
{
closed = 1;
nodes = (
(197,49,o),
(248.5,49,q),
(300,49,o),
(325.5,61.5,q),
(351,74,o),
(363.5,89.5,q),
(376,105,o),
(382.5,136,q),
(389,167,o),
(389.5,185,q),
(390,203,o),
(390,246.5,q),
(390,290,o),
(388.5,316.5,q),
(387,343,o),
(381.5,371.5,q),
(376,400,o),
(364,412,q),
(334,442,o),
(275,442,q),
(191,442,o),
(143,387,q),
(143,68,l)
);
}
);
width = 513;
}
);
unicode = 112;
},
{
category = Letter;
glyphname = q;
kernLeft = d.2;
kernRight = q;
layers = (
{
layerId = "47a458af-9e79-4f2a-b864-b7c0e255957d";
name = Fore;
shapes = (
{
closed = 1;
nodes = (
(370,-201,l),
(370,42,l),
(311,-10,o),
(247,-10,q),
(183,-10,o),
(145,8.5,q),
(107,27,o),
(88,64,q),
(55,127,o),
(55,238,q),
(55,307,o),
(72,358.5,q),
(89,410,o),
(112,436.5,q),
(135,463,o),
(165,478,q),
(209,501,o),
(249,501,q),
(330,501,o),
(432,448,q),
(432,-201,l)
);
},
{
closed = 1;
nodes = (
(311,442,o),
(265.5,442,q),
(220,442,o),
(196.5,434.5,q),
(173,427,o),
(159,411,q),
(145,395,o),
(136.5,380,q),
(128,365,o),
(125,339,q),
(120,296,o),
(120,249.5,q),
(120,203,o),
(121.5,175,q),
(123,147,o),
(129.5,119.5,q),
(136,92,o),
(149,78,q),
(177,49,o),
(238,49,q),
(321,49,o),
(370,105,q),
(370,423,l)
);
}
);
width = 508;
}
);
unicode = 113;
},
{
category = Letter;
glyphname = r;
kernLeft = m;
kernRight = r;
layers = (
{
layerId = "47a458af-9e79-4f2a-b864-b7c0e255957d";
name = Fore;
shapes = (
{
closed = 1;
nodes = (
(303,500,o),
(327,494,q),
(303,435,l),
(287,438,o),
(271,438,q),
(208,438,o),
(143,368,q),
(143,0,l),
(81,0,l),
(81,364,l),
(64,486,l),
(102,486,l),
(105,484,l),
(124,413,l),
(168,456,o),
(204,478,q),
(240,500,o),
(283,500,q)
);
}
);
width = 341;
}
);
unicode = 114;
},
{
category = Letter;
glyphname = s;
kernLeft = s.2;
kernRight = s;
layers = (
{
layerId = "47a458af-9e79-4f2a-b864-b7c0e255957d";
name = Fore;
shapes = (
{
closed = 1;
nodes = (
(121,44,o),
(175,44,q),
(229,44,o),
(267.5,66.5,q),
(306,89,o),
(306,126,q),
(306,163,o),
(280,185.5,q),
(254,208,o),
(217,222,q),
(180,236,o),
(143.5,251.5,q),
(107,267,o),
(81,295.5,q),
(55,324,o),
(55,366,q),
(55,432,o),
(101,467.5,q),
(147,503,o),
(216.5,503,q),
(286,503,o),
(350,480,q),
(337,434,l),
(287,451,o),
(224,451,q),
(120,451,o),
(120,370,q),
(120,318,o),
(210,284,q),
(248,270,o),
(285.5,253.5,q),
(323,237,o),
(349.5,206,q),
(376,175,o),
(376,131,q),
(376,64,o),
(318,28,q),
(260,-8,o),
(184,-8,q),
(108,-8,o),
(44,19,q),
(59,68,l)
);
}
);
width = 418;
}
);
unicode = 115;
},
{
category = Letter;
glyphname = t;
kernLeft = t.2;
kernRight = t;
layers = (
{
layerId = "47a458af-9e79-4f2a-b864-b7c0e255957d";
name = Fore;
shapes = (
{
closed = 1;
nodes = (
(88,445,o),
(83,445,q),
(43,445,l),
(43,474,l),
(89,493,l),
(100,581,l),
(151,581,l),
(151,501,l),
(154,494,o),
(192,494,q),
(251,494,l),
(243,447,l),
(159,446,l),
(150,446,o),
(150,442,q),
(150,126,l),
(176,-4,l),
(132,-4,l),
(128,-1,l),
(88,126,l),
(88,440,l)
);
}
);
width = 275;
}
);
unicode = 116;
},
{
category = Letter;
glyphname = u;
kernLeft = u.2;
kernRight = u;
layers = (
{
layerId = "47a458af-9e79-4f2a-b864-b7c0e255957d";
name = Fore;
shapes = (
{
closed = 1;
nodes = (
(140,492,l),
(140,141,l),
(141,91,o),
(167.5,71,q),
(194,51,o),
(244.5,51,q),
(295,51,o),
(333.5,70,q),
(372,89,o),
(379,106,q),
(379,492,l),
(443,492,l),
(443,129,l),
(461,0,l),
(419,0,l),
(416,3,l),
(395,59,l),
(356,33,o),
(339,22.5,q),
(322,12,o),
(289.5,1.5,q),
(257,-9,o),
(221,-9,q),
(78,-9,o),
(75,142,q),
(75,492,l)
);
}
);
width = 524;
}
);
unicode = 117;
},
{
category = Letter;
glyphname = v;
kernLeft = v.2;
kernRight = v;
layers = (
{
layerId = "47a458af-9e79-4f2a-b864-b7c0e255957d";
name = Fore;
shapes = (
{
closed = 1;
nodes = (
(96,492,l),
(230,114,l),
(247,61,l),
(250,61,l),
(265,114,l),
(400,492,l),
(469,492,l),
(287,5,l),
(283,0,l),
(214,0,l),
(210,5,l),
(27,492,l)
);
}
);
width = 497;
}
);
unicode = 118;
},
{
category = Letter;
glyphname = w;
kernLeft = w.2;
kernRight = w;
layers = (
{
layerId = "47a458af-9e79-4f2a-b864-b7c0e255957d";
name = Fore;
shapes = (
{
closed = 1;
nodes = (
(412,492,l),
(523,104,l),
(530,65,l),
(532,65,l),
(539,104,l),
(652,492,l),
(722,492,l),
(566,0,l),
(497,0,l),
(387,374,l),
(378,422,l),
(375,422,l),
(366,374,l),
(255,0,l),
(186,0,l),
(32,492,l),
(102,492,l),
(213,104,l),
(219,65,l),
(222,65,l),
(228,104,l),
(341,492,l)
);
}
);
width = 753;
}
);
unicode = 119;
},
{
category = Letter;
glyphname = x;
kernLeft = x.2;
kernRight = x;
layers = (
{
layerId = "47a458af-9e79-4f2a-b864-b7c0e255957d";
name = Fore;
shapes = (
{
closed = 1;
nodes = (
(112,492,l),
(230,304,l),
(348,492,l),
(422,492,l),
(264,257,l),
(437,0,l),
(365,0,l),
(230,211,l),
(95,0,l),
(24,0,l),
(196,257,l),
(38,492,l)
);
}
);
width = 461;
}
);
unicode = 120;
},
{
category = Letter;
glyphname = y;
kernLeft = y.2;
kernRight = y;
layers = (
{
layerId = "47a458af-9e79-4f2a-b864-b7c0e255957d";
name = Fore;
shapes = (
{
closed = 1;
nodes = (
(55,-154,o),
(80,-154,q),
(159,-152,o),
(186,-81,q),
(216,-1,l),
(25,492,l),
(97,492,l),
(249,70,l),
(398,492,l),
(468,492,l),
(248,-101,l),
(207,-202,o),
(98,-202,q),
(52,-202,o),
(-4,-184,q),
(19,-144,l)
);
}
);
width = 497;
}
);
unicode = 121;
},
{
category = Letter;
glyphname = z;
kernLeft = z.2;
kernRight = z;
layers = (
{
layerId = "47a458af-9e79-4f2a-b864-b7c0e255957d";
name = Fore;
shapes = (
{
closed = 1;
nodes = (
(407,438,l),
(125,71,l),
(110,56,l),
(424,56,l),
(405,0,l),
(37,0,l),
(37,55,l),
(322,422,l),
(337,437,l),
(58,437,l),
(58,492,l),
(407,492,l)
);
}
);
width = 461;
}
);
unicode = 122;
},
{
category = Letter;
glyphname = braceleft;
kernRight = braceleft;
layers = (
{
layerId = "47a458af-9e79-4f2a-b864-b7c0e255957d";
name = Fore;
shapes = (
{
closed = 1;
nodes = (
(171,371,l),
(171,348,o),
(162,335,q),
(153,322,o),
(147.5,315,q),
(142,308,o),
(134,302,q),
(126,296,o),
(121,292,q),
(106,280,o),
(103,280,q),
(100,278,o),
(100,271,q),
(100,264,o),
(103,262,q),
(142,238,o),
(152,223,q),
(171,196,o),
(171,171,q),
(171,43,o),
(170,-21,q),
(173,-97,l),
(187,-126,o),
(214,-163,q),
(188,-186,l),
(181,-180,o),
(167.5,-169,q),
(154,-158,o),
(150.5,-154.5,q),
(147,-151,o),
(137.5,-142.5,q),
(128,-134,o),
(126.5,-130.5,q),
(125,-127,o),
(119,-119.5,q),
(113,-112,o),
(112.5,-106,q),
(112,-100,o),
(109,-91,q),
(106,-82,o),
(106,-72,q),
(105,-20,l),
(105,184,l),
(105,188,o),
(82.5,213.5,q),
(60,239,o),
(44,254,q),
(42,261,o),
(42,273,q),
(42,285,o),
(43,288,q),
(105,350,o),
(105,358,q),
(105,561,l),
(106,614,l),
(106,624,o),
(109,632.5,q),
(112,641,o),
(112.5,647.5,q),
(113,654,o),
(119,661.5,q),
(125,669,o),
(126.5,672.5,q),
(128,676,o),
(137.5,684.5,q),
(147,693,o),
(150.5,696,q),
(154,699,o),
(168,710.5,q),
(182,722,o),
(188,727,q),
(214,704,l),
(187,670,o),
(173,639,q),
(170,563,l)
);
}
);
width = 266;
}
);
unicode = 123;
},
{
category = Letter;
glyphname = bar;
layers = (
{
layerId = "47a458af-9e79-4f2a-b864-b7c0e255957d";
name = Fore;
shapes = (
{
closed = 1;
nodes = (
(155,682,l),
(154,-44,l),
(91,-44,l),
(91,682,l)
);
}
);
width = 246;
}
);
unicode = 124;
},
{
category = Letter;
glyphname = braceright;
layers = (
{
layerId = "47a458af-9e79-4f2a-b864-b7c0e255957d";
name = Fore;
shapes = (
{
closed = 1;
nodes = (
(160,-72,l),
(160,-82,o),
(157,-91,q),
(154,-100,o),
(153.5,-106,q),
(153,-112,o),
(147,-119.5,q),
(141,-127,o),
(139.5,-130.5,q),
(138,-134,o),
(128.5,-142.5,q),
(119,-151,o),
(115.5,-154.5,q),
(112,-158,o),
(98.5,-169,q),
(85,-180,o),
(78,-186,q),
(52,-163,l),
(79,-126,o),
(93,-97,q),
(96,-21,l),
(95,43,o),
(95,171,q),
(95,220,o),
(155,257,q),
(163,262,l),
(166,264,o),
(166,271,q),
(166,278,o),
(163,280,q),
(160,280,o),
(150,288,q),
(140,296,o),
(132,302,q),
(124,308,o),
(118.5,315,q),
(113,322,o),
(107,330,q),
(95,348,o),
(95,371,q),
(96,563,l),
(93,639,l),
(79,670,o),
(52,704,q),
(78,727,l),
(84,722,o),
(98,710.5,q),
(112,699,o),
(115.5,696,q),
(119,693,o),
(128.5,684.5,q),
(138,676,o),
(139.5,672.5,q),
(141,669,o),
(147,661.5,q),
(153,654,o),
(153.5,647.5,q),
(154,641,o),
(157,632.5,q),
(160,624,o),
(160,614,q),
(161,561,l),
(161,358,l),
(161,350,o),
(223,288,q),
(224,285,o),
(224,280,q),
(224,261,o),
(222,254,q),
(206,239,o),
(183.5,213.5,q),
(161,188,o),
(161,184,q),
(161,-20,l)
);
}
);
width = 266;
}
);
unicode = 125;
},
{
category = Letter;
glyphname = asciitilde;
layers = (
{
layerId = "47a458af-9e79-4f2a-b864-b7c0e255957d";
name = Fore;
shapes = (
{
closed = 1;
nodes = (
(363,231,o),
(353.5,229,q),
(344,227,o),
(335,227,q),
(326,227,o),
(310,230,q),
(165,253,l),
(90,221,l),
(72,249,l),
(114,290,l),
(135,307,o),
(143.5,310,q),
(152,313,o),
(161,313,q),
(170,313,o),
(182,311,q),
(337,285,l),
(411,320,l),
(429,285,l),
(382,246,l)
);
}
);
width = 500;
}
);
unicode = 126;
},
{
category = Letter;
glyphname = exclamdown;
kernRight = exclamdown;
layers = (
{
layerId = "47a458af-9e79-4f2a-b864-b7c0e255957d";
name = Fore;
shapes = (
{
closed = 1;
nodes = (
(141,355,l),
(151,121,l),
(156,-170,l),
(81,-170,l),
(86,121,l),
(96,355,l)
);
},
{
closed = 1;
nodes = (
(154,500,l),
(154,426,l),
(82,426,l),
(82,500,l)
);
}
);
width = 237;
}
);
unicode = 161;
},
{
category = Letter;
glyphname = cent;
layers = (
{
layerId = "47a458af-9e79-4f2a-b864-b7c0e255957d";
name = Fore;
shapes = (
{
closed = 1;
nodes = (
(238,80,l),
(162,86,o),
(112,134,q),
(56,188,o),
(56,334,q),
(56,461,o),
(116,521,q),
(169,574,o),
(238,586,q),
(238,684,l),
(292,684,l),
(292,590,l),
(340,589,o),
(393,571,q),
(385,527,l),
(330,538,o),
(297,538,q),
(211,538,o),
(166,493.5,q),
(121,449,o),
(121,334,q),
(121,132,o),
(285,132,q),
(336,132,o),
(394,168,q),
(421,126,l),
(363,84,o),
(292,79,q),
(292,-15,l),
(238,-15,l)
);
}
);
width = 466;
}
);
unicode = 162;
},
{
category = Letter;
glyphname = sterling;
layers = (
{
layerId = "47a458af-9e79-4f2a-b864-b7c0e255957d";
name = Fore;
shapes = (
{
closed = 1;
nodes = (
(52,324,l),
(128,324,l),
(125,337,o),
(119,361.5,q),
(113,386,o),
(110,400,q),
(101,440,o),
(101,459,q),
(101,555,o),
(151.5,602,q),
(202,649,o),
(283.5,649,q),
(365,649,o),
(442,618,q),
(423,567,l),
(363,594,o),
(291,594,q),
(219,594,o),
(194,567,q),
(169,540,o),
(169,465,q),
(169,430,o),
(174,407,q),
(186,359,l),
(192,334,o),
(194,324,q),
(320,324,l),
(320,274,l),
(204,274,l),
(207,251,o),
(207,229,q),
(207,138,o),
(154,56,q),
(465,56,l),
(465,0,l),
(77,0,l),
(77,55,l),
(142,112,o),
(142,217,q),
(142,244,o),
(138,274,q),
(52,274,l)
);
}
);
width = 514;
}
);
unicode = 163;
},
{
category = Letter;
glyphname = currency;
layers = (
{
layerId = "47a458af-9e79-4f2a-b864-b7c0e255957d";
name = Fore;
shapes = (
{
closed = 1;
nodes = (
(76,192,o),
(76,317,q),
(76,442,o),
(138,504,q),
(64,593,l),
(112,633,l),
(189,541,l),
(249,570,o),
(339.5,570,q),
(430,570,o),
(490,539,q),
(570,633,l),
(618,593,l),
(542,502,l),
(610,434,o),
(610,306.5,q),
(610,179,o),
(547,117,q),
(618,33,l),
(569,-8,l),
(494,80,l),
(435,52,o),
(344.5,52,q),
(254,52,o),
(191,85,q),
(113,-8,l),
(64,33,l),
(141,124,l)
);
},
{
closed = 1;
nodes = (
(470,108,o),
(512,172,q),
(532,204,o),
(539.5,236,q),
(547,268,o),
(547,309,q),
(547,350,o),
(538,383,q),
(529,416,o),
(508,447,q),
(463,514,o),
(347.5,514,q),
(232,514,o),
(185,464,q),
(138,414,o),
(138,310.5,q),
(138,207,o),
(191.5,157.5,q),
(245,108,o),
(341,108,q)
);
}
);
width = 684;
}
);
unicode = 164;
},
{
category = Letter;
glyphname = yen;
layers = (
{
layerId = "47a458af-9e79-4f2a-b864-b7c0e255957d";
name = Fore;
shapes = (
{
closed = 1;
nodes = (
(93,315,l),
(213,315,l),
(34,648,l),
(108,648,l),
(273,324,l),
(441,648,l),
(512,648,l),
(334,315,l),
(454,315,l),
(454,265,l),
(307,265,l),
(306,183,l),
(454,183,l),
(454,133,l),
(306,133,l),
(306,0,l),
(240,0,l),
(240,133,l),
(93,133,l),
(93,183,l),
(240,183,l),
(240,265,l),
(93,265,l)
);
}
);
width = 546;
}
);
unicode = 165;
},
{
category = Letter;
glyphname = brokenbar;
layers = (
{
layerId = "47a458af-9e79-4f2a-b864-b7c0e255957d";
name = Fore;
shapes = (
{
closed = 1;
nodes = (
(92,242,l),
(153,242,l),
(153,-44,l),
(92,-44,l)
);
},
{
closed = 1;
nodes = (
(92,684,l),
(153,684,l),
(153,394,l),
(92,394,l)
);
}
);
width = 245;
}
);
unicode = 166;
},
{
category = Letter;
glyphname = section;
layers = (
{
layerId = "47a458af-9e79-4f2a-b864-b7c0e255957d";
name = Fore;
shapes = (
{
closed = 1;
nodes = (
(52,394,o),
(139,463,q),
(105,484,o),
(89.5,510,q),
(74,536,o),
(74,577,q),
(74,647,o),
(124,691,q),
(174,735,o),
(257,735,q),
(303,735,o),
(362,719,q),
(381,714,l),
(369,668,l),
(322,684,o),
(276,684,q),
(198,684,o),
(172,657.5,q),
(146,631,o),
(146,585,q),
(146,563,o),
(152.5,547.5,q),
(159,532,o),
(178,519,q),
(201,503,o),
(231,490,q),
(261,477,o),
(262.5,476,q),
(264,475,o),
(267,474,q),
(270,473,o),
(272,472,q),
(365,433,o),
(395,409,q),
(449,364,o),
(448,290,q),
(445,205,o),
(361,138,q),
(396,118,o),
(412,92,q),
(428,66,o),
(428,25,q),
(428,-45,o),
(378,-89,q),
(328,-133,o),
(245,-133,q),
(214,-133,o),
(171,-123,q),
(128,-113,o),
(100,-103,q),
(73,-93,l),
(87,-47,l),
(180,-82,o),
(223.5,-82,q),
(267,-82,o),
(293.5,-74,q),
(320,-66,o),
(332,-50,q),
(351,-26,o),
(351,7,q),
(351,40,o),
(344.5,56,q),
(338,72,o),
(316,86,q),
(286,106,o),
(210.5,137.5,q),
(135,169,o),
(105,193,q),
(52,236,o),
(52,307,q)
);
},
{
closed = 1;
nodes = (
(128,266,o),
(160,240,q),
(186,221,o),
(214,207.5,q),
(242,194,o),
(315,162,q),
(372,206,o),
(372,287,q),
(372,336,o),
(340,362,q),
(314,381,o),
(265,405,q),
(202,432,o),
(184,440,q),
(128,397,o),
(128,315,q)
);
}
);
width = 495;
}
);
unicode = 167;
},
{
category = Letter;
glyphname = dieresis;
layers = (
{
layerId = "47a458af-9e79-4f2a-b864-b7c0e255957d";
name = Fore;
shapes = (
{
closed = 1;
nodes = (
(238,658,l),
(238,584,l),
(166,584,l),
(166,658,l)
);
},
{
closed = 1;
nodes = (
(384,658,l),
(384,584,l),
(312,584,l),
(312,658,l)
);
}
);
width = 550;
}
);
unicode = 168;
},
{
category = Letter;
glyphname = copyright;
kernLeft = copyright;
layers = (
{
layerId = "47a458af-9e79-4f2a-b864-b7c0e255957d";
name = Fore;
shapes = (
{
closed = 1;
nodes = (
(422,494,o),
(480,478,q),
(468,438,l),
(449,440,l),
(411,448,o),
(391,448,q),
(328,448,o),
(298.5,421.5,q),
(269,395,o),
(269,309,q),
(269,223,o),
(296,192.5,q),
(323,162,o),
(371,162,q),
(419,162,o),
(462,188,q),
(480,148,l),
(434,116,o),
(368,116,q),
(336,116,o),
(313,122,q),
(290,128,o),
(266,146,q),
(218,183,o),
(218,305,q),
(218,421,o),
(278,462,q),
(326,494,o),
(389,494,q)
);
},
{
closed = 1;
nodes = (
(696,435,o),
(696,303,q),
(696,171,o),
(605.5,78.5,q),
(515,-14,o),
(381,-14,q),
(247,-14,o),
(153.5,79.5,q),
(60,173,o),
(60,305,q),
(60,437,o),
(150.5,529.5,q),
(241,622,o),
(375,622,q),
(509,622,o),
(602.5,528.5,q)
);
},
{
closed = 1;
nodes = (
(639,184,o),
(639,299.5,q),
(639,415,o),
(563,492.5,q),
(487,570,o),
(371,570,q),
(255,570,o),
(185.5,496.5,q),
(116,423,o),
(116,307,q),
(116,191,o),
(192,113,q),
(268,35,o),
(384,35,q),
(500,35,o),
(569.5,109.5,q)
);
}
);
width = 756;
}
);
unicode = 169;
},
{
category = Letter;
glyphname = ordfeminine;
kernLeft = ordfeminine;
layers = (
{
layerId = "47a458af-9e79-4f2a-b864-b7c0e255957d";
name = Fore;
shapes = (
{
closed = 1;
nodes = (
(201,587,l),
(227,587,l),
(227,615,l),
(227,647,o),
(215,659,q),
(203,671,o),
(181.5,671,q),
(160,671,o),
(114,663,q),
(74,657,l),
(68,699,l),
(94,705,l),
(148,720,o),
(179,720,q),
(230,720,o),
(259,688,q),
(259,689,l),
(279,672,o),
(279,600,q),
(279,505,l),
(292,438,l),
(292,425,l),
(250,426,l),
(240,453,l),
(185,423,o),
(141,422,q),
(97,421,o),
(75.5,442,q),
(54,463,o),
(54,507.5,q),
(54,552,o),
(82.5,570,q),
(111,588,o),
(163,588,q)
);
},
{
closed = 1;
nodes = (
(132,544,o),
(119.5,536.5,q),
(107,529,o),
(107,507,q),
(107,485,o),
(114.5,478,q),
(122,471,o),
(142.5,471,q),
(163,471,o),
(190.5,477.5,q),
(218,484,o),
(227,494,q),
(227,543,l),
(216,544,o),
(174,544,q)
);
}
);
width = 351;
}
);
unicode = 170;
},
{
category = Letter;
glyphname = guillemotleft;
kernLeft = guillemotleft.2;
kernRight = guillemotleft;
layers = (
{
layerId = "47a458af-9e79-4f2a-b864-b7c0e255957d";
name = Fore;
shapes = (
{
closed = 1;
nodes = (
(115,266,o),
(138,243,q),
(249,126,l),
(208,88,l),
(46,261,l),
(46,299,l),
(207,471,l),
(249,435,l),
(138,316,l),
(115,293,o),
(115,279.5,q)
);
},
{
closed = 1;
nodes = (
(301,266,o),
(324,243,q),
(435,126,l),
(394,88,l),
(232,261,l),
(232,299,l),
(393,471,l),
(435,435,l),
(324,316,l),
(301,293,o),
(301,279.5,q)
);
}
);
width = 490;
}
);
unicode = 171;
},
{
category = Letter;
glyphname = logicalnot;
layers = (
{
layerId = "47a458af-9e79-4f2a-b864-b7c0e255957d";
name = Fore;
shapes = (
{
closed = 1;
nodes = (
(66,443,l),
(447,443,l),
(447,236,l),
(388,236,l),
(388,384,l),
(66,384,l)
);
}
);
width = 525;
}
);
unicode = 172;
},
{
category = Letter;
glyphname = registered;
kernLeft = registered;
layers = (
{
layerId = "47a458af-9e79-4f2a-b864-b7c0e255957d";
name = Fore;
shapes = (
{
closed = 1;
nodes = (
(346,265,l),
(312,265,l),
(312,126,l),
(264,126,l),
(264,492,l),
(374,492,l),
(437,492,o),
(470.5,469.5,q),
(504,447,o),
(504,379,q),
(504,287,o),
(431,270,q),
(521,140,l),
(484,114,l),
(378,264,l),
(364,264,l)
);
},
{
closed = 1;
nodes = (
(364,307,l),
(384,307,l),
(425,307,o),
(439.5,320,q),
(454,333,o),
(454,377,q),
(454,421,o),
(435.5,434,q),
(417,447,o),
(367,447,q),
(312,447,l),
(312,308,l),
(343,308,l)
);
},
{
closed = 1;
nodes = (
(696,435,o),
(696,303,q),
(696,171,o),
(605.5,78.5,q),
(515,-14,o),
(381,-14,q),
(247,-14,o),
(153.5,79.5,q),
(60,173,o),
(60,305,q),
(60,437,o),
(150.5,529.5,q),
(241,622,o),
(375,622,q),
(509,622,o),
(602.5,528.5,q)
);
},
{
closed = 1;
nodes = (
(639,184,o),
(639,299.5,q),
(639,415,o),
(563,492.5,q),
(487,570,o),
(371,570,q),
(255,570,o),
(185.5,496.5,q),
(116,423,o),
(116,307,q),
(116,191,o),
(192,113,q),
(268,35,o),
(384,35,q),
(500,35,o),
(569.5,109.5,q)
);
}
);
width = 756;
}
);
unicode = 174;
},
{
category = Letter;
glyphname = macron;
layers = (
{
layerId = "47a458af-9e79-4f2a-b864-b7c0e255957d";
name = Fore;
shapes = (
{
closed = 1;
nodes = (
(70,716,l),
(471,716,l),
(471,657,l),
(70,657,l)
);
}
);
width = 541;
}
);
unicode = 175;
},
{
category = Letter;
glyphname = degree;
layers = (
{
layerId = "47a458af-9e79-4f2a-b864-b7c0e255957d";
name = Fore;
shapes = (
{
closed = 1;
nodes = (
(288,620,o),
(288,570.5,q),
(288,521,o),
(257.5,486,q),
(227,451,o),
(169,451,q),
(111,451,o),
(81.5,485,q),
(52,519,o),
(52,568.5,q),
(52,618,o),
(82.5,652,q),
(113,686,o),
(170.5,686,q),
(228,686,o),
(258,653,q)
);
},
{
closed = 1;
nodes = (
(238,600,o),
(221.5,621,q),
(205,642,o),
(170,642,q),
(135,642,o),
(118.5,620.5,q),
(102,599,o),
(102,568.5,q),
(102,538,o),
(118,516.5,q),
(134,495,o),
(169,495,q),
(204,495,o),
(221,517.5,q),
(238,540,o),
(238,570,q)
);
}
);
width = 340;
}
);
unicode = 176;
},
{
category = Letter;
glyphname = plusminus;
layers = (
{
layerId = "47a458af-9e79-4f2a-b864-b7c0e255957d";
name = Fore;
shapes = (
{
closed = 1;
nodes = (
(69,59,l),
(451,59,l),
(451,0,l),
(69,0,l)
);
},
{
closed = 1;
nodes = (
(289,551,l),
(289,385,l),
(451,385,l),
(451,326,l),
(289,326,l),
(289,166,l),
(230,166,l),
(230,326,l),
(70,326,l),
(70,385,l),
(230,385,l),
(230,551,l)
);
}
);
width = 521;
}
);
unicode = 177;
},
{
category = Letter;
glyphname = twosuperior;
layers = (
{
layerId = "47a458af-9e79-4f2a-b864-b7c0e255957d";
name = Fore;
shapes = (
{
closed = 1;
nodes = (
(243,406,l),
(61,406,l),
(61,426,l),
(61,494,o),
(131,552,q),
(130,552,l),
(161,577,o),
(170,590,q),
(179,603,o),
(179,622.5,q),
(179,642,o),
(170.5,649.5,q),
(162,657,o),
(138,657,q),
(114,657,o),
(77,640,q),
(62,685,l),
(117,705,o),
(152,705,q),
(187,705,o),
(210,683.5,q),
(233,662,o),
(233,629.5,q),
(233,597,o),
(222.5,579,q),
(212,561,o),
(186,537,q),
(164,517,l),
(158,511,o),
(153,507,q),
(148,503,o),
(146,501,q),
(141,496,o),
(137.5,492.5,q),
(134,489,o),
(131,485.5,q),
(128,482,o),
(126.5,480,q),
(125,478,o),
(123,474.5,q),
(121,471,o),
(120,468,q),
(116,458,o),
(114,452,q),
(243,452,l)
);
}
);
width = 305;
}
);
unicode = 178;
},
{
category = Letter;
glyphname = threesuperior;
layers = (
{
layerId = "47a458af-9e79-4f2a-b864-b7c0e255957d";
name = Fore;
shapes = (
{
closed = 1;
nodes = (
(65,686,l),
(110,705,o),
(139,705,q),
(223,705,o),
(225,623,q),
(225,585,o),
(208,562,q),
(238,528,o),
(238,486.5,q),
(238,445,o),
(210.5,419,q),
(183,393,o),
(141,393,q),
(99,393,o),
(52,420,q),
(75,464,l),
(112,443,o),
(141,443,q),
(170,443,o),
(180,455,q),
(186,466,o),
(186,488,q),
(186,528,o),
(161,535,q),
(152,536,o),
(129,536,q),
(105,536,l),
(105,578,l),
(132,578,l),
(162,582,o),
(168,592,q),
(174,610,o),
(174,620,q),
(174,660,o),
(134,660,q),
(113,660,o),
(79,645,q)
);
}
);
width = 293;
}
);
unicode = 179;
},
{
category = Letter;
glyphname = acute;
layers = (
{
layerId = "47a458af-9e79-4f2a-b864-b7c0e255957d";
name = Fore;
shapes = (
{
closed = 1;
nodes = (
(268,674,l),
(226,636,o),
(172,599,q),
(104,571,l),
(99,577,o),
(90,585,q),
(81,593,o),
(76,600,q),
(96,614,l),
(157,655,o),
(179.5,677,q),
(202,699,o),
(220,719,q)
);
}
);
width = 351;
}
);
unicode = 180;
},
{
category = Letter;
glyphname = mu;
layers = (
{
layerId = "47a458af-9e79-4f2a-b864-b7c0e255957d";
name = Fore;
shapes = (
{
closed = 1;
nodes = (
(89,492,l),
(154,492,l),
(154,141,l),
(155,91,o),
(181.5,71,q),
(208,51,o),
(258.5,51,q),
(309,51,o),
(347.5,70,q),
(386,89,o),
(393,106,q),
(393,492,l),
(457,492,l),
(457,129,l),
(475,0,l),
(433,0,l),
(430,3,l),
(409,59,l),
(370,33,o),
(353,22.5,q),
(336,12,o),
(303.5,1.5,q),
(271,-9,o),
(240,-9,q),
(183,-9,o),
(162,11,q),
(154,18,l),
(154,-195,l),
(89,-195,l)
);
}
);
width = 552;
}
);
unicode = (181,956);
},
{
category = Letter;
glyphname = paragraph;
layers = (
{
layerId = "47a458af-9e79-4f2a-b864-b7c0e255957d";
name = Fore;
shapes = (
{
closed = 1;
nodes = (
(416,-82,l),
(350,-82,l),
(350,592,l),
(266,592,l),
(266,-82,l),
(198,-82,l),
(198,331,l),
(128,331,o),
(83.5,374.5,q),
(39,418,o),
(39,490.5,q),
(39,563,o),
(81.5,605.5,q),
(124,648,o),
(198,648,q),
(416,648,l)
);
}
);
width = 512;
}
);
unicode = 182;
},
{
category = Letter;
glyphname = periodcentered;
kernLeft = periodcentered.2;
kernRight = periodcentered;
layers = (
{
layerId = "47a458af-9e79-4f2a-b864-b7c0e255957d";
name = Fore;
shapes = (
{
closed = 1;
nodes = (
(99,324,o),
(124.5,324,q),
(150,324,o),
(162.5,311,q),
(175,298,o),
(175,266,q),
(175,208,o),
(120.5,208,q),
(66,208,o),
(66,266,q),
(66,296,o),
(82.5,310,q)
);
}
);
width = 241;
}
);
unicode = 183;
},
{
category = Letter;
glyphname = cedilla;
layers = (
{
layerId = "47a458af-9e79-4f2a-b864-b7c0e255957d";
name = Fore;
shapes = (
{
closed = 1;
nodes = (
(229,-5,l),
(229,-64,l),
(187,-174,l),
(184,-178,l),
(140,-178,l),
(169,-64,l),
(169,-5,l)
);
}
);
width = 339;
}
);
unicode = 184;
},
{
category = Letter;
glyphname = onesuperior;
layers = (
{
layerId = "47a458af-9e79-4f2a-b864-b7c0e255957d";
name = Fore;
shapes = (
{
closed = 1;
nodes = (
(164,707,l),
(164,408,l),
(109,408,l),
(109,645,l),
(61,616,l),
(36,659,l),
(109,706,l),
(109,707,l)
);
}
);
width = 236;
}
);
unicode = 185;
},
{
category = Letter;
glyphname = ordmasculine;
kernLeft = ordmasculine;
layers = (
{
layerId = "47a458af-9e79-4f2a-b864-b7c0e255957d";
name = Fore;
shapes = (
{
closed = 1;
nodes = (
(136,668,o),
(123,643.5,q),
(110,619,o),
(110,559.5,q),
(110,500,o),
(123.5,476.5,q),
(137,453,o),
(183.5,453,q),
(230,453,o),
(243,477.5,q),
(256,502,o),
(256,547.5,q),
(256,593,o),
(254.5,607.5,q),
(253,622,o),
(246.5,639,q),
(240,656,o),
(224.5,662,q),
(209,668,o),
(183,668,q)
);
},
{
closed = 1;
nodes = (
(256,717,o),
(284,685,q),
(312,653,o),
(312,566,q),
(312,479,o),
(274,441.5,q),
(236,404,o),
(183,404,q),
(111,404,o),
(83,438,q),
(55,472,o),
(55,557,q),
(55,642,o),
(94,679.5,q),
(133,717,o),
(183,717,q)
);
}
);
width = 367;
}
);
unicode = 186;
},
{
category = Letter;
glyphname = guillemotright;
kernLeft = guillemotright.2;
kernRight = guillemotright;
layers = (
{
layerId = "47a458af-9e79-4f2a-b864-b7c0e255957d";
name = Fore;
shapes = (
{
closed = 1;
nodes = (
(375,293,o),
(352,316,q),
(241,435,l),
(283,471,l),
(444,299,l),
(444,261,l),
(282,88,l),
(241,126,l),
(352,243,l),
(375,266,o),
(375,279.5,q)
);
},
{
closed = 1;
nodes = (
(189,293,o),
(166,316,q),
(55,435,l),
(97,471,l),
(258,299,l),
(258,261,l),
(96,88,l),
(55,126,l),
(166,243,l),
(189,266,o),
(189,279.5,q)
);
}
);
width = 490;
}
);
unicode = 187;
},
{
category = Letter;
glyphname = onequarter;
layers = (
{
layerId = "47a458af-9e79-4f2a-b864-b7c0e255957d";
name = Fore;
shapes = (
{
closed = 1;
nodes = (
(474,741,l),
(527,718,l),
(201,-17,l),
(147,6,l)
);
},
{
closed = 1;
nodes = (
(676,175,l),
(676,125,l),
(645,125,l),
(645,50,l),
(590,50,l),
(590,125,l),
(480,125,l),
(480,168,l),
(480,197,o),
(494,218,q),
(584,356,l),
(626,329,l),
(545,200,l),
(534,184,o),
(534,175,q),
(590,175,l),
(590,216,l),
(645,216,l),
(645,175,l)
);
},
{
closed = 1;
nodes = (
(157,698,l),
(157,399,l),
(102,399,l),
(102,636,l),
(54,607,l),
(29,650,l),
(102,697,l),
(102,698,l)
);
}
);
width = 714;
}
);
unicode = 188;
},
{
category = Letter;
glyphname = onehalf;
layers = (
{
layerId = "47a458af-9e79-4f2a-b864-b7c0e255957d";
name = Fore;
shapes = (
{
closed = 1;
nodes = (
(474,741,l),
(527,718,l),
(201,-17,l),
(147,6,l)
);
},
{
closed = 1;
nodes = (
(495,51,l),
(495,71,l),
(495,139,o),
(565,197,q),
(564,197,l),
(595,222,o),
(604,235,q),
(613,248,o),
(613,267.5,q),
(613,287,o),
(604.5,294.5,q),
(596,302,o),
(572,302,q),
(548,302,o),
(511,285,q),
(496,330,l),
(551,350,o),
(586,350,q),
(621,350,o),
(644,328.5,q),
(667,307,o),
(667,274.5,q),
(667,242,o),
(656.5,224,q),
(646,206,o),
(620,182,q),
(565,132,l),
(555,122,o),
(548,97,q),
(677,97,l),
(677,51,l)
);
},
{
closed = 1;
nodes = (
(157,698,l),
(157,399,l),
(102,399,l),
(102,636,l),
(54,607,l),
(29,650,l),
(102,697,l),
(102,698,l)
);
}
);
width = 725;
}
);
unicode = 189;
},
{
category = Letter;
glyphname = threequarters;
layers = (
{
layerId = "47a458af-9e79-4f2a-b864-b7c0e255957d";
name = Fore;
shapes = (
{
closed = 1;
nodes = (
(532,741,l),
(585,718,l),
(259,-17,l),
(205,6,l)
);
},
{
closed = 1;
nodes = (
(161,610,o),
(161,620,q),
(161,660,o),
(121,660,q),
(100,660,o),
(66,645,q),
(52,686,l),
(97,705,o),
(126,705,q),
(210,705,o),
(212,623,q),
(212,585,o),
(195,562,q),
(225,528,o),
(225,486.5,q),
(225,445,o),
(197.5,419,q),
(170,393,o),
(128,393,q),
(86,393,o),
(39,420,q),
(62,464,l),
(99,443,o),
(128,443,q),
(157,443,o),
(167,455,q),
(173,466,o),
(173,488,q),
(173,528,o),
(148,535,q),
(139,536,o),
(116,536,q),
(92,536,l),
(92,578,l),
(119,578,l),
(149,582,o),
(155,592,q)
);
},
{
closed = 1;
nodes = (
(734,175,l),
(734,125,l),
(703,125,l),
(703,50,l),
(648,50,l),
(648,125,l),
(538,125,l),
(538,168,l),
(538,197,o),
(552,218,q),
(642,356,l),
(684,329,l),
(603,200,l),
(592,184,o),
(592,175,q),
(648,175,l),
(648,216,l),
(703,216,l),
(703,175,l)
);
}
);
width = 772;
}
);
unicode = 190;
},
{
category = Letter;
glyphname = questiondown;
kernRight = questiondown;
layers = (
{
layerId = "47a458af-9e79-4f2a-b864-b7c0e255957d";
name = Fore;
shapes = (
{
closed = 1;
nodes = (
(366,-170,l),
(298,-177,o),
(240,-177,q),
(207,-177,o),
(185,-172.5,q),
(163,-168,o),
(138,-159.5,q),
(113,-151,o),
(97.5,-136,q),
(82,-121,o),
(68,-100,q),
(43,-59,o),
(43,23,q),
(43,95,o),
(76,132,q),
(93,151,o),
(104.5,160,q),
(116,169,o),
(132.5,179.5,q),
(149,190,o),
(170,202,q),
(191,214,o),
(206,228,q),
(227,247,o),
(227,292,q),
(229,356,l),
(285,356,l),
(287,324,o),
(287,275,q),
(287,204,o),
(224,165,q),
(198,149,o),
(172,133,q),
(146,117,o),
(127.5,90.5,q),
(109,64,o),
(109,13.5,q),
(109,-37,o),
(130,-66,q),
(141,-81,o),
(152.5,-92.5,q),
(164,-104,o),
(182.5,-109.5,q),
(201,-115,o),
(214.5,-118.5,q),
(228,-122,o),
(269,-122,q),
(310,-122,o),
(352,-116,q)
);
},
{
closed = 1;
nodes = (
(294,504,l),
(294,430,l),
(222,430,l),
(222,504,l)
);
}
);
width = 401;
}
);
unicode = 191;
},
{
category = Letter;
glyphname = Agrave;
kernLeft = A.2;
kernRight = A;
layers = (
{
layerId = "47a458af-9e79-4f2a-b864-b7c0e255957d";
name = Fore;
shapes = (
{
closed = 1;
nodes = (
(343,648,l),
(562,0,l),
(491,0,l),
(424,201,l),
(172,201,l),
(105,0,l),
(34,0,l),
(253,648,l)
);
},
{
closed = 1;
nodes = (
(407,257,l),
(301,593,l),
(298,593,l),
(190,257,l)
);
},
{
closed = 1;
nodes = (
(250,872,l),
(288,830,o),
(313,811,q),
(348,784,o),
(374,767,q),
(394,753,l),
(389,746,o),
(380,738,q),
(371,730,o),
(366,724,q),
(298,752,l),
(244,789,o),
(202,827,q)
);
}
);
width = 596;
}
);
unicode = 192;
},
{
category = Letter;
glyphname = Aacute;
kernLeft = A.2;
kernRight = A;
layers = (
{
layerId = "47a458af-9e79-4f2a-b864-b7c0e255957d";
name = Fore;
shapes = (
{
closed = 1;
nodes = (
(343,648,l),
(562,0,l),
(491,0,l),
(424,201,l),
(172,201,l),
(105,0,l),
(34,0,l),
(253,648,l)
);
},
{
closed = 1;
nodes = (
(407,257,l),
(301,593,l),
(298,593,l),
(190,257,l)
);
},
{
closed = 1;
nodes = (
(394,830,l),
(352,792,o),
(298,755,q),
(230,727,l),
(225,733,o),
(216,741,q),
(207,749,o),
(202,756,q),
(222,770,l),
(283,811,o),
(305.5,833,q),
(328,855,o),
(346,875,q)
);
}
);
width = 596;
}
);
unicode = 193;
},
{
category = Letter;
glyphname = Acircumflex;
kernLeft = A.2;
kernRight = A;
layers = (
{
layerId = "47a458af-9e79-4f2a-b864-b7c0e255957d";
name = Fore;
shapes = (
{
closed = 1;
nodes = (
(343,648,l),
(562,0,l),
(491,0,l),
(424,201,l),
(172,201,l),
(105,0,l),
(34,0,l),
(253,648,l)
);
},
{
closed = 1;
nodes = (
(407,257,l),
(301,593,l),
(298,593,l),
(190,257,l)
);
},
{
closed = 1;
nodes = (
(192,743,l),
(164,773,l),
(268,879,l),
(328,879,l),
(432,773,l),
(403,743,l),
(298,830,l)
);
}
);
width = 596;
}
);
unicode = 194;
},
{
category = Letter;
glyphname = Atilde;
kernLeft = A.2;
kernRight = A;
layers = (
{
layerId = "47a458af-9e79-4f2a-b864-b7c0e255957d";
name = Fore;
shapes = (
{
closed = 1;
nodes = (
(343,648,l),
(562,0,l),
(491,0,l),
(424,201,l),
(172,201,l),
(105,0,l),
(34,0,l),
(253,648,l)
);
},
{
closed = 1;
nodes = (
(407,257,l),
(301,593,l),
(298,593,l),
(190,257,l)
);
},
{
closed = 1;
nodes = (
(380,737,o),
(371,735.5,q),
(362,734,o),
(353.5,734,q),
(345,734,o),
(327,739,q),
(242,759,l),
(167,727,l),
(149,755,l),
(191,790,l),
(212,808,o),
(219.5,809.5,q),
(227,811,o),
(234.5,811,q),
(242,811,o),
(259,807,q),
(354,785,l),
(428,820,l),
(446,791,l),
(399,752,l)
);
}
);
width = 596;
}
);
unicode = 195;
},
{
category = Letter;
glyphname = Adieresis;
kernLeft = A.2;
kernRight = A;
layers = (
{
layerId = "47a458af-9e79-4f2a-b864-b7c0e255957d";
name = Fore;
shapes = (
{
closed = 1;
nodes = (
(343,648,l),
(562,0,l),
(491,0,l),
(424,201,l),
(172,201,l),
(105,0,l),
(34,0,l),
(253,648,l)
);
},
{
closed = 1;
nodes = (
(407,257,l),
(301,593,l),
(298,593,l),
(190,257,l)
);
},
{
closed = 1;
nodes = (
(261,814,l),
(261,740,l),
(189,740,l),
(189,814,l)
);
},
{
closed = 1;
nodes = (
(407,814,l),
(407,740,l),
(335,740,l),
(335,814,l)
);
}
);
width = 596;
}
);
unicode = 196;
},
{
category = Letter;
glyphname = Aring;
kernLeft = A.2;
kernRight = A;
layers = (
{
layerId = "47a458af-9e79-4f2a-b864-b7c0e255957d";
name = Fore;
shapes = (
{
closed = 1;
nodes = (
(343,648,l),
(562,0,l),
(491,0,l),
(424,201,l),
(172,201,l),
(105,0,l),
(34,0,l),
(253,648,l)
);
},
{
closed = 1;
nodes = (
(407,257,l),
(301,593,l),
(298,593,l),
(190,257,l)
);
},
{
closed = 1;
nodes = (
(395,786,o),
(369.5,757,q),
(344,728,o),
(297,728,q),
(250,728,o),
(225.5,756,q),
(201,784,o),
(201,824.5,q),
(201,865,o),
(226,893,q),
(251,921,o),
(298.5,921,q),
(346,921,o),
(370.5,893.5,q),
(395,866,o),
(395,826,q)
);
},
{
closed = 1;
nodes = (
(356,801,o),
(356,825.5,q),
(356,850,o),
(341.5,868.5,q),
(327,887,o),
(298.5,887,q),
(270,887,o),
(255,868.5,q),
(240,850,o),
(240,825,q),
(240,800,o),
(254,781,q),
(268,762,o),
(297,762,q),
(326,762,o),
(341,781.5,q)
);
}
);
width = 596;
}
);
unicode = 197;
},
{
category = Letter;
glyphname = AE;
kernLeft = AE;
kernRight = E;
layers = (
{
layerId = "47a458af-9e79-4f2a-b864-b7c0e255957d";
name = Fore;
shapes = (
{
closed = 1;
nodes = (
(382,201,l),
(183,201,l),
(80,0,l),
(9,0,l),
(338,648,l),
(426,648,l),
(427,0,l),
(382,0,l)
);
},
{
closed = 1;
nodes = (
(382,595,l),
(210,257,l),
(382,257,l)
);
},
{
closed = 1;
nodes = (
(382,0,l),
(382,648,l),
(739,648,l),
(732,592,l),
(449,592,l),
(449,363,l),
(699,363,l),
(699,307,l),
(448,307,l),
(448,56,l),
(750,56,l),
(750,0,l)
);
}
);
width = 798;
}
);
unicode = 198;
},
{
category = Letter;
glyphname = Ccedilla;
kernLeft = C.2;
kernRight = C;
layers = (
{
layerId = "47a458af-9e79-4f2a-b864-b7c0e255957d";
name = Fore;
shapes = (
{
closed = 1;
nodes = (
(245,647,o),
(203,625.5,q),
(161,604,o),
(131.5,569,q),
(102,534,o),
(82,471,q),
(62,408,o),
(62,322.5,q),
(62,237,o),
(78,174,q),
(94,111,o),
(117.5,76,q),
(141,41,o),
(178,21.5,q),
(215,2,o),
(248,-3.5,q),
(281,-9,o),
(326,-9,q),
(442,-9,o),
(514,40,q),
(491,94,l),
(434,60,o),
(376,56,q),
(358,54,o),
(320.5,54,q),
(283,54,o),
(252,64.5,q),
(221,75,o),
(192,102,q),
(132,159,o),
(132,326,q),
(132,462,o),
(175,528,q),
(194,557,o),
(226.5,573,q),
(259,589,o),
(290,593.5,q),
(321,598,o),
(364.5,598,q),
(408,598,o),
(498,580,q),
(514,633,l),
(431,660,o),
(374,660,q),
(317,660,o),
(281,653.5,q)
);
},
{
closed = 1;
nodes = (
(342,-5,l),
(342,-64,l),
(300,-174,l),
(297,-178,l),
(253,-178,l),
(282,-64,l),
(282,-5,l)
);
}
);
width = 553;
}
);
unicode = 199;
},
{
category = Letter;
glyphname = Egrave;
kernLeft = B.2;
kernRight = E;
layers = (
{
layerId = "47a458af-9e79-4f2a-b864-b7c0e255957d";
name = Fore;
shapes = (
{
closed = 1;
nodes = (
(91,0,l),
(91,648,l),
(448,648,l),
(441,592,l),
(158,592,l),
(158,363,l),
(408,363,l),
(408,307,l),
(157,307,l),
(157,56,l),
(459,56,l),
(459,0,l)
);
},
{
closed = 1;
nodes = (
(200,872,l),
(238,830,o),
(263,811,q),
(298,784,o),
(324,767,q),
(344,753,l),
(339,746,o),
(330,738,q),
(321,730,o),
(316,724,q),
(248,752,l),
(194,789,o),
(152,827,q)
);
}
);
width = 507;
}
);
unicode = 200;
},
{
category = Letter;
glyphname = Eacute;
kernLeft = B.2;
kernRight = E;
layers = (
{
layerId = "47a458af-9e79-4f2a-b864-b7c0e255957d";
name = Fore;
shapes = (
{
closed = 1;
nodes = (
(91,0,l),
(91,648,l),
(448,648,l),
(441,592,l),
(158,592,l),
(158,363,l),
(408,363,l),
(408,307,l),
(157,307,l),
(157,56,l),
(459,56,l),
(459,0,l)
);
},
{
closed = 1;
nodes = (
(344,830,l),
(302,792,o),
(248,755,q),
(180,727,l),
(175,733,o),
(166,741,q),
(157,749,o),
(152,756,q),
(172,770,l),
(233,811,o),
(255.5,833,q),
(278,855,o),
(296,875,q)
);
}
);
width = 507;
}
);
unicode = 201;
},
{
category = Letter;
glyphname = Ecircumflex;
kernLeft = B.2;
kernRight = E;
layers = (
{
layerId = "47a458af-9e79-4f2a-b864-b7c0e255957d";
name = Fore;
shapes = (
{
closed = 1;
nodes = (
(91,0,l),
(91,648,l),
(448,648,l),
(441,592,l),
(158,592,l),
(158,363,l),
(408,363,l),
(408,307,l),
(157,307,l),
(157,56,l),
(459,56,l),
(459,0,l)
);
},
{
closed = 1;
nodes = (
(142,743,l),
(114,773,l),
(218,879,l),
(278,879,l),
(382,773,l),
(353,743,l),
(248,830,l)
);
}
);
width = 507;
}
);
unicode = 202;
},
{
category = Letter;
glyphname = Edieresis;
kernLeft = B.2;
kernRight = E;
layers = (
{
layerId = "47a458af-9e79-4f2a-b864-b7c0e255957d";
name = Fore;
shapes = (
{
closed = 1;
nodes = (
(91,0,l),
(91,648,l),
(448,648,l),
(441,592,l),
(158,592,l),
(158,363,l),
(408,363,l),
(408,307,l),
(157,307,l),
(157,56,l),
(459,56,l),
(459,0,l)
);
},
{
closed = 1;
nodes = (
(231,814,l),
(231,740,l),
(159,740,l),
(159,814,l)
);
},
{
closed = 1;
nodes = (
(377,814,l),
(377,740,l),
(305,740,l),
(305,814,l)
);
}
);
width = 507;
}
);
unicode = 203;
},
{
category = Letter;
glyphname = Igrave;
kernLeft = B.2;
kernRight = H;
layers = (
{
layerId = "47a458af-9e79-4f2a-b864-b7c0e255957d";
name = Fore;
shapes = (
{
closed = 1;
nodes = (
(157,648,l),
(157,0,l),
(91,0,l),
(91,648,l)
);
},
{
closed = 1;
nodes = (
(71,872,l),
(109,830,o),
(134,811,q),
(169,784,o),
(194,767,q),
(215,753,l),
(210,746,o),
(201,738,q),
(192,730,o),
(187,724,q),
(119,752,l),
(65,789,o),
(23,827,q)
);
}
);
width = 248;
}
);
unicode = 204;
},
{
category = Letter;
glyphname = Iacute;
kernLeft = B.2;
kernRight = H;
layers = (
{
layerId = "47a458af-9e79-4f2a-b864-b7c0e255957d";
name = Fore;
shapes = (
{
closed = 1;
nodes = (
(157,648,l),
(157,0,l),
(91,0,l),
(91,648,l)
);
},
{
closed = 1;
nodes = (
(232,830,l),
(190,792,o),
(136,755,q),
(68,727,l),
(63,733,o),
(54,741,q),
(45,749,o),
(40,756,q),
(60,770,l),
(121,811,o),
(143.5,833,q),
(166,855,o),
(184,875,q)
);
}
);
width = 248;
}
);
unicode = 205;
},
{
category = Letter;
glyphname = Icircumflex;
kernLeft = B.2;
kernRight = H;
layers = (
{
layerId = "47a458af-9e79-4f2a-b864-b7c0e255957d";
name = Fore;
shapes = (
{
closed = 1;
nodes = (
(157,648,l),
(157,0,l),
(91,0,l),
(91,648,l)
);
},
{
closed = 1;
nodes = (
(18,743,l),
(-10,773,l),
(94,879,l),
(154,879,l),
(258,773,l),
(229,743,l),
(124,830,l)
);
}
);
width = 248;
}
);
unicode = 206;
},
{
category = Letter;
glyphname = Idieresis;
kernLeft = B.2;
kernRight = H;
layers = (
{
layerId = "47a458af-9e79-4f2a-b864-b7c0e255957d";
name = Fore;
shapes = (
{
closed = 1;
nodes = (
(157,648,l),
(157,0,l),
(91,0,l),
(91,648,l)
);
},
{
closed = 1;
nodes = (
(87,814,l),
(87,740,l),
(15,740,l),
(15,814,l)
);
},
{
closed = 1;
nodes = (
(233,814,l),
(233,740,l),
(161,740,l),
(161,814,l)
);
}
);
width = 248;
}
);
unicode = 207;
},
{
category = Letter;
glyphname = Eth;
kernLeft = B.2;
kernRight = D;
layers = (
{
layerId = "47a458af-9e79-4f2a-b864-b7c0e255957d";
name = Fore;
shapes = (
{
closed = 1;
nodes = (
(33,360,l),
(113,360,l),
(113,648,l),
(284,648,l),
(345,648,o),
(386,642,q),
(427,636,o),
(467,616.5,q),
(507,597,o),
(530,563,q),
(581,488,o),
(581,329,q),
(581,231,o),
(555,155,q),
(537,103,o),
(486,57,q),
(458,31,o),
(394,12,q),
(358,2,o),
(317.5,1,q),
(277,0,o),
(246,0,q),
(113,0,l),
(113,301,l),
(33,301,l)
);
},
{
closed = 1;
nodes = (
(246,58,l),
(251,58,o),
(272,58,q),
(293,58,o),
(309.5,58.5,q),
(326,59,o),
(353,61,q),
(380,63,o),
(392.5,68,q),
(405,73,o),
(425,82,q),
(445,91,o),
(454,104.5,q),
(463,118,o),
(475.5,138,q),
(488,158,o),
(494,185,q),
(508,258,o),
(509,336,q),
(510,414,o),
(499.5,464.5,q),
(489,515,o),
(460,542.5,q),
(431,570,o),
(392,578.5,q),
(353,587,o),
(285,587,q),
(179,587,l),
(179,360,l),
(400,360,l),
(400,301,l),
(179,301,l),
(179,58,l)
);
}
);
width = 644;
}
);
unicode = 208;
},
{
category = Letter;
glyphname = Ntilde;
kernLeft = B.2;
kernRight = H;
layers = (
{
layerId = "47a458af-9e79-4f2a-b864-b7c0e255957d";
name = Fore;
shapes = (
{
closed = 1;
nodes = (
(568,648,l),
(568,0,l),
(495,0,l),
(153,547,l),
(157,453,l),
(157,0,l),
(91,0,l),
(91,648,l),
(163,648,l),
(505,103,l),
(502,199,l),
(502,648,l)
);
},
{
closed = 1;
nodes = (
(428,737,o),
(419,735.5,q),
(410,734,o),
(401.5,734,q),
(393,734,o),
(375,739,q),
(290,759,l),
(215,727,l),
(197,755,l),
(239,790,l),
(260,808,o),
(267.5,809.5,q),
(275,811,o),
(282.5,811,q),
(290,811,o),
(307,807,q),
(402,785,l),
(476,820,l),
(494,791,l),
(447,752,l)
);
}
);
width = 659;
}
);
unicode = 209;
},
{
category = Letter;
glyphname = Ograve;
kernLeft = C.2;
kernRight = O;
layers = (
{
layerId = "47a458af-9e79-4f2a-b864-b7c0e255957d";
name = Fore;
shapes = (
{
closed = 1;
nodes = (
(482,661,o),
(540.5,591,q),
(599,521,o),
(599,329,q),
(599,232,o),
(576,163,q),
(553,94,o),
(512,58,q),
(437,-9,o),
(331,-9,q),
(186,-9,o),
(136,44,q),
(85,99,o),
(70,196,q),
(62,252,o),
(62,335.5,q),
(62,419,o),
(87,487,q),
(112,555,o),
(153,591,q),
(233,661,o),
(331,661,q)
);
},
{
closed = 1;
nodes = (
(221,599,o),
(176.5,535.5,q),
(132,472,o),
(132,328,q),
(132,192,o),
(166,126,q),
(194,71,o),
(268,58,q),
(298,52,o),
(345,52,q),
(439,52,o),
(484,117,q),
(529,182,o),
(529,329,q),
(529,443,o),
(507,502,q),
(494,537,o),
(470,557,q),
(420,599,o),
(312,599,q)
);
},
{
closed = 1;
nodes = (
(283,872,l),
(321,830,o),
(346,811,q),
(381,784,o),
(406,767,q),
(427,753,l),
(422,746,o),
(413,738,q),
(404,730,o),
(399,724,q),
(331,752,l),
(277,789,o),
(235,827,q)
);
}
);
width = 661;
}
);
unicode = 210;
},
{
category = Letter;
glyphname = Oacute;
kernLeft = C.2;
kernRight = O;
layers = (
{
layerId = "47a458af-9e79-4f2a-b864-b7c0e255957d";
name = Fore;
shapes = (
{
closed = 1;
nodes = (
(482,661,o),
(540.5,591,q),
(599,521,o),
(599,329,q),
(599,232,o),
(576,163,q),
(553,94,o),
(512,58,q),
(437,-9,o),
(331,-9,q),
(186,-9,o),
(136,44,q),
(85,99,o),
(70,196,q),
(62,252,o),
(62,335.5,q),
(62,419,o),
(87,487,q),
(112,555,o),
(153,591,q),
(233,661,o),
(331,661,q)
);
},
{
closed = 1;
nodes = (
(221,599,o),
(176.5,535.5,q),
(132,472,o),
(132,328,q),
(132,192,o),
(166,126,q),
(194,71,o),
(268,58,q),
(298,52,o),
(345,52,q),
(439,52,o),
(484,117,q),
(529,182,o),
(529,329,q),
(529,443,o),
(507,502,q),
(494,537,o),
(470,557,q),
(420,599,o),
(312,599,q)
);
},
{
closed = 1;
nodes = (
(439,830,l),
(397,792,o),
(343,755,q),
(275,727,l),
(270,733,o),
(261,741,q),
(252,749,o),
(247,756,q),
(268,770,l),
(328,811,o),
(350.5,833,q),
(373,855,o),
(391,875,q)
);
}
);
width = 661;
}
);
unicode = 211;
},
{
category = Letter;
glyphname = Ocircumflex;
kernLeft = C.2;
kernRight = O;
layers = (
{
layerId = "47a458af-9e79-4f2a-b864-b7c0e255957d";
name = Fore;
shapes = (
{
closed = 1;
nodes = (
(482,661,o),
(540.5,591,q),
(599,521,o),
(599,329,q),
(599,232,o),
(576,163,q),
(553,94,o),
(512,58,q),
(437,-9,o),
(331,-9,q),
(186,-9,o),
(136,44,q),
(85,99,o),
(70,196,q),
(62,252,o),
(62,335.5,q),
(62,419,o),
(87,487,q),
(112,555,o),
(153,591,q),
(233,661,o),
(331,661,q)
);
},
{
closed = 1;
nodes = (
(221,599,o),
(176.5,535.5,q),
(132,472,o),
(132,328,q),
(132,192,o),
(166,126,q),
(194,71,o),
(268,58,q),
(298,52,o),
(345,52,q),
(439,52,o),
(484,117,q),
(529,182,o),
(529,329,q),
(529,443,o),
(507,502,q),
(494,537,o),
(470,557,q),
(420,599,o),
(312,599,q)
);
},
{
closed = 1;
nodes = (
(225,743,l),
(197,773,l),
(301,879,l),
(361,879,l),
(465,773,l),
(436,743,l),
(331,830,l)
);
}
);
width = 661;
}
);
unicode = 212;
},
{
category = Letter;
glyphname = Otilde;
kernLeft = C.2;
kernRight = O;
layers = (
{
layerId = "47a458af-9e79-4f2a-b864-b7c0e255957d";
name = Fore;
shapes = (
{
closed = 1;
nodes = (
(482,661,o),
(540.5,591,q),
(599,521,o),
(599,329,q),
(599,232,o),
(576,163,q),
(553,94,o),
(512,58,q),
(437,-9,o),
(331,-9,q),
(186,-9,o),
(136,44,q),
(85,99,o),
(70,196,q),
(62,252,o),
(62,335.5,q),
(62,419,o),
(87,487,q),
(112,555,o),
(153,591,q),
(233,661,o),
(331,661,q)
);
},
{
closed = 1;
nodes = (
(221,599,o),
(176.5,535.5,q),
(132,472,o),
(132,328,q),
(132,192,o),
(166,126,q),
(194,71,o),
(268,58,q),
(298,52,o),
(345,52,q),
(439,52,o),
(484,117,q),
(529,182,o),
(529,329,q),
(529,443,o),
(507,502,q),
(494,537,o),
(470,557,q),
(420,599,o),
(312,599,q)
);
},
{
closed = 1;
nodes = (
(413,737,o),
(404,735.5,q),
(395,734,o),
(386.5,734,q),
(378,734,o),
(360,739,q),
(275,759,l),
(200,727,l),
(182,755,l),
(224,790,l),
(245,808,o),
(252.5,809.5,q),
(260,811,o),
(267.5,811,q),
(275,811,o),
(292,807,q),
(387,785,l),
(461,820,l),
(479,791,l),
(432,752,l)
);
}
);
width = 661;
}
);
unicode = 213;
},
{
category = Letter;
glyphname = Odieresis;
kernLeft = C.2;
kernRight = O;
layers = (
{
layerId = "47a458af-9e79-4f2a-b864-b7c0e255957d";
name = Fore;
shapes = (
{
closed = 1;
nodes = (
(482,661,o),
(540.5,591,q),
(599,521,o),
(599,329,q),
(599,232,o),
(576,163,q),
(553,94,o),
(512,58,q),
(437,-9,o),
(331,-9,q),
(186,-9,o),
(136,44,q),
(85,99,o),
(70,196,q),
(62,252,o),
(62,335.5,q),
(62,419,o),
(87,487,q),
(112,555,o),
(153,591,q),
(233,661,o),
(331,661,q)
);
},
{
closed = 1;
nodes = (
(221,599,o),
(176.5,535.5,q),
(132,472,o),
(132,328,q),
(132,192,o),
(166,126,q),
(194,71,o),
(268,58,q),
(298,52,o),
(345,52,q),
(439,52,o),
(484,117,q),
(529,182,o),
(529,329,q),
(529,443,o),
(507,502,q),
(494,537,o),
(470,557,q),
(420,599,o),
(312,599,q)
);
},
{
closed = 1;
nodes = (
(294,814,l),
(294,740,l),
(222,740,l),
(222,814,l)
);
},
{
closed = 1;
nodes = (
(440,814,l),
(440,740,l),
(368,740,l),
(368,814,l)
);
}
);
width = 661;
}
);
unicode = 214;
},
{
category = Letter;
glyphname = multiply;
layers = (
{
layerId = "47a458af-9e79-4f2a-b864-b7c0e255957d";
name = Fore;
shapes = (
{
closed = 1;
nodes = (
(412,109,l),
(257,264,l),
(101,107,l),
(60,148,l),
(214,303,l),
(61,457,l),
(102,498,l),
(255,345,l),
(409,499,l),
(452,460,l),
(298,305,l),
(453,150,l)
);
}
);
width = 514;
}
);
unicode = 215;
},
{
category = Letter;
glyphname = Oslash;
kernLeft = C.2;
kernRight = O;
layers = (
{
layerId = "47a458af-9e79-4f2a-b864-b7c0e255957d";
name = Fore;
shapes = (
{
closed = 1;
nodes = (
(480,743,l),
(533,720,l),
(170,-99,l),
(116,-76,l)
);
},
{
closed = 1;
nodes = (
(482,661,o),
(540.5,591,q),
(599,521,o),
(599,329,q),
(599,232,o),
(576,163,q),
(553,94,o),
(512,58,q),
(437,-9,o),
(331,-9,q),
(186,-9,o),
(136,44,q),
(85,99,o),
(70,196,q),
(62,252,o),
(62,335.5,q),
(62,419,o),
(87,487,q),
(112,555,o),
(153,591,q),
(233,661,o),
(331,661,q)
);
},
{
closed = 1;
nodes = (
(221,599,o),
(176.5,535.5,q),
(132,472,o),
(132,328,q),
(132,192,o),
(166,126,q),
(194,71,o),
(268,58,q),
(298,52,o),
(345,52,q),
(439,52,o),
(484,117,q),
(529,182,o),
(529,329,q),
(529,443,o),
(507,502,q),
(494,537,o),
(470,557,q),
(420,599,o),
(312,599,q)
);
}
);
width = 661;
}
);
unicode = 216;
},
{
category = Letter;
glyphname = Ugrave;
kernLeft = U.2;
kernRight = U;
layers = (
{
layerId = "47a458af-9e79-4f2a-b864-b7c0e255957d";
name = Fore;
shapes = (
{
closed = 1;
nodes = (
(308,-10,o),
(296,-10,q),
(284,-10,o),
(272,-9.5,q),
(260,-9,o),
(235,-5.5,q),
(210,-2,o),
(193,5.5,q),
(176,13,o),
(154.5,29,q),
(133,45,o),
(120,67,q),
(87,120,o),
(87,204,q),
(87,648,l),
(154,648,l),
(154,204,l),
(157,47,o),
(310,47,q),
(375,47,o),
(418,85,q),
(461,123,o),
(461,200,q),
(461,648,l),
(526,648,l),
(525,202,l),
(525,-10,o),
(310,-10,q)
);
},
{
closed = 1;
nodes = (
(258,872,l),
(296,830,o),
(321,811,q),
(356,784,o),
(382,767,q),
(402,753,l),
(397,746,o),
(388,738,q),
(379,730,o),
(374,724,q),
(306,752,l),
(252,789,o),
(210,827,q)
);
}
);
width = 612;
}
);
unicode = 217;
},
{
category = Letter;
glyphname = Uacute;
kernLeft = U.2;
kernRight = U;
layers = (
{
layerId = "47a458af-9e79-4f2a-b864-b7c0e255957d";
name = Fore;
shapes = (
{
closed = 1;
nodes = (
(308,-10,o),
(296,-10,q),
(284,-10,o),
(272,-9.5,q),
(260,-9,o),
(235,-5.5,q),
(210,-2,o),
(193,5.5,q),
(176,13,o),
(154.5,29,q),
(133,45,o),
(120,67,q),
(87,120,o),
(87,204,q),
(87,648,l),
(154,648,l),
(154,204,l),
(157,47,o),
(310,47,q),
(375,47,o),
(418,85,q),
(461,123,o),
(461,200,q),
(461,648,l),
(526,648,l),
(525,202,l),
(525,-10,o),
(310,-10,q)
);
},
{
closed = 1;
nodes = (
(431,830,l),
(389,792,o),
(335,755,q),
(267,727,l),
(262,733,o),
(253,741,q),
(244,749,o),
(239,756,q),
(260,770,l),
(320,811,o),
(342.5,833,q),
(365,855,o),
(383,875,q)
);
}
);
width = 612;
}
);
unicode = 218;
},
{
category = Letter;
glyphname = Ucircumflex;
kernLeft = U.2;
kernRight = U;
layers = (
{
layerId = "47a458af-9e79-4f2a-b864-b7c0e255957d";
name = Fore;
shapes = (
{
closed = 1;
nodes = (
(308,-10,o),
(296,-10,q),
(284,-10,o),
(272,-9.5,q),
(260,-9,o),
(235,-5.5,q),
(210,-2,o),
(193,5.5,q),
(176,13,o),
(154.5,29,q),
(133,45,o),
(120,67,q),
(87,120,o),
(87,204,q),
(87,648,l),
(154,648,l),
(154,204,l),
(157,47,o),
(310,47,q),
(375,47,o),
(418,85,q),
(461,123,o),
(461,200,q),
(461,648,l),
(526,648,l),
(525,202,l),
(525,-10,o),
(310,-10,q)
);
},
{
closed = 1;
nodes = (
(200,743,l),
(172,773,l),
(276,879,l),
(336,879,l),
(440,773,l),
(411,743,l),
(306,830,l)
);
}
);
width = 612;
}
);
unicode = 219;
},
{
category = Letter;
glyphname = Udieresis;
kernLeft = U.2;
kernRight = U;
layers = (
{
layerId = "47a458af-9e79-4f2a-b864-b7c0e255957d";
name = Fore;
shapes = (
{
closed = 1;
nodes = (
(308,-10,o),
(296,-10,q),
(284,-10,o),
(272,-9.5,q),
(260,-9,o),
(235,-5.5,q),
(210,-2,o),
(193,5.5,q),
(176,13,o),
(154.5,29,q),
(133,45,o),
(120,67,q),
(87,120,o),
(87,204,q),
(87,648,l),
(154,648,l),
(154,204,l),
(157,47,o),
(310,47,q),
(375,47,o),
(418,85,q),
(461,123,o),
(461,200,q),
(461,648,l),
(526,648,l),
(525,202,l),
(525,-10,o),
(310,-10,q)
);
},
{
closed = 1;
nodes = (
(269,814,l),
(269,740,l),
(197,740,l),
(197,814,l)
);
},
{
closed = 1;
nodes = (
(415,814,l),
(415,740,l),
(343,740,l),
(343,814,l)
);
}
);
width = 612;
}
);
unicode = 220;
},
{
category = Letter;
glyphname = Yacute;
kernLeft = Y.2;
kernRight = Y;
layers = (
{
layerId = "47a458af-9e79-4f2a-b864-b7c0e255957d";
name = Fore;
shapes = (
{
closed = 1;
nodes = (
(236,265,l),
(30,648,l),
(104,648,l),
(269,324,l),
(437,648,l),
(508,648,l),
(303,265,l),
(302,0,l),
(236,0,l)
);
},
{
closed = 1;
nodes = (
(393,830,l),
(351,792,o),
(297,755,q),
(229,727,l),
(224,733,o),
(215,741,q),
(206,749,o),
(201,756,q),
(222,770,l),
(282,811,o),
(304.5,833,q),
(327,855,o),
(345,875,q)
);
}
);
width = 538;
}
);
unicode = 221;
},
{
category = Letter;
glyphname = Thorn;
kernLeft = B.2;
kernRight = Thorn;
layers = (
{
layerId = "47a458af-9e79-4f2a-b864-b7c0e255957d";
name = Fore;
shapes = (
{
closed = 1;
nodes = (
(204,53,l),
(158,53,l),
(158,-201,l),
(91,-201,l),
(91,660,l),
(158,660,l),
(158,447,l),
(281,447,l),
(334,447,o),
(370.5,440.5,q),
(407,434,o),
(441,414,q),
(509,376,o),
(509,252,q),
(509,149,o),
(460,102,q),
(439,81,o),
(404,69.5,q),
(369,58,o),
(339,55,q),
(309,52,o),
(264,52,q)
);
},
{
closed = 1;
nodes = (
(300,109,l),
(381,109,o),
(410,134.5,q),
(439,160,o),
(439,248,q),
(439,336,o),
(402.5,361,q),
(366,386,o),
(269,386,q),
(158,386,l),
(158,110,l),
(224,110,l)
);
}
);
width = 561;
}
);
unicode = 222;
},
{
category = Letter;
glyphname = germandbls;
kernLeft = f.2;
kernRight = germandbls;
layers = (
{
layerId = "47a458af-9e79-4f2a-b864-b7c0e255957d";
name = Fore;
shapes = (
{
closed = 1;
nodes = (
(90,572,l),
(90,657,o),
(140.5,697.5,q),
(191,738,o),
(274.5,738,q),
(358,738,o),
(412,699,q),
(466,660,o),
(466,594,q),
(466,515,o),
(414,478,q),
(392,463,o),
(370,450,q),
(318,418,o),
(318,370,q),
(318,346,o),
(344.5,330.5,q),
(371,315,o),
(408.5,303.5,q),
(446,292,o),
(483.5,275.5,q),
(521,259,o),
(547.5,223,q),
(574,187,o),
(574,136,q),
(574,85,o),
(544,52,q),
(488,-8,o),
(386,-8,q),
(306,-8,o),
(242,19,q),
(257,68,l),
(319,44,o),
(373,44,q),
(427,44,o),
(465.5,66.5,q),
(504,89,o),
(504,132,q),
(504,175,o),
(478,201,q),
(452,227,o),
(415,239.5,q),
(378,252,o),
(341.5,264,q),
(305,276,o),
(279,301,q),
(253,326,o),
(253,365.5,q),
(253,405,o),
(268,432.5,q),
(283,460,o),
(304.5,475.5,q),
(326,491,o),
(347,504,q),
(398,537,o),
(398,583,q),
(398,629,o),
(362.5,658.5,q),
(327,688,o),
(272.5,688,q),
(218,688,o),
(185.5,660,q),
(153,632,o),
(153,572,q),
(153,-74,l),
(118,-198,l),
(115,-201,l),
(69,-201,l),
(91,-74,l),
(91,438,l),
(91,443,o),
(78,443,q),
(44,443,l),
(45,472,l),
(86,491,o),
(91,493,q),
(91,494,l)
);
}
);
width = 611;
}
);
unicode = 223;
},
{
category = Letter;
glyphname = agrave;
kernLeft = a.2;
kernRight = a;
layers = (
{
layerId = "47a458af-9e79-4f2a-b864-b7c0e255957d";
name = Fore;
shapes = (
{
closed = 1;
nodes = (
(407,180,l),
(407,152,o),
(408,128,q),
(430,6,l),
(431,1,l),
(387,1,l),
(383,4,l),
(359,62,l),
(266,-2,o),
(176,-5,q),
(113,-5,o),
(79.5,28.5,q),
(46,62,o),
(46,123,q),
(46,207,o),
(93,237,q),
(140,267,o),
(222,267,q),
(232,267,o),
(343,261,q),
(343,326,l),
(343,392,o),
(318.5,417.5,q),
(294,443,o),
(250,443,q),
(206,443,o),
(80,416,q),
(71,464,l),
(195,501,o),
(249,501,q),
(331,501,o),
(379,450,q),
(408,419,o),
(408,299,q)
);
},
{
closed = 1;
nodes = (
(238,215,l),
(158,215,o),
(134,199,q),
(110,183,o),
(110,135.5,q),
(110,88,o),
(126,70.5,q),
(142,53,o),
(181.5,53,q),
(221,53,o),
(274.5,69,q),
(328,85,o),
(343,106,q),
(343,211,l)
);
},
{
closed = 1;
nodes = (
(191,716,l),
(229,674,o),
(254,655,q),
(289,628,o),
(314,611,q),
(335,597,l),
(330,590,o),
(321,582,q),
(312,574,o),
(307,568,q),
(239,596,l),
(185,633,o),
(143,671,q)
);
}
);
width = 486;
}
);
unicode = 224;
},
{
category = Letter;
glyphname = aacute;
kernLeft = a.2;
kernRight = a;
layers = (
{
layerId = "47a458af-9e79-4f2a-b864-b7c0e255957d";
name = Fore;
shapes = (
{
closed = 1;
nodes = (
(407,180,l),
(407,152,o),
(408,128,q),
(430,6,l),
(431,1,l),
(387,1,l),
(383,4,l),
(359,62,l),
(266,-2,o),
(176,-5,q),
(113,-5,o),
(79.5,28.5,q),
(46,62,o),
(46,123,q),
(46,207,o),
(93,237,q),
(140,267,o),
(222,267,q),
(232,267,o),
(343,261,q),
(343,326,l),
(343,392,o),
(318.5,417.5,q),
(294,443,o),
(250,443,q),
(206,443,o),
(80,416,q),
(71,464,l),
(195,501,o),
(249,501,q),
(331,501,o),
(379,450,q),
(408,419,o),
(408,299,q)
);
},
{
closed = 1;
nodes = (
(238,215,l),
(158,215,o),
(134,199,q),
(110,183,o),
(110,135.5,q),
(110,88,o),
(126,70.5,q),
(142,53,o),
(181.5,53,q),
(221,53,o),
(274.5,69,q),
(328,85,o),
(343,106,q),
(343,211,l)
);
},
{
closed = 1;
nodes = (
(335,674,l),
(293,636,o),
(239,599,q),
(171,571,l),
(166,577,o),
(157,585,q),
(148,593,o),
(143,600,q),
(164,614,l),
(224,655,o),
(246.5,677,q),
(269,699,o),
(287,719,q)
);
}
);
width = 486;
}
);
unicode = 225;
},
{
category = Letter;
glyphname = acircumflex;
kernLeft = a.2;
kernRight = a;
layers = (
{
layerId = "47a458af-9e79-4f2a-b864-b7c0e255957d";
name = Fore;
shapes = (
{
closed = 1;
nodes = (
(407,180,l),
(407,152,o),
(408,128,q),
(430,6,l),
(431,1,l),
(387,1,l),
(383,4,l),
(359,62,l),
(266,-2,o),
(176,-5,q),
(113,-5,o),
(79.5,28.5,q),
(46,62,o),
(46,123,q),
(46,207,o),
(93,237,q),
(140,267,o),
(222,267,q),
(232,267,o),
(343,261,q),
(343,326,l),
(343,392,o),
(318.5,417.5,q),
(294,443,o),
(250,443,q),
(206,443,o),
(80,416,q),
(71,464,l),
(195,501,o),
(249,501,q),
(331,501,o),
(379,450,q),
(408,419,o),
(408,299,q)
);
},
{
closed = 1;
nodes = (
(238,215,l),
(158,215,o),
(134,199,q),
(110,183,o),
(110,135.5,q),
(110,88,o),
(126,70.5,q),
(142,53,o),
(181.5,53,q),
(221,53,o),
(274.5,69,q),
(328,85,o),
(343,106,q),
(343,211,l)
);
},
{
closed = 1;
nodes = (
(133,587,l),
(105,617,l),
(209,723,l),
(269,723,l),
(373,617,l),
(344,587,l),
(239,674,l)
);
}
);
width = 486;
}
);
unicode = 226;
},
{
category = Letter;
glyphname = atilde;
kernLeft = a.2;
kernRight = a;
layers = (
{
layerId = "47a458af-9e79-4f2a-b864-b7c0e255957d";
name = Fore;
shapes = (
{
closed = 1;
nodes = (
(407,180,l),
(407,152,o),
(408,128,q),
(430,6,l),
(431,1,l),
(387,1,l),
(383,4,l),
(359,62,l),
(266,-2,o),
(176,-5,q),
(113,-5,o),
(79.5,28.5,q),
(46,62,o),
(46,123,q),
(46,207,o),
(93,237,q),
(140,267,o),
(222,267,q),
(232,267,o),
(343,261,q),
(343,326,l),
(343,392,o),
(318.5,417.5,q),
(294,443,o),
(250,443,q),
(206,443,o),
(80,416,q),
(71,464,l),
(195,501,o),
(249,501,q),
(331,501,o),
(379,450,q),
(408,419,o),
(408,299,q)
);
},
{
closed = 1;
nodes = (
(238,215,l),
(158,215,o),
(134,199,q),
(110,183,o),
(110,135.5,q),
(110,88,o),
(126,70.5,q),
(142,53,o),
(181.5,53,q),
(221,53,o),
(274.5,69,q),
(328,85,o),
(343,106,q),
(343,211,l)
);
},
{
closed = 1;
nodes = (
(321,581,o),
(312,579.5,q),
(303,578,o),
(294.5,578,q),
(286,578,o),
(268,583,q),
(183,603,l),
(108,571,l),
(90,599,l),
(132,634,l),
(153,652,o),
(160.5,653.5,q),
(168,655,o),
(175.5,655,q),
(183,655,o),
(200,651,q),
(295,629,l),
(369,664,l),
(387,635,l),
(340,596,l)
);
}
);
width = 486;
}
);
unicode = 227;
},
{
category = Letter;
glyphname = adieresis;
kernLeft = a.2;
kernRight = a;
layers = (
{
layerId = "47a458af-9e79-4f2a-b864-b7c0e255957d";
name = Fore;
shapes = (
{
closed = 1;
nodes = (
(407,180,l),
(407,152,o),
(408,128,q),
(430,6,l),
(431,1,l),
(387,1,l),
(383,4,l),
(359,62,l),
(266,-2,o),
(176,-5,q),
(113,-5,o),
(79.5,28.5,q),
(46,62,o),
(46,123,q),
(46,207,o),
(93,237,q),
(140,267,o),
(222,267,q),
(232,267,o),
(343,261,q),
(343,326,l),
(343,392,o),
(318.5,417.5,q),
(294,443,o),
(250,443,q),
(206,443,o),
(80,416,q),
(71,464,l),
(195,501,o),
(249,501,q),
(331,501,o),
(379,450,q),
(408,419,o),
(408,299,q)
);
},
{
closed = 1;
nodes = (
(238,215,l),
(158,215,o),
(134,199,q),
(110,183,o),
(110,135.5,q),
(110,88,o),
(126,70.5,q),
(142,53,o),
(181.5,53,q),
(221,53,o),
(274.5,69,q),
(328,85,o),
(343,106,q),
(343,211,l)
);
},
{
closed = 1;
nodes = (
(204,658,l),
(204,584,l),
(132,584,l),
(132,658,l)
);
},
{
closed = 1;
nodes = (
(350,658,l),
(350,584,l),
(278,584,l),
(278,658,l)
);
}
);
width = 486;
}
);
unicode = 228;
},
{
category = Letter;
glyphname = aring;
kernLeft = a.2;
kernRight = a;
layers = (
{
layerId = "47a458af-9e79-4f2a-b864-b7c0e255957d";
name = Fore;
shapes = (
{
closed = 1;
nodes = (
(407,180,l),
(407,152,o),
(408,128,q),
(430,6,l),
(431,1,l),
(387,1,l),
(383,4,l),
(359,62,l),
(266,-2,o),
(176,-5,q),
(113,-5,o),
(79.5,28.5,q),
(46,62,o),
(46,123,q),
(46,207,o),
(93,237,q),
(140,267,o),
(222,267,q),
(232,267,o),
(343,261,q),
(343,326,l),
(343,392,o),
(318.5,417.5,q),
(294,443,o),
(250,443,q),
(206,443,o),
(80,416,q),
(71,464,l),
(195,501,o),
(249,501,q),
(331,501,o),
(379,450,q),
(408,419,o),
(408,299,q)
);
},
{
closed = 1;
nodes = (
(238,215,l),
(158,215,o),
(134,199,q),
(110,183,o),
(110,135.5,q),
(110,88,o),
(126,70.5,q),
(142,53,o),
(181.5,53,q),
(221,53,o),
(274.5,69,q),
(328,85,o),
(343,106,q),
(343,211,l)
);
},
{
closed = 1;
nodes = (
(336,630,o),
(310.5,601,q),
(285,572,o),
(238,572,q),
(191,572,o),
(166.5,600,q),
(142,628,o),
(142,668.5,q),
(142,709,o),
(167,737,q),
(192,765,o),
(239.5,765,q),
(287,765,o),
(311.5,737.5,q),
(336,710,o),
(336,670,q)
);
},
{
closed = 1;
nodes = (
(297,645,o),
(297,669.5,q),
(297,694,o),
(282.5,712.5,q),
(268,731,o),
(239.5,731,q),
(211,731,o),
(196,712.5,q),
(181,694,o),
(181,669,q),
(181,644,o),
(195,625,q),
(209,606,o),
(238,606,q),
(267,606,o),
(282,625.5,q)
);
}
);
width = 486;
}
);
unicode = 229;
},
{
category = Letter;
glyphname = ae;
kernLeft = a.2;
kernRight = e;
layers = (
{
layerId = "47a458af-9e79-4f2a-b864-b7c0e255957d";
name = Fore;
shapes = (
{
closed = 1;
nodes = (
(407,180,l),
(407,152,o),
(408,128,q),
(409,100,l),
(396,87,o),
(367.5,66.5,q),
(339,46,o),
(314,32,q),
(246,-3,o),
(179.5,-4,q),
(113,-5,o),
(79.5,28.5,q),
(46,62,o),
(46,123,q),
(46,207,o),
(93,237,q),
(140,267,o),
(222,267,q),
(232,267,o),
(343,261,q),
(343,326,l),
(343,392,o),
(318.5,417.5,q),
(294,443,o),
(250,443,q),
(206,443,o),
(80,416,q),
(71,464,l),
(195,501,o),
(249,501,q),
(331,501,o),
(379,450,q),
(408,419,o),
(408,299,q)
);
},
{
closed = 1;
nodes = (
(238,215,l),
(158,215,o),
(134,199,q),
(110,183,o),
(110,135.5,q),
(110,88,o),
(126,70.5,q),
(142,53,o),
(189,53,q),
(236,53,o),
(283.5,71.5,q),
(331,90,o),
(350,108,q),
(369,127,l),
(343,211,l)
);
},
{
closed = 1;
nodes = (
(729,285,o),
(723,246,q),
(409,246,l),
(413,136,o),
(446,94.5,q),
(479,53,o),
(563,53,q),
(626,53,o),
(710,80,q),
(716,30,l),
(693,21,o),
(680.5,17.5,q),
(668,14,o),
(654,9.5,q),
(640,5,o),
(633,3,q),
(626,1,o),
(613,-2,q),
(600,-5,o),
(591,-6,q),
(564,-9,o),
(545,-9,q),
(451,-9,o),
(397,57,q),
(343,123,o),
(343,241,q),
(343,306,o),
(359,355.5,q),
(375,405,o),
(397,431.5,q),
(419,458,o),
(450,474,q),
(496,499,o),
(550,501,q),
(729,500,o),
(729,321,q)
);
},
{
closed = 1;
nodes = (
(666,397,o),
(636,421,q),
(606,445,o),
(547,445,q),
(488,445,o),
(450,413.5,q),
(412,382,o),
(411,297,q),
(663,297,l),
(666,320,o),
(666,337,q)
);
}
);
width = 781;
}
);
unicode = 230;
},
{
category = Letter;
glyphname = ccedilla;
kernLeft = c.2;
kernRight = c;
layers = (
{
layerId = "47a458af-9e79-4f2a-b864-b7c0e255957d";
name = Fore;
shapes = (
{
closed = 1;
nodes = (
(175,479,o),
(137.5,453,q),
(100,427,o),
(77,373.5,q),
(54,320,o),
(54,245,q),
(54,85,o),
(124,33,q),
(157,8,o),
(190.5,-1,q),
(224,-10,o),
(269,-10,q),
(356,-10,o),
(421,37,q),
(394,79,l),
(336,43,o),
(285,43,q),
(121,43,o),
(121,245,q),
(121,360,o),
(166,404.5,q),
(211,449,o),
(297,449,q),
(330,449,o),
(385,438,q),
(393,482,l),
(338,501,o),
(292.5,501,q),
(247,501,o),
(211,490,q)
);
},
{
closed = 1;
nodes = (
(278,-5,l),
(278,-64,l),
(236,-174,l),
(233,-178,l),
(189,-178,l),
(218,-64,l),
(218,-5,l)
);
}
);
width = 451;
}
);
unicode = 231;
},
{
category = Letter;
glyphname = egrave;
kernLeft = c.2;
kernRight = e;
layers = (
{
layerId = "47a458af-9e79-4f2a-b864-b7c0e255957d";
name = Fore;
shapes = (
{
closed = 1;
nodes = (
(440,285,o),
(434,246,q),
(120,246,l),
(124,136,o),
(157,94.5,q),
(190,53,o),
(274,53,q),
(337,53,o),
(421,80,q),
(427,30,l),
(404,21,o),
(391.5,17.5,q),
(379,14,o),
(365,9.5,q),
(351,5,o),
(344,3,q),
(337,1,o),
(324,-2,q),
(311,-5,o),
(302,-6,q),
(275,-9,o),
(256,-9,q),
(162,-9,o),
(108,57,q),
(54,123,o),
(54,241,q),
(54,306,o),
(70,355.5,q),
(86,405,o),
(108,431.5,q),
(130,458,o),
(161,474,q),
(207,499,o),
(261,501,q),
(440,500,o),
(440,321,q)
);
},
{
closed = 1;
nodes = (
(377,397,o),
(347,421,q),
(317,445,o),
(258,445,q),
(199,445,o),
(161,413.5,q),
(123,382,o),
(122,297,q),
(374,297,l),
(377,320,o),
(377,337,q)
);
},
{
closed = 1;
nodes = (
(206,716,l),
(244,674,o),
(269,655,q),
(304,628,o),
(330,611,q),
(350,597,l),
(345,590,o),
(336,582,q),
(327,574,o),
(322,568,q),
(254,596,l),
(200,633,o),
(158,671,q)
);
}
);
width = 492;
}
);
unicode = 232;
},
{
category = Letter;
glyphname = eacute;
kernLeft = c.2;
kernRight = e;
layers = (
{
layerId = "47a458af-9e79-4f2a-b864-b7c0e255957d";
name = Fore;
shapes = (
{
closed = 1;
nodes = (
(440,285,o),
(434,246,q),
(120,246,l),
(124,136,o),
(157,94.5,q),
(190,53,o),
(274,53,q),
(337,53,o),
(421,80,q),
(427,30,l),
(404,21,o),
(391.5,17.5,q),
(379,14,o),
(365,9.5,q),
(351,5,o),
(344,3,q),
(337,1,o),
(324,-2,q),
(311,-5,o),
(302,-6,q),
(275,-9,o),
(256,-9,q),
(162,-9,o),
(108,57,q),
(54,123,o),
(54,241,q),
(54,306,o),
(70,355.5,q),
(86,405,o),
(108,431.5,q),
(130,458,o),
(161,474,q),
(207,499,o),
(261,501,q),
(440,500,o),
(440,321,q)
);
},
{
closed = 1;
nodes = (
(377,397,o),
(347,421,q),
(317,445,o),
(258,445,q),
(199,445,o),
(161,413.5,q),
(123,382,o),
(122,297,q),
(374,297,l),
(377,320,o),
(377,337,q)
);
},
{
closed = 1;
nodes = (
(373,674,l),
(331,636,o),
(277,599,q),
(209,571,l),
(204,577,o),
(195,585,q),
(186,593,o),
(181,600,q),
(202,614,l),
(262,655,o),
(284.5,677,q),
(307,699,o),
(325,719,q)
);
}
);
width = 492;
}
);
unicode = 233;
},
{
category = Letter;
glyphname = ecircumflex;
kernLeft = c.2;
kernRight = e;
layers = (
{
layerId = "47a458af-9e79-4f2a-b864-b7c0e255957d";
name = Fore;
shapes = (
{
closed = 1;
nodes = (
(440,285,o),
(434,246,q),
(120,246,l),
(124,136,o),
(157,94.5,q),
(190,53,o),
(274,53,q),
(337,53,o),
(421,80,q),
(427,30,l),
(404,21,o),
(391.5,17.5,q),
(379,14,o),
(365,9.5,q),
(351,5,o),
(344,3,q),
(337,1,o),
(324,-2,q),
(311,-5,o),
(302,-6,q),
(275,-9,o),
(256,-9,q),
(162,-9,o),
(108,57,q),
(54,123,o),
(54,241,q),
(54,306,o),
(70,355.5,q),
(86,405,o),
(108,431.5,q),
(130,458,o),
(161,474,q),
(207,499,o),
(261,501,q),
(440,500,o),
(440,321,q)
);
},
{
closed = 1;
nodes = (
(377,397,o),
(347,421,q),
(317,445,o),
(258,445,q),
(199,445,o),
(161,413.5,q),
(123,382,o),
(122,297,q),
(374,297,l),
(377,320,o),
(377,337,q)
);
},
{
closed = 1;
nodes = (
(148,587,l),
(120,617,l),
(224,723,l),
(284,723,l),
(388,617,l),
(359,587,l),
(254,674,l)
);
}
);
width = 492;
}
);
unicode = 234;
},
{
category = Letter;
glyphname = edieresis;
kernLeft = c.2;
kernRight = e;
layers = (
{
layerId = "47a458af-9e79-4f2a-b864-b7c0e255957d";
name = Fore;
shapes = (
{
closed = 1;
nodes = (
(440,285,o),
(434,246,q),
(120,246,l),
(124,136,o),
(157,94.5,q),
(190,53,o),
(274,53,q),
(337,53,o),
(421,80,q),
(427,30,l),
(404,21,o),
(391.5,17.5,q),
(379,14,o),
(365,9.5,q),
(351,5,o),
(344,3,q),
(337,1,o),
(324,-2,q),
(311,-5,o),
(302,-6,q),
(275,-9,o),
(256,-9,q),
(162,-9,o),
(108,57,q),
(54,123,o),
(54,241,q),
(54,306,o),
(70,355.5,q),
(86,405,o),
(108,431.5,q),
(130,458,o),
(161,474,q),
(207,499,o),
(261,501,q),
(440,500,o),
(440,321,q)
);
},
{
closed = 1;
nodes = (
(377,397,o),
(347,421,q),
(317,445,o),
(258,445,q),
(199,445,o),
(161,413.5,q),
(123,382,o),
(122,297,q),
(374,297,l),
(377,320,o),
(377,337,q)
);
},
{
closed = 1;
nodes = (
(218,658,l),
(218,584,l),
(146,584,l),
(146,658,l)
);
},
{
closed = 1;
nodes = (
(364,658,l),
(364,584,l),
(292,584,l),
(292,658,l)
);
}
);
width = 492;
}
);
unicode = 235;
},
{
category = Letter;
glyphname = igrave;
kernLeft = i.2;
kernRight = i;
layers = (
{
layerId = "47a458af-9e79-4f2a-b864-b7c0e255957d";
name = Fore;
shapes = (
{
closed = 1;
nodes = (
(140,492,l),
(140,0,l),
(78,0,l),
(78,492,l)
);
},
{
closed = 1;
nodes = (
(59,716,l),
(97,674,o),
(122,655,q),
(157,628,o),
(182,611,q),
(203,597,l),
(198,590,o),
(189,582,q),
(180,574,o),
(175,568,q),
(107,596,l),
(53,633,o),
(11,671,q)
);
}
);
width = 218;
}
);
unicode = 236;
},
{
category = Letter;
glyphname = iacute;
kernLeft = i.2;
kernRight = i;
layers = (
{
layerId = "47a458af-9e79-4f2a-b864-b7c0e255957d";
name = Fore;
shapes = (
{
closed = 1;
nodes = (
(143,493,l),
(143,1,l),
(78,1,l),
(78,493,l)
);
},
{
closed = 1;
nodes = (
(246,664,l),
(204,627,o),
(149,590,q),
(81,562,l),
(76,569,o),
(67,577,q),
(58,585,o),
(53,591,q),
(54,592,o),
(68,601,q),
(82,610,o),
(86,613,q),
(90,616,o),
(103.5,625,q),
(117,634,o),
(125,641,q),
(133,648,o),
(146,659,q),
(163,673,o),
(197,710,q)
);
}
);
width = 221;
}
);
unicode = 237;
},
{
category = Letter;
glyphname = icircumflex;
kernLeft = i.2;
kernRight = i;
layers = (
{
layerId = "47a458af-9e79-4f2a-b864-b7c0e255957d";
name = Fore;
shapes = (
{
closed = 1;
nodes = (
(143,493,l),
(143,1,l),
(78,1,l),
(78,493,l)
);
},
{
closed = 1;
nodes = (
(5,587,l),
(-23,617,l),
(81,723,l),
(141,723,l),
(245,617,l),
(216,587,l),
(111,674,l)
);
}
);
width = 221;
}
);
unicode = 238;
},
{
category = Letter;
glyphname = idieresis;
kernLeft = i.2;
kernRight = i;
layers = (
{
layerId = "47a458af-9e79-4f2a-b864-b7c0e255957d";
name = Fore;
shapes = (
{
closed = 1;
nodes = (
(143,493,l),
(143,1,l),
(78,1,l),
(78,493,l)
);
},
{
closed = 1;
nodes = (
(81,658,l),
(81,584,l),
(9,584,l),
(9,658,l)
);
},
{
closed = 1;
nodes = (
(227,658,l),
(227,584,l),
(155,584,l),
(155,658,l)
);
}
);
width = 221;
}
);
unicode = 239;
},
{
category = Letter;
glyphname = eth;
kernLeft = eth.2;
kernRight = eth;
layers = (
{
layerId = "47a458af-9e79-4f2a-b864-b7c0e255957d";
name = Fore;
shapes = (
{
closed = 1;
nodes = (
(419,66,o),
(398,42,q),
(351,-8,o),
(251.5,-8,q),
(152,-8,o),
(104,55.5,q),
(56,119,o),
(56,222,q),
(56,325,o),
(99,383,q),
(142,441,o),
(207.5,441,q),
(273,441,o),
(375,412,q),
(369,495,o),
(349,538.5,q),
(329,582,o),
(286,612,q),
(216,538,l),
(177,575,l),
(237,640,l),
(115,695,l),
(135,741,l),
(266,695,l),
(269,693,o),
(282,688,q),
(339,748,l),
(378,711,l),
(331,661,l),
(393,618,o),
(421,539.5,q),
(449,461,o),
(449,321,q),
(449,181,o),
(434,123.5,q)
);
},
{
closed = 1;
nodes = (
(378,322,l),
(378,355,l),
(276,381,o),
(225,381,q),
(120,381,o),
(120,216,q),
(120,132,o),
(147,92,q),
(174,52,o),
(235,52,q),
(327,52,o),
(354,99,q),
(365,117,o),
(370,130,q),
(379,155,o),
(379,216,q)
);
}
);
width = 518;
}
);
unicode = 240;
},
{
category = Letter;
glyphname = ntilde;
kernLeft = m;
kernRight = h;
layers = (
{
layerId = "47a458af-9e79-4f2a-b864-b7c0e255957d";
name = Fore;
shapes = (
{
closed = 1;
nodes = (
(384,1,l),
(384,352,l),
(383,401,o),
(357,422,q),
(331,443,o),
(282.5,443,q),
(234,443,o),
(193.5,424,q),
(153,405,o),
(146,388,q),
(146,1,l),
(80,1,l),
(80,365,l),
(63,487,l),
(108,487,l),
(111,485,l),
(130,434,l),
(165,458,o),
(186,470,q),
(242,503,o),
(307,503,q),
(447,503,o),
(450,352,q),
(450,1,l)
);
},
{
closed = 1;
nodes = (
(342,582,o),
(333,580.5,q),
(324,579,o),
(315.5,579,q),
(307,579,o),
(289,584,q),
(204,604,l),
(129,572,l),
(111,600,l),
(153,635,l),
(174,653,o),
(181.5,654.5,q),
(189,656,o),
(196.5,656,q),
(204,656,o),
(221,652,q),
(316,630,l),
(390,665,l),
(408,636,l),
(361,597,l)
);
}
);
width = 525;
}
);
unicode = 241;
},
{
category = Letter;
glyphname = ograve;
kernLeft = o.2;
kernRight = o;
layers = (
{
layerId = "47a458af-9e79-4f2a-b864-b7c0e255957d";
name = Fore;
shapes = (
{
closed = 1;
nodes = (
(291,444,o),
(253,444,q),
(215,444,o),
(186.5,431.5,q),
(158,419,o),
(144.5,389.5,q),
(131,360,o),
(127,329.5,q),
(123,299,o),
(123,246,q),
(123,133,o),
(148.5,90,q),
(174,47,o),
(261,47,q),
(308,47,o),
(337,59,q),
(366,71,o),
(380,99.5,q),
(394,128,o),
(398,159.5,q),
(402,191,o),
(402,234.5,q),
(402,278,o),
(401.5,296.5,q),
(401,315,o),
(398,339.5,q),
(395,364,o),
(389.5,377,q),
(384,390,o),
(374,405,q),
(364,420,o),
(349,427,q),
(334,434,o),
(312.5,439,q)
);
},
{
closed = 1;
nodes = (
(428,459,o),
(449,404,q),
(470,349,o),
(470,262,q),
(470,175,o),
(451.5,123,q),
(433,71,o),
(402,43,q),
(342,-11,o),
(262,-11,q),
(145,-11,o),
(100,44,q),
(55,99,o),
(55,245,q),
(55,315,o),
(74,367,q),
(93,419,o),
(125,446,q),
(187,500,o),
(264.5,500,q),
(342,500,o),
(385,479.5,q)
);
},
{
closed = 1;
nodes = (
(206,716,l),
(244,674,o),
(269,655,q),
(304,628,o),
(330,611,q),
(350,597,l),
(345,590,o),
(336,582,q),
(327,574,o),
(322,568,q),
(254,596,l),
(200,633,o),
(158,671,q)
);
}
);
width = 526;
}
);
unicode = 242;
},
{
category = Letter;
glyphname = oacute;
kernLeft = o.2;
kernRight = o;
layers = (
{
layerId = "47a458af-9e79-4f2a-b864-b7c0e255957d";
name = Fore;
shapes = (
{
closed = 1;
nodes = (
(291,444,o),
(253,444,q),
(215,444,o),
(186.5,431.5,q),
(158,419,o),
(144.5,389.5,q),
(131,360,o),
(127,329.5,q),
(123,299,o),
(123,246,q),
(123,133,o),
(148.5,90,q),
(174,47,o),
(261,47,q),
(308,47,o),
(337,59,q),
(366,71,o),
(380,99.5,q),
(394,128,o),
(398,159.5,q),
(402,191,o),
(402,234.5,q),
(402,278,o),
(401.5,296.5,q),
(401,315,o),
(398,339.5,q),
(395,364,o),
(389.5,377,q),
(384,390,o),
(374,405,q),
(364,420,o),
(349,427,q),
(334,434,o),
(312.5,439,q)
);
},
{
closed = 1;
nodes = (
(428,459,o),
(449,404,q),
(470,349,o),
(470,262,q),
(470,175,o),
(451.5,123,q),
(433,71,o),
(402,43,q),
(342,-11,o),
(262,-11,q),
(145,-11,o),
(100,44,q),
(55,99,o),
(55,245,q),
(55,315,o),
(74,367,q),
(93,419,o),
(125,446,q),
(187,500,o),
(264.5,500,q),
(342,500,o),
(385,479.5,q)
);
},
{
closed = 1;
nodes = (
(368,674,l),
(326,636,o),
(272,599,q),
(204,571,l),
(199,577,o),
(190,585,q),
(181,593,o),
(176,600,q),
(196,614,l),
(257,655,o),
(279.5,677,q),
(302,699,o),
(320,719,q)
);
}
);
width = 526;
}
);
unicode = 243;
},
{
category = Letter;
glyphname = ocircumflex;
kernLeft = o.2;
kernRight = o;
layers = (
{
layerId = "47a458af-9e79-4f2a-b864-b7c0e255957d";
name = Fore;
shapes = (
{
closed = 1;
nodes = (
(291,444,o),
(253,444,q),
(215,444,o),
(186.5,431.5,q),
(158,419,o),
(144.5,389.5,q),
(131,360,o),
(127,329.5,q),
(123,299,o),
(123,246,q),
(123,133,o),
(148.5,90,q),
(174,47,o),
(261,47,q),
(308,47,o),
(337,59,q),
(366,71,o),
(380,99.5,q),
(394,128,o),
(398,159.5,q),
(402,191,o),
(402,234.5,q),
(402,278,o),
(401.5,296.5,q),
(401,315,o),
(398,339.5,q),
(395,364,o),
(389.5,377,q),
(384,390,o),
(374,405,q),
(364,420,o),
(349,427,q),
(334,434,o),
(312.5,439,q)
);
},
{
closed = 1;
nodes = (
(428,459,o),
(449,404,q),
(470,349,o),
(470,262,q),
(470,175,o),
(451.5,123,q),
(433,71,o),
(402,43,q),
(342,-11,o),
(262,-11,q),
(145,-11,o),
(100,44,q),
(55,99,o),
(55,245,q),
(55,315,o),
(74,367,q),
(93,419,o),
(125,446,q),
(187,500,o),
(264.5,500,q),
(342,500,o),
(385,479.5,q)
);
},
{
closed = 1;
nodes = (
(148,587,l),
(120,617,l),
(224,723,l),
(284,723,l),
(388,617,l),
(359,587,l),
(254,674,l)
);
}
);
width = 526;
}
);
unicode = 244;
},
{
category = Letter;
glyphname = otilde;
kernLeft = o.2;
kernRight = o;
layers = (
{
layerId = "47a458af-9e79-4f2a-b864-b7c0e255957d";
name = Fore;
shapes = (
{
closed = 1;
nodes = (
(291,444,o),
(253,444,q),
(215,444,o),
(186.5,431.5,q),
(158,419,o),
(144.5,389.5,q),
(131,360,o),
(127,329.5,q),
(123,299,o),
(123,246,q),
(123,133,o),
(148.5,90,q),
(174,47,o),
(261,47,q),
(308,47,o),
(337,59,q),
(366,71,o),
(380,99.5,q),
(394,128,o),
(398,159.5,q),
(402,191,o),
(402,234.5,q),
(402,278,o),
(401.5,296.5,q),
(401,315,o),
(398,339.5,q),
(395,364,o),
(389.5,377,q),
(384,390,o),
(374,405,q),
(364,420,o),
(349,427,q),
(334,434,o),
(312.5,439,q)
);
},
{
closed = 1;
nodes = (
(428,459,o),
(449,404,q),
(470,349,o),
(470,262,q),
(470,175,o),
(451.5,123,q),
(433,71,o),
(402,43,q),
(342,-11,o),
(262,-11,q),
(145,-11,o),
(100,44,q),
(55,99,o),
(55,245,q),
(55,315,o),
(74,367,q),
(93,419,o),
(125,446,q),
(187,500,o),
(264.5,500,q),
(342,500,o),
(385,479.5,q)
);
},
{
closed = 1;
nodes = (
(337,581,o),
(328,579.5,q),
(319,578,o),
(310.5,578,q),
(302,578,o),
(284,583,q),
(199,603,l),
(124,571,l),
(106,599,l),
(148,634,l),
(169,652,o),
(176.5,653.5,q),
(184,655,o),
(191.5,655,q),
(199,655,o),
(216,651,q),
(311,629,l),
(385,664,l),
(403,635,l),
(356,596,l)
);
}
);
width = 526;
}
);
unicode = 245;
},
{
category = Letter;
glyphname = odieresis;
kernLeft = o.2;
kernRight = o;
layers = (
{
layerId = "47a458af-9e79-4f2a-b864-b7c0e255957d";
name = Fore;
shapes = (
{
closed = 1;
nodes = (
(291,444,o),
(253,444,q),
(215,444,o),
(186.5,431.5,q),
(158,419,o),
(144.5,389.5,q),
(131,360,o),
(127,329.5,q),
(123,299,o),
(123,246,q),
(123,133,o),
(148.5,90,q),
(174,47,o),
(261,47,q),
(308,47,o),
(337,59,q),
(366,71,o),
(380,99.5,q),
(394,128,o),
(398,159.5,q),
(402,191,o),
(402,234.5,q),
(402,278,o),
(401.5,296.5,q),
(401,315,o),
(398,339.5,q),
(395,364,o),
(389.5,377,q),
(384,390,o),
(374,405,q),
(364,420,o),
(349,427,q),
(334,434,o),
(312.5,439,q)
);
},
{
closed = 1;
nodes = (
(428,459,o),
(449,404,q),
(470,349,o),
(470,262,q),
(470,175,o),
(451.5,123,q),
(433,71,o),
(402,43,q),
(342,-11,o),
(262,-11,q),
(145,-11,o),
(100,44,q),
(55,99,o),
(55,245,q),
(55,315,o),
(74,367,q),
(93,419,o),
(125,446,q),
(187,500,o),
(264.5,500,q),
(342,500,o),
(385,479.5,q)
);
},
{
closed = 1;
nodes = (
(218,658,l),
(218,584,l),
(146,584,l),
(146,658,l)
);
},
{
closed = 1;
nodes = (
(364,658,l),
(364,584,l),
(292,584,l),
(292,658,l)
);
}
);
width = 526;
}
);
unicode = 246;
},
{
category = Letter;
glyphname = divide;
layers = (
{
layerId = "47a458af-9e79-4f2a-b864-b7c0e255957d";
name = Fore;
shapes = (
{
closed = 1;
nodes = (
(67,328,l),
(460,328,l),
(460,269,l),
(67,269,l)
);
},
{
closed = 1;
nodes = (
(306,410,l),
(221,410,l),
(222,501,l),
(306,501,l)
);
},
{
closed = 1;
nodes = (
(306,95,l),
(221,95,l),
(222,186,l),
(306,186,l)
);
}
);
width = 527;
}
);
unicode = 247;
},
{
category = Letter;
glyphname = oslash;
kernLeft = o.2;
kernRight = o;
layers = (
{
layerId = "47a458af-9e79-4f2a-b864-b7c0e255957d";
name = Fore;
shapes = (
{
closed = 1;
nodes = (
(375,556,l),
(428,533,l),
(158,-74,l),
(104,-51,l)
);
},
{
closed = 1;
nodes = (
(291,444,o),
(253,444,q),
(215,444,o),
(186.5,431.5,q),
(158,419,o),
(144.5,389.5,q),
(131,360,o),
(127,329.5,q),
(123,299,o),
(123,246,q),
(123,133,o),
(148.5,90,q),
(174,47,o),
(261,47,q),
(308,47,o),
(337,59,q),
(366,71,o),
(380,99.5,q),
(394,128,o),
(398,159.5,q),
(402,191,o),
(402,234.5,q),
(402,278,o),
(401.5,296.5,q),
(401,315,o),
(398,339.5,q),
(395,364,o),
(389.5,377,q),
(384,390,o),
(374,405,q),
(364,420,o),
(349,427,q),
(334,434,o),
(312.5,439,q)
);
},
{
closed = 1;
nodes = (
(428,459,o),
(449,404,q),
(470,349,o),
(470,262,q),
(470,175,o),
(451.5,123,q),
(433,71,o),
(402,43,q),
(342,-11,o),
(262,-11,q),
(145,-11,o),
(100,44,q),
(55,99,o),
(55,245,q),
(55,315,o),
(74,367,q),
(93,419,o),
(125,446,q),
(187,500,o),
(264.5,500,q),
(342,500,o),
(385,479.5,q)
);
}
);
width = 526;
}
);
unicode = 248;
},
{
category = Letter;
glyphname = ugrave;
kernLeft = u.2;
kernRight = u;
layers = (
{
layerId = "47a458af-9e79-4f2a-b864-b7c0e255957d";
name = Fore;
shapes = (
{
closed = 1;
nodes = (
(140,492,l),
(140,141,l),
(141,91,o),
(167.5,71,q),
(194,51,o),
(244.5,51,q),
(295,51,o),
(333.5,70,q),
(372,89,o),
(379,106,q),
(379,492,l),
(443,492,l),
(443,129,l),
(461,0,l),
(419,0,l),
(416,3,l),
(395,59,l),
(356,33,o),
(339,22.5,q),
(322,12,o),
(289.5,1.5,q),
(257,-9,o),
(221,-9,q),
(78,-9,o),
(75,142,q),
(75,492,l)
);
},
{
closed = 1;
nodes = (
(221,716,l),
(259,674,o),
(284,655,q),
(319,628,o),
(344,611,q),
(365,597,l),
(360,590,o),
(351,582,q),
(342,574,o),
(337,568,q),
(269,596,l),
(215,633,o),
(173,671,q)
);
}
);
width = 524;
}
);
unicode = 249;
},
{
category = Letter;
glyphname = uacute;
kernLeft = u.2;
kernRight = u;
layers = (
{
layerId = "47a458af-9e79-4f2a-b864-b7c0e255957d";
name = Fore;
shapes = (
{
closed = 1;
nodes = (
(140,492,l),
(140,141,l),
(141,91,o),
(167.5,71,q),
(194,51,o),
(244.5,51,q),
(295,51,o),
(333.5,70,q),
(372,89,o),
(379,106,q),
(379,492,l),
(443,492,l),
(443,129,l),
(461,0,l),
(419,0,l),
(416,3,l),
(395,59,l),
(356,33,o),
(339,22.5,q),
(322,12,o),
(289.5,1.5,q),
(257,-9,o),
(221,-9,q),
(78,-9,o),
(75,142,q),
(75,492,l)
);
},
{
closed = 1;
nodes = (
(396,674,l),
(354,636,o),
(300,599,q),
(232,571,l),
(227,577,o),
(218,585,q),
(209,593,o),
(204,600,q),
(224,614,l),
(285,655,o),
(307.5,677,q),
(330,699,o),
(348,719,q)
);
}
);
width = 524;
}
);
unicode = 250;
},
{
category = Letter;
glyphname = ucircumflex;
kernLeft = u.2;
kernRight = u;
layers = (
{
layerId = "47a458af-9e79-4f2a-b864-b7c0e255957d";
name = Fore;
shapes = (
{
closed = 1;
nodes = (
(140,492,l),
(140,141,l),
(141,91,o),
(167.5,71,q),
(194,51,o),
(244.5,51,q),
(295,51,o),
(333.5,70,q),
(372,89,o),
(379,106,q),
(379,492,l),
(443,492,l),
(443,129,l),
(461,0,l),
(419,0,l),
(416,3,l),
(395,59,l),
(356,33,o),
(339,22.5,q),
(322,12,o),
(289.5,1.5,q),
(257,-9,o),
(221,-9,q),
(78,-9,o),
(75,142,q),
(75,492,l)
);
},
{
closed = 1;
nodes = (
(163,587,l),
(135,617,l),
(239,723,l),
(299,723,l),
(403,617,l),
(374,587,l),
(269,674,l)
);
}
);
width = 524;
}
);
unicode = 251;
},
{
category = Letter;
glyphname = udieresis;
kernLeft = u.2;
kernRight = u;
layers = (
{
layerId = "47a458af-9e79-4f2a-b864-b7c0e255957d";
name = Fore;
shapes = (
{
closed = 1;
nodes = (
(140,492,l),
(140,141,l),
(141,91,o),
(167.5,71,q),
(194,51,o),
(244.5,51,q),
(295,51,o),
(333.5,70,q),
(372,89,o),
(379,106,q),
(379,492,l),
(443,492,l),
(443,129,l),
(461,0,l),
(419,0,l),
(416,3,l),
(395,59,l),
(356,33,o),
(339,22.5,q),
(322,12,o),
(289.5,1.5,q),
(257,-9,o),
(221,-9,q),
(78,-9,o),
(75,142,q),
(75,492,l)
);
},
{
closed = 1;
nodes = (
(226,658,l),
(226,584,l),
(154,584,l),
(154,658,l)
);
},
{
closed = 1;
nodes = (
(372,658,l),
(372,584,l),
(300,584,l),
(300,658,l)
);
}
);
width = 524;
}
);
unicode = 252;
},
{
category = Letter;
glyphname = yacute;
kernLeft = y.2;
kernRight = y;
layers = (
{
layerId = "47a458af-9e79-4f2a-b864-b7c0e255957d";
name = Fore;
shapes = (
{
closed = 1;
nodes = (
(55,-154,o),
(80,-154,q),
(159,-152,o),
(186,-81,q),
(216,-1,l),
(25,492,l),
(97,492,l),
(249,70,l),
(398,492,l),
(468,492,l),
(248,-101,l),
(207,-202,o),
(98,-202,q),
(52,-202,o),
(-4,-184,q),
(19,-144,l)
);
},
{
closed = 1;
nodes = (
(352,674,l),
(310,636,o),
(256,599,q),
(188,571,l),
(183,577,o),
(174,585,q),
(165,593,o),
(160,600,q),
(180,614,l),
(241,655,o),
(263.5,677,q),
(286,699,o),
(304,719,q)
);
}
);
width = 497;
}
);
unicode = 253;
},
{
category = Letter;
glyphname = thorn;
kernLeft = h.2;
kernRight = b;
layers = (
{
layerId = "47a458af-9e79-4f2a-b864-b7c0e255957d";
name = Fore;
shapes = (
{
closed = 1;
nodes = (
(78,736,l),
(140,736,l),
(140,447,l),
(200,500,o),
(263.5,500,q),
(327,500,o),
(365.5,481.5,q),
(404,463,o),
(423,426,q),
(457,361,o),
(457,252,q),
(457,183,o),
(440,131,q),
(423,79,o),
(399.5,53,q),
(376,27,o),
(346,11,q),
(303,-12,o),
(252.5,-12,q),
(202,-12,o),
(140,13,q),
(140,-201,l),
(78,-201,l)
);
},
{
closed = 1;
nodes = (
(196,47,o),
(246,47,q),
(296,47,o),
(322,59.5,q),
(348,72,o),
(361,88,q),
(374,104,o),
(380,134,q),
(389,174,o),
(389,238,q),
(389,357,o),
(369,399,q),
(349,441,o),
(269,441,q),
(189,441,o),
(140,385,q),
(140,67,l)
);
}
);
width = 512;
}
);
unicode = 254;
},
{
category = Letter;
glyphname = ydieresis;
kernLeft = y.2;
kernRight = y;
layers = (
{
layerId = "47a458af-9e79-4f2a-b864-b7c0e255957d";
name = Fore;
shapes = (
{
closed = 1;
nodes = (
(55,-154,o),
(80,-154,q),
(159,-152,o),
(186,-81,q),
(216,-1,l),
(25,492,l),
(97,492,l),
(249,70,l),
(398,492,l),
(468,492,l),
(248,-101,l),
(207,-202,o),
(98,-202,q),
(52,-202,o),
(-4,-184,q),
(19,-144,l)
);
},
{
closed = 1;
nodes = (
(206,658,l),
(206,584,l),
(134,584,l),
(134,658,l)
);
},
{
closed = 1;
nodes = (
(352,658,l),
(352,584,l),
(280,584,l),
(280,658,l)
);
}
);
width = 497;
}
);
unicode = 255;
},
{
category = Letter;
glyphname = dotlessi;
kernLeft = i.2;
kernRight = i;
layers = (
{
layerId = "47a458af-9e79-4f2a-b864-b7c0e255957d";
name = Fore;
shapes = (
{
closed = 1;
nodes = (
(140,492,l),
(140,0,l),
(78,0,l),
(78,492,l)
);
}
);
width = 218;
}
);
unicode = 305;
},
{
category = Letter;
glyphname = Lslash;
kernLeft = B.2;
kernRight = L;
layers = (
{
layerId = "47a458af-9e79-4f2a-b864-b7c0e255957d";
name = Fore;
shapes = (
{
closed = 1;
nodes = (
(31,343,l),
(117,343,l),
(117,648,l),
(183,648,l),
(182,343,l),
(313,343,l),
(313,284,l),
(182,284,l),
(182,56,l),
(470,56,l),
(470,0,l),
(118,0,l),
(118,1,l),
(117,1,l),
(117,284,l),
(31,284,l)
);
}
);
width = 494;
}
);
unicode = 321;
},
{
category = Letter;
glyphname = lslash;
kernLeft = l.2;
kernRight = l;
layers = (
{
layerId = "47a458af-9e79-4f2a-b864-b7c0e255957d";
name = Fore;
shapes = (
{
closed = 1;
nodes = (
(30,343,l),
(127,343,l),
(127,736,l),
(189,736,l),
(189,343,l),
(312,343,l),
(312,284,l),
(189,284,l),
(189,119,l),
(214,-9,l),
(168,-9,l),
(164,-5,l),
(127,119,l),
(127,284,l),
(30,284,l)
);
}
);
width = 343;
}
);
unicode = 322;
},
{
category = Letter;
glyphname = OE;
kernLeft = C.2;
kernRight = E;
layers = (
{
layerId = "47a458af-9e79-4f2a-b864-b7c0e255957d";
name = Fore;
shapes = (
{
closed = 1;
nodes = (
(311,0,l),
(259,0,o),
(225.5,5,q),
(192,10,o),
(158,29,q),
(124,48,o),
(105.5,83,q),
(87,118,o),
(75,178.5,q),
(63,239,o),
(63,327,q),
(63,415,o),
(85,480.5,q),
(107,546,o),
(144,581,q),
(215,648,o),
(310,648,q),
(750,648,l),
(743,592,l),
(491,592,l),
(553,527,o),
(556,363,q),
(720,363,l),
(720,307,l),
(557,307,l),
(552,136,o),
(466,56,q),
(761,56,l),
(761,0,l)
);
},
{
closed = 1;
nodes = (
(206,589,o),
(168.5,529,q),
(131,469,o),
(131,327,q),
(131,239,o),
(141,186,q),
(151,133,o),
(176.5,105,q),
(202,77,o),
(235,68,q),
(268,59,o),
(324,59,q),
(413,59,o),
(451,121,q),
(489,183,o),
(489,328,q),
(489,481,o),
(459,525,q),
(428,571,o),
(370,582,q),
(337,589,o),
(292,589,q)
);
}
);
width = 809;
}
);
unicode = 338;
},
{
category = Letter;
glyphname = oe;
kernLeft = o.2;
kernRight = e;
layers = (
{
layerId = "47a458af-9e79-4f2a-b864-b7c0e255957d";
name = Fore;
shapes = (
{
closed = 1;
nodes = (
(790,285,o),
(784,246,q),
(470,246,l),
(474,136,o),
(507,94.5,q),
(540,53,o),
(624,53,q),
(687,53,o),
(771,80,q),
(777,30,l),
(754,21,o),
(741.5,17.5,q),
(729,14,o),
(715,9.5,q),
(701,5,o),
(694,3,q),
(687,1,o),
(674,-2,q),
(661,-5,o),
(652,-6,q),
(625,-9,o),
(606,-9,q),
(544,-9,o),
(504.5,18,q),
(465,45,o),
(437,96,q),
(379,-11,o),
(262,-11,q),
(145,-11,o),
(100,44,q),
(55,99,o),
(55,245,q),
(55,315,o),
(74,367,q),
(93,419,o),
(125,446,q),
(187,500,o),
(265,500,q),
(343,500,o),
(384,478.5,q),
(425,457,o),
(445,407,q),
(474,457,o),
(519,479,q),
(564,501,o),
(611,501,q),
(790,500,o),
(790,321,q)
);
},
{
closed = 1;
nodes = (
(302,444,o),
(258.5,444,q),
(215,444,o),
(186.5,431.5,q),
(158,419,o),
(144.5,389.5,q),
(131,360,o),
(127,329.5,q),
(123,299,o),
(123,246,q),
(123,133,o),
(148.5,90,q),
(174,47,o),
(261,47,q),
(350,47,o),
(378,94,q),
(393,120,o),
(398,150.5,q),
(403,181,o),
(404,229,q),
(404,246,l),
(404,329,o),
(395,363,q),
(386,397,o),
(371,411,q),
(356,425,o),
(329,434.5,q)
);
},
{
closed = 1;
nodes = (
(727,397,o),
(697,421,q),
(667,445,o),
(608,445,q),
(549,445,o),
(511,413.5,q),
(473,382,o),
(472,297,q),
(724,297,l),
(727,320,o),
(727,337,q)
);
}
);
width = 842;
}
);
unicode = 339;
},
{
category = Letter;
glyphname = Scaron;
kernLeft = S.2;
kernRight = S;
layers = (
{
layerId = "47a458af-9e79-4f2a-b864-b7c0e255957d";
name = Fore;
shapes = (
{
closed = 1;
nodes = (
(142,46,o),
(231,46,q),
(320,46,o),
(357,72.5,q),
(394,99,o),
(394,171,q),
(394,209,o),
(370,234,q),
(347,256,o),
(328,266,q),
(292,284,l),
(275,292,o),
(250.5,303,q),
(226,314,o),
(208,322.5,q),
(190,331,o),
(159,347.5,q),
(128,364,o),
(115,375.5,q),
(102,387,o),
(86,404,q),
(58,435,o),
(58,484,q),
(58,567,o),
(115,613.5,q),
(172,660,o),
(262,660,q),
(352,660,o),
(429,635,q),
(416,585,l),
(354,605,o),
(273.5,605,q),
(193,605,o),
(160,579.5,q),
(127,554,o),
(127,492,q),
(127,446,o),
(174,416,q),
(212,392,o),
(291,357.5,q),
(370,323,o),
(398,304,q),
(469,256,o),
(470,174,q),
(470,-9,o),
(233,-9,q),
(134,-9,o),
(48,20,q),
(65,75,l)
);
},
{
closed = 1;
nodes = (
(261,772,l),
(366,859,l),
(395,829,l),
(291,723,l),
(231,723,l),
(127,829,l),
(155,859,l)
);
}
);
width = 514;
}
);
unicode = 352;
},
{
category = Letter;
glyphname = scaron;
kernLeft = s.2;
kernRight = s;
layers = (
{
layerId = "47a458af-9e79-4f2a-b864-b7c0e255957d";
name = Fore;
shapes = (
{
closed = 1;
nodes = (
(121,44,o),
(175,44,q),
(229,44,o),
(267.5,66.5,q),
(306,89,o),
(306,126,q),
(306,163,o),
(280,185.5,q),
(254,208,o),
(217,222,q),
(180,236,o),
(143.5,251.5,q),
(107,267,o),
(81,295.5,q),
(55,324,o),
(55,366,q),
(55,432,o),
(101,467.5,q),
(147,503,o),
(216.5,503,q),
(286,503,o),
(350,480,q),
(337,434,l),
(287,451,o),
(224,451,q),
(120,451,o),
(120,370,q),
(120,318,o),
(210,284,q),
(248,270,o),
(285.5,253.5,q),
(323,237,o),
(349.5,206,q),
(376,175,o),
(376,131,q),
(376,64,o),
(318,28,q),
(260,-8,o),
(184,-8,q),
(108,-8,o),
(44,19,q),
(59,68,l)
);
},
{
closed = 1;
nodes = (
(206,616,l),
(311,703,l),
(340,673,l),
(236,567,l),
(176,567,l),
(72,673,l),
(100,703,l)
);
}
);
width = 418;
}
);
unicode = 353;
},
{
category = Letter;
glyphname = Ydieresis;
kernLeft = Y.2;
kernRight = Y;
layers = (
{
layerId = "47a458af-9e79-4f2a-b864-b7c0e255957d";
name = Fore;
shapes = (
{
closed = 1;
nodes = (
(236,265,l),
(30,648,l),
(104,648,l),
(269,324,l),
(437,648,l),
(508,648,l),
(303,265,l),
(302,0,l),
(236,0,l)
);
},
{
closed = 1;
nodes = (
(232,814,l),
(232,740,l),
(160,740,l),
(160,814,l)
);
},
{
closed = 1;
nodes = (
(378,814,l),
(378,740,l),
(306,740,l),
(306,814,l)
);
}
);
width = 538;
}
);
unicode = 376;
},
{
category = Letter;
glyphname = Zcaron;
kernLeft = Z.2;
kernRight = Z;
layers = (
{
layerId = "47a458af-9e79-4f2a-b864-b7c0e255957d";
name = Fore;
shapes = (
{
closed = 1;
nodes = (
(47,648,l),
(476,648,l),
(476,592,l),
(118,56,l),
(476,58,l),
(457,0,l),
(47,0,l),
(47,56,l),
(403,592,l),
(47,592,l)
);
},
{
closed = 1;
nodes = (
(271,772,l),
(376,859,l),
(405,829,l),
(301,723,l),
(241,723,l),
(137,829,l),
(165,859,l)
);
}
);
width = 522;
}
);
unicode = 381;
},
{
category = Letter;
glyphname = zcaron;
kernLeft = z.2;
kernRight = z;
layers = (
{
layerId = "47a458af-9e79-4f2a-b864-b7c0e255957d";
name = Fore;
shapes = (
{
closed = 1;
nodes = (
(407,438,l),
(125,71,l),
(110,56,l),
(424,56,l),
(405,0,l),
(37,0,l),
(37,55,l),
(322,422,l),
(337,437,l),
(58,437,l),
(58,492,l),
(407,492,l)
);
},
{
closed = 1;
nodes = (
(233,616,l),
(338,703,l),
(367,673,l),
(263,567,l),
(203,567,l),
(99,673,l),
(127,703,l)
);
}
);
width = 461;
}
);
unicode = 382;
},
{
category = Letter;
glyphname = florin;
layers = (
{
layerId = "47a458af-9e79-4f2a-b864-b7c0e255957d";
name = Fore;
shapes = (
{
closed = 1;
nodes = (
(-41,-156,l),
(-28,-155,l),
(45,-149,o),
(78,-97,q),
(93,-73,o),
(94,-39,q),
(94,438,l),
(94,443,o),
(81,443,q),
(47,443,l),
(48,472,l),
(89,491,o),
(94,493,q),
(94,494,l),
(93,572,l),
(100,729,o),
(299,735,q),
(291,689,l),
(278,688,l),
(205,682,o),
(172,630,q),
(157,606,o),
(156,572,q),
(156,500,l),
(156,492,o),
(198.5,492,q),
(241,492,o),
(259,492.5,q),
(277,493,o),
(282,493,q),
(273,444,l),
(164,444,l),
(156,444,o),
(156,440,q),
(156,-39,l),
(149,-196,o),
(-49,-202,q)
);
}
);
width = 308;
}
);
unicode = 402;
},
{
category = Letter;
glyphname = circumflex;
layers = (
{
layerId = "47a458af-9e79-4f2a-b864-b7c0e255957d";
name = Fore;
shapes = (
{
closed = 1;
nodes = (
(83,587,l),
(55,617,l),
(159,723,l),
(219,723,l),
(323,617,l),
(294,587,l),
(189,674,l)
);
}
);
width = 378;
}
);
unicode = 710;
},
{
category = Letter;
glyphname = caron;
layers = (
{
layerId = "47a458af-9e79-4f2a-b864-b7c0e255957d";
name = Fore;
shapes = (
{
closed = 1;
nodes = (
(189,616,l),
(294,703,l),
(323,673,l),
(219,567,l),
(159,567,l),
(55,673,l),
(83,703,l)
);
}
);
width = 378;
}
);
unicode = 711;
},
{
category = Letter;
glyphname = breve;
layers = (
{
layerId = "47a458af-9e79-4f2a-b864-b7c0e255957d";
name = Fore;
shapes = (
{
closed = 1;
nodes = (
(267,660,l),
(267,620,o),
(241,591.5,q),
(215,563,o),
(165,563,q),
(115,563,o),
(90,591,q),
(65,619,o),
(65,660,q),
(105,660,l),
(105,630,o),
(117.5,614,q),
(130,598,o),
(165,598,q),
(227,598,o),
(227,660,q)
);
}
);
width = 332;
}
);
unicode = 728;
},
{
category = Letter;
glyphname = dotaccent;
layers = (
{
layerId = "47a458af-9e79-4f2a-b864-b7c0e255957d";
name = Fore;
shapes = (
{
closed = 1;
nodes = (
(151,657,l),
(151,585,l),
(81,585,l),
(81,657,l)
);
}
);
width = 833;
}
);
unicode = 729;
},
{
category = Letter;
glyphname = ring;
layers = (
{
layerId = "47a458af-9e79-4f2a-b864-b7c0e255957d";
name = Fore;
shapes = (
{
closed = 1;
nodes = (
(259,630,o),
(233.5,601,q),
(208,572,o),
(161,572,q),
(114,572,o),
(89.5,600,q),
(65,628,o),
(65,668.5,q),
(65,709,o),
(90,737,q),
(115,765,o),
(162.5,765,q),
(210,765,o),
(234.5,737.5,q),
(259,710,o),
(259,670,q)
);
},
{
closed = 1;
nodes = (
(220,645,o),
(220,669.5,q),
(220,694,o),
(205.5,712.5,q),
(191,731,o),
(162.5,731,q),
(134,731,o),
(119,712.5,q),
(104,694,o),
(104,669,q),
(104,644,o),
(118,625,q),
(132,606,o),
(161,606,q),
(190,606,o),
(205,625.5,q)
);
}
);
width = 334;
}
);
unicode = 730;
},
{
category = Letter;
glyphname = ogonek;
layers = (
{
layerId = "47a458af-9e79-4f2a-b864-b7c0e255957d";
name = Fore;
shapes = (
{
closed = 1;
nodes = (
(170,-5,l),
(170,-64,l),
(199,-178,l),
(155,-178,l),
(152,-174,l),
(110,-64,l),
(110,-5,l)
);
}
);
width = 339;
}
);
unicode = 731;
},
{
category = Letter;
glyphname = tilde;
layers = (
{
layerId = "47a458af-9e79-4f2a-b864-b7c0e255957d";
name = Fore;
shapes = (
{
closed = 1;
nodes = (
(279,581,o),
(270,579.5,q),
(261,578,o),
(252.5,578,q),
(244,578,o),
(226,583,q),
(141,603,l),
(66,571,l),
(48,599,l),
(90,634,l),
(111,652,o),
(118.5,653.5,q),
(126,655,o),
(133.5,655,q),
(141,655,o),
(158,651,q),
(253,629,l),
(327,664,l),
(345,635,l),
(298,596,l)
);
}
);
width = 833;
}
);
unicode = 732;
},
{
category = Letter;
glyphname = hungarumlaut;
layers = (
{
layerId = "47a458af-9e79-4f2a-b864-b7c0e255957d";
name = Fore;
shapes = (
{
closed = 1;
nodes = (
(74,574,l),
(75,576,o),
(88,590,q),
(101,604,o),
(105.5,609.5,q),
(110,615,o),
(122,630.5,q),
(134,646,o),
(142,658,q),
(158,680,o),
(183,726,q),
(241,695,l),
(209,645,o),
(167,598,q),
(109,553,l)
);
},
{
closed = 1;
nodes = (
(224,574,l),
(225,576,o),
(238,590,q),
(251,604,o),
(255.5,609.5,q),
(260,615,o),
(272,630.5,q),
(284,646,o),
(292,658,q),
(308,680,o),
(333,726,q),
(391,695,l),
(359,645,o),
(317,598,q),
(259,553,l)
);
}
);
width = 465;
}
);
unicode = 733;
},
{
category = Letter;
glyphname = endash;
kernLeft = hyphen.2;
kernRight = hyphen;
layers = (
{
layerId = "47a458af-9e79-4f2a-b864-b7c0e255957d";
name = Fore;
shapes = (
{
closed = 1;
nodes = (
(66,329,l),
(495,329,l),
(495,270,l),
(66,270,l)
);
}
);
width = 561;
}
);
unicode = 8211;
},
{
category = Letter;
glyphname = emdash;
kernLeft = hyphen.2;
kernRight = hyphen;
layers = (
{
layerId = "47a458af-9e79-4f2a-b864-b7c0e255957d";
name = Fore;
shapes = (
{
closed = 1;
nodes = (
(76,329,l),
(792,329,l),
(792,270,l),
(76,270,l)
);
}
);
width = 868;
}
);
unicode = 8212;
},
{
category = Letter;
glyphname = quoteleft;
kernLeft = quoteleft.2;
kernRight = quoteleft;
layers = (
{
layerId = "47a458af-9e79-4f2a-b864-b7c0e255957d";
name = Fore;
shapes = (
{
closed = 1;
nodes = (
(64,447,l),
(64,501,l),
(65,555,o),
(69.5,577,q),
(74,599,o),
(85,613.5,q),
(96,628,o),
(117,645.5,q),
(138,663,o),
(142,667,q),
(168,644,l),
(141,610,o),
(127,579,q),
(124,503,l),
(124,447,l)
);
}
);
width = 211;
}
);
unicode = 8216;
},
{
category = Letter;
glyphname = quoteright;
kernLeft = quoteright.2;
kernRight = quoteright;
layers = (
{
layerId = "47a458af-9e79-4f2a-b864-b7c0e255957d";
name = Fore;
shapes = (
{
closed = 1;
nodes = (
(151,667,l),
(151,613,l),
(151,569,o),
(150.5,551.5,q),
(150,534,o),
(138,513,q),
(126,492,o),
(118,485,q),
(110,478,o),
(73,447,q),
(47,470,l),
(76,508,o),
(88,535,q),
(91,612,l),
(91,667,l)
);
}
);
width = 208;
}
);
unicode = 8217;
},
{
category = Letter;
glyphname = quotesinglbase;
kernLeft = comma.2;
kernRight = comma;
layers = (
{
layerId = "47a458af-9e79-4f2a-b864-b7c0e255957d";
name = Fore;
shapes = (
{
closed = 1;
nodes = (
(144,92,l),
(145,1,l),
(92,-126,l),
(43,-126,l),
(69,1,l),
(69,92,l)
);
}
);
width = 214;
}
);
unicode = 8218;
},
{
category = Letter;
glyphname = quotedblleft;
kernLeft = quoteleft.2;
kernRight = quoteleft;
layers = (
{
layerId = "47a458af-9e79-4f2a-b864-b7c0e255957d";
name = Fore;
shapes = (
{
closed = 1;
nodes = (
(186,447,l),
(186,501,l),
(187,579,o),
(197.5,599,q),
(208,619,o),
(252,657,q),
(264,667,l),
(291,644,l),
(265,610,o),
(249,579,q),
(247,503,l),
(247,447,l)
);
},
{
closed = 1;
nodes = (
(64,447,l),
(64,501,l),
(65,555,o),
(69.5,577,q),
(74,599,o),
(85,613.5,q),
(96,628,o),
(117,645.5,q),
(138,663,o),
(142,667,q),
(168,644,l),
(141,610,o),
(127,579,q),
(124,503,l),
(124,447,l)
);
}
);
width = 334;
}
);
unicode = 8220;
},
{
category = Letter;
glyphname = quotedblright;
kernLeft = quoteright.2;
kernRight = quoteright;
layers = (
{
layerId = "47a458af-9e79-4f2a-b864-b7c0e255957d";
name = Fore;
shapes = (
{
closed = 1;
nodes = (
(151,667,l),
(151,613,l),
(151,569,o),
(150.5,551.5,q),
(150,534,o),
(138,513,q),
(126,492,o),
(118,485,q),
(110,478,o),
(73,447,q),
(47,470,l),
(76,508,o),
(88,535,q),
(91,612,l),
(91,667,l)
);
},
{
closed = 1;
nodes = (
(274,667,l),
(273,613,l),
(273,539,o),
(264,518,q),
(255,497,o),
(208,457,q),
(200,451,o),
(196,447,q),
(169,470,l),
(198,508,o),
(211,535,q),
(213,612,l),
(213,667,l)
);
}
);
width = 330;
}
);
unicode = 8221;
},
{
category = Letter;
glyphname = quotedblbase;
kernLeft = comma.2;
kernRight = comma;
layers = (
{
layerId = "47a458af-9e79-4f2a-b864-b7c0e255957d";
name = Fore;
shapes = (
{
closed = 1;
nodes = (
(144,92,l),
(145,1,l),
(92,-126,l),
(43,-126,l),
(69,1,l),
(69,92,l)
);
},
{
closed = 1;
nodes = (
(314,92,l),
(315,1,l),
(262,-126,l),
(213,-126,l),
(239,1,l),
(239,92,l)
);
}
);
width = 384;
}
);
unicode = 8222;
},
{
category = Letter;
glyphname = dagger;
layers = (
{
layerId = "47a458af-9e79-4f2a-b864-b7c0e255957d";
name = Fore;
shapes = (
{
closed = 1;
nodes = (
(39,492,l),
(197,492,l),
(197,682,l),
(261,682,l),
(260,492,l),
(420,492,l),
(420,433,l),
(260,433,l),
(260,-44,l),
(197,-44,l),
(197,433,l),
(39,433,l)
);
}
);
width = 459;
}
);
unicode = 8224;
},
{
category = Letter;
glyphname = daggerdbl;
layers = (
{
layerId = "47a458af-9e79-4f2a-b864-b7c0e255957d";
name = Fore;
shapes = (
{
closed = 1;
nodes = (
(55,443,l),
(188,443,l),
(188,682,l),
(252,682,l),
(251,443,l),
(386,443,l),
(386,384,l),
(251,384,l),
(251,243,l),
(386,243,l),
(386,184,l),
(251,184,l),
(251,-44,l),
(188,-44,l),
(188,184,l),
(55,184,l),
(55,243,l),
(188,243,l),
(188,384,l),
(55,384,l)
);
}
);
width = 442;
}
);
unicode = 8225;
},
{
category = Letter;
glyphname = bullet;
layers = (
{
layerId = "47a458af-9e79-4f2a-b864-b7c0e255957d";
name = Fore;
shapes = (
{
closed = 1;
nodes = (
(141,445,o),
(184,445,q),
(227,445,o),
(248.5,422,q),
(270,399,o),
(270,345.5,q),
(270,292,o),
(243,269.5,q),
(216,247,o),
(175.5,247,q),
(135,247,o),
(110,268,q),
(85,289,o),
(85,343,q),
(85,397,o),
(113,421,q)
);
}
);
width = 356;
}
);
unicode = 8226;
},
{
category = Letter;
glyphname = ellipsis;
kernLeft = comma.2;
layers = (
{
layerId = "47a458af-9e79-4f2a-b864-b7c0e255957d";
name = Fore;
shapes = (
{
closed = 1;
nodes = (
(154,0,l),
(69,0,l),
(69,90,l),
(154,90,l)
);
},
{
closed = 1;
nodes = (
(534,0,l),
(449,0,l),
(449,90,l),
(534,90,l)
);
},
{
closed = 1;
nodes = (
(344,0,l),
(259,0,l),
(259,90,l),
(344,90,l)
);
}
);
width = 603;
}
);
unicode = 8230;
},
{
category = Letter;
glyphname = perthousand;
layers = (
{
layerId = "47a458af-9e79-4f2a-b864-b7c0e255957d";
name = Fore;
shapes = (
{
closed = 1;
nodes = (
(131,-9,l),
(505,696,l),
(569,696,l),
(196,-9,l)
);
},
{
closed = 1;
nodes = (
(124,647,o),
(111,628,q),
(98,609,o),
(98,543,q),
(98,477,o),
(112.5,451.5,q),
(127,426,o),
(175.5,426,q),
(224,426,o),
(236.5,446,q),
(249,466,o),
(249,531,q),
(249,596,o),
(235.5,621.5,q),
(222,647,o),
(173,647,q)
);
},
{
closed = 1;
nodes = (
(253,696,o),
(277,662,q),
(301,628,o),
(301,545.5,q),
(301,463,o),
(268,420,q),
(235,377,o),
(166,377,q),
(97,377,o),
(71.5,412,q),
(46,447,o),
(46,528.5,q),
(46,610,o),
(80,653,q),
(114,696,o),
(173,696,q)
);
},
{
closed = 1;
nodes = (
(484,259,o),
(471,240,q),
(458,221,o),
(458,155,q),
(458,89,o),
(472.5,63.5,q),
(487,38,o),
(535.5,38,q),
(584,38,o),
(596.5,58,q),
(609,78,o),
(609,143,q),
(609,208,o),
(595.5,233.5,q),
(582,259,o),
(533,259,q)
);
},
{
closed = 1;
nodes = (
(613,308,o),
(637,274,q),
(661,240,o),
(661,157.5,q),
(661,75,o),
(628,32,q),
(595,-11,o),
(526,-11,q),
(457,-11,o),
(431.5,24,q),
(406,59,o),
(406,140.5,q),
(406,222,o),
(440,265,q),
(474,308,o),
(533,308,q)
);
},
{
closed = 1;
nodes = (
(804,259,o),
(791,240,q),
(778,221,o),
(778,155,q),
(778,89,o),
(792.5,63.5,q),
(807,38,o),
(855.5,38,q),
(904,38,o),
(916.5,58,q),
(929,78,o),
(929,143,q),
(929,208,o),
(915.5,233.5,q),
(902,259,o),
(853,259,q)
);
},
{
closed = 1;
nodes = (
(933,308,o),
(957,274,q),
(981,240,o),
(981,157.5,q),
(981,75,o),
(948,32,q),
(915,-11,o),
(846,-11,q),
(777,-11,o),
(751.5,24,q),
(726,59,o),
(726,140.5,q),
(726,222,o),
(760,265,q),
(794,308,o),
(853,308,q)
);
}
);
width = 1024;
}
);
unicode = 8240;
},
{
category = Letter;
glyphname = guilsinglleft;
kernLeft = guillemotleft.2;
kernRight = guillemotleft;
layers = (
{
layerId = "47a458af-9e79-4f2a-b864-b7c0e255957d";
name = Fore;
shapes = (
{
closed = 1;
nodes = (
(116,280,o),
(116,268,q),
(116,256,o),
(137,231,q),
(249,111,l),
(206,71,l),
(43,248,l),
(43,286,l),
(205,462,l),
(250,424,l),
(137,301,l)
);
}
);
width = 306;
}
);
unicode = 8249;
},
{
category = Letter;
glyphname = guilsinglright;
kernLeft = guillemotright.2;
kernRight = guillemotright;
layers = (
{
layerId = "47a458af-9e79-4f2a-b864-b7c0e255957d";
name = Fore;
shapes = (
{
closed = 1;
nodes = (
(190,256,o),
(190,268,q),
(190,280,o),
(169,301,q),
(56,424,l),
(101,462,l),
(263,286,l),
(263,248,l),
(100,71,l),
(57,111,l),
(169,231,l)
);
}
);
width = 306;
}
);
unicode = 8250;
},
{
category = Letter;
glyphname = fraction;
layers = (
{
layerId = "47a458af-9e79-4f2a-b864-b7c0e255957d";
name = Fore;
shapes = (
{
closed = 1;
nodes = (
(292,751,l),
(346,732,l),
(78,-26,l),
(23,-7,l)
);
}
);
width = 369;
}
);
unicode = 8260;
},
{
category = Letter;
glyphname = Euro;
layers = (
{
layerId = "47a458af-9e79-4f2a-b864-b7c0e255957d";
name = Fore;
shapes = (
{
closed = 1;
nodes = (
(395,302,l),
(395,252,l),
(199,252,l),
(213,133,o),
(269,90,q),
(317,54,o),
(387,54,q),
(421,54,o),
(440,56,q),
(497,60,o),
(554,94,q),
(577,40,l),
(505,-9,o),
(389,-9,q),
(349,-9,o),
(318.5,-4.5,q),
(288,0,o),
(253,16,q),
(218,32,o),
(194,59,q),
(139,122,o),
(128,252,q),
(55,252,l),
(55,302,l)
);
},
{
closed = 1;
nodes = (
(55,374,l),
(55,424,l),
(133,424,l),
(175,660,o),
(421,660,q),
(494,660,o),
(577,633,q),
(561,580,l),
(471,598,o),
(431,598,q),
(391,598,o),
(364,595,q),
(337,592,o),
(307.5,581.5,q),
(278,571,o),
(259,552,q),
(215,510,o),
(202,424,q),
(395,424,l),
(395,374,l)
);
}
);
width = 635;
}
);
unicode = 8364;
},
{
category = Letter;
glyphname = trademark;
kernLeft = trademark;
layers = (
{
layerId = "47a458af-9e79-4f2a-b864-b7c0e255957d";
name = Fore;
shapes = (
{
closed = 1;
nodes = (
(524,436,l),
(634,657,l),
(678,657,l),
(689,301,l),
(652,301,l),
(649,569,l),
(648,609,l),
(542,400,l),
(506,400,l),
(400,609,l),
(399,569,l),
(396,301,l),
(359,301,l),
(371,657,l),
(414,657,l)
);
},
{
closed = 1;
nodes = (
(62,657,l),
(298,657,l),
(298,626,l),
(198,626,l),
(198,301,l),
(162,301,l),
(162,626,l),
(62,626,l)
);
}
);
width = 764;
}
);
unicode = 8482;
},
{
category = Letter;
glyphname = minus;
layers = (
{
layerId = "47a458af-9e79-4f2a-b864-b7c0e255957d";
name = Fore;
shapes = (
{
closed = 1;
nodes = (
(76,344,l),
(457,344,l),
(457,285,l),
(76,285,l)
);
}
);
width = 533;
}
);
unicode = 8722;
},
{
category = Letter;
glyphname = fi;
kernLeft = f.2;
kernRight = i;
layers = (
{
layerId = "47a458af-9e79-4f2a-b864-b7c0e255957d";
name = Fore;
shapes = (
{
closed = 1;
nodes = (
(320,492,l),
(363,492,o),
(406,492,q),
(406,0,l),
(344,0,l),
(344,444,l),
(161,444,l),
(153,444,o),
(153,440,q),
(153,-74,l),
(118,-198,l),
(115,-201,l),
(69,-201,l),
(91,-74,l),
(91,438,l),
(91,443,o),
(78,443,q),
(44,443,l),
(45,472,l),
(86,491,o),
(91,493,q),
(91,494,l),
(90,572,l),
(90,624,o),
(111,659.5,q),
(132,695,o),
(162,710,q),
(219,736,o),
(269,736,q),
(272,736,o),
(275,736,q),
(296,735,l),
(285,686,l),
(284,684,o),
(275.5,685.5,q),
(267,687,o),
(259.5,687,q),
(252,687,o),
(235,681.5,q),
(218,676,o),
(199,667,q),
(180,658,o),
(166.5,633,q),
(153,608,o),
(153,572,q),
(153,500,l),
(153,492,o),
(269,492,q)
);
},
{
closed = 1;
nodes = (
(410,657,l),
(410,585,l),
(340,585,l),
(340,657,l)
);
}
);
width = 484;
}
);
unicode = 64257;
},
{
category = Letter;
glyphname = fl;
kernLeft = f.2;
kernRight = l;
layers = (
{
layerId = "47a458af-9e79-4f2a-b864-b7c0e255957d";
name = Fore;
shapes = (
{
closed = 1;
nodes = (
(343,684,l),
(324,688,o),
(308.5,688,q),
(293,688,o),
(270.5,685,q),
(248,682,o),
(222,672,q),
(196,662,o),
(178.5,636,q),
(161,610,o),
(159,572,q),
(159,500,l),
(159,495,o),
(160.5,493.5,q),
(162,492,o),
(168,492,q),
(281,492,l),
(273,445,l),
(164,445,l),
(156,445,o),
(156,441,q),
(156,-73,l),
(117,-198,l),
(114,-201,l),
(68,-201,l),
(90,-74,l),
(91,439,l),
(91,443,o),
(80.5,443.5,q),
(70,444,o),
(43,444,q),
(44,472,l),
(52,476,o),
(68.5,482.5,q),
(85,489,o),
(91,492,q),
(91,573,l),
(92,634,o),
(124,672.5,q),
(156,711,o),
(203,722.5,q),
(250,734,o),
(301,734,q),
(352,734,o),
(408,719,q),
(408,122,l),
(433,-6,l),
(384,-6,l),
(380,-2,l),
(342,122,l)
);
}
);
width = 490;
}
);
unicode = 64258;
},
{
category = Letter;
glyphname = i.alt;
kernLeft = i.alt.2;
kernRight = i.alt;
layers = (
{
layerId = "47a458af-9e79-4f2a-b864-b7c0e255957d";
name = Fore;
shapes = (
{
closed = 1;
nodes = (
(75,493,l),
(140,493,l),
(140,123,l),
(164,0,l),
(164,-4,l),
(115,-4,l),
(111,-1,l),
(74,123,l)
);
},
{
closed = 1;
nodes = (
(142,584,l),
(70,584,l),
(70,658,l),
(142,658,l)
);
}
